<?xml version="1.0" encoding="UTF-8" standalone="no"?>
<!-- Created with Inkscape (http://www.inkscape.org/) -->

<svg
   width="1024"
   height="1024"
   viewBox="0 0 270.93333 270.93333"
   version="1.1"
   id="svg1"
   xml:space="preserve"
   inkscape:export-filename="icon.png"
   inkscape:export-xdpi="96"
   inkscape:export-ydpi="96"
   inkscape:version="1.4.3 (0d15f75042, 2025-12-25)"
   sodipodi:docname="icons.svg"
   xmlns:inkscape="http://www.inkscape.org/namespaces/inkscape"
   xmlns:sodipodi="http://sodipodi.sourceforge.net/DTD/sodipodi-0.dtd"
   xmlns="http://www.w3.org/2000/svg"
   xmlns:svg="http://www.w3.org/2000/svg"><sodipodi:namedview
     id="namedview1"
     pagecolor="#505050"
     bordercolor="#eeeeee"
     borderopacity="1"
     inkscape:showpageshadow="false"
     inkscape:pageopacity="0"
     inkscape:pagecheckerboard="true"
     inkscape:deskcolor="#505050"
     inkscape:document-units="mm"
     inkscape:export-bgcolor="#ffffff00"
     labelstyle="default"
     inkscape:clip-to-page="true"
     inkscape:zoom="0.49575348"
     inkscape:cx="178.51614"
     inkscape:cy="545.63409"
     inkscape:window-width="1920"
     inkscape:window-height="1011"
     inkscape:window-x="0"
     inkscape:window-y="0"
     inkscape:window-maximized="1"
     inkscape:current-layer="layer1" /><defs
     id="defs1"><inkscape:path-effect
       effect="fillet_chamfer"
       id="path-effect1535"
       is_visible="true"
       lpeversion="1"
       nodesatellites_param="F,0,0,1,0,2.6458333,0,1 @ F,0,0,1,0,2.6458333,0,1 @ F,0,0,1,0,2.6458333,0,1 @ F,0,0,1,0,2.6458333,0,1"
       radius="10"
       unit="px"
       method="auto"
       mode="F"
       chamfer_steps="1"
       flexible="false"
       use_knot_distance="true"
       apply_no_radius="true"
       apply_with_radius="true"
       only_selected="false"
       hide_knots="false" /><inkscape:path-effect
       effect="fillet_chamfer"
       id="path-effect1534"
       is_visible="true"
       lpeversion="1"
       nodesatellites_param="F,0,0,1,0,3.96875,0,1 @ F,0,0,1,0,3.96875,0,1 @ F,0,0,1,0,3.96875,0,1 @ F,0,0,1,0,3.96875,0,1"
       radius="15"
       unit="px"
       method="auto"
       mode="F"
       chamfer_steps="1"
       flexible="false"
       use_knot_distance="true"
       apply_no_radius="true"
       apply_with_radius="true"
       only_selected="false"
       hide_knots="false" /><inkscape:path-effect
       effect="fillet_chamfer"
       id="path-effect1532"
       is_visible="true"
       lpeversion="1"
       nodesatellites_param="F,0,0,1,0,3.96875,0,1 @ F,0,0,1,0,3.96875,0,1 @ F,0,0,1,0,3.96875,0,1 @ F,0,0,1,0,3.96875,0,1"
       radius="15"
       unit="px"
       method="auto"
       mode="F"
       chamfer_steps="1"
       flexible="false"
       use_knot_distance="true"
       apply_no_radius="true"
       apply_with_radius="true"
       only_selected="false"
       hide_knots="false" /><inkscape:path-effect
       effect="fillet_chamfer"
       id="path-effect1531"
       is_visible="true"
       lpeversion="1"
       nodesatellites_param="F,0,0,1,0,2.6458333,0,1 @ F,0,0,1,0,2.6458333,0,1 @ F,0,0,1,0,2.6458333,0,1 @ F,0,0,1,0,2.6458333,0,1"
       radius="10"
       unit="px"
       method="auto"
       mode="F"
       chamfer_steps="1"
       flexible="false"
       use_knot_distance="true"
       apply_no_radius="true"
       apply_with_radius="true"
       only_selected="false"
       hide_knots="false" /><inkscape:path-effect
       effect="fillet_chamfer"
       id="path-effect1529"
       is_visible="true"
       lpeversion="1"
       nodesatellites_param="F,0,0,1,0,2.6458333,0,1 @ F,0,0,1,0,2.6458333,0,1 @ F,0,0,1,0,2.6458333,0,1 @ F,0,0,1,0,2.6458333,0,1"
       radius="10"
       unit="px"
       method="auto"
       mode="F"
       chamfer_steps="1"
       flexible="false"
       use_knot_distance="true"
       apply_no_radius="true"
       apply_with_radius="true"
       only_selected="false"
       hide_knots="false" /><inkscape:path-effect
       effect="fillet_chamfer"
       id="path-effect1527"
       is_visible="true"
       lpeversion="1"
       nodesatellites_param="F,0,0,1,0,2.6458333,0,1 @ F,0,0,1,0,2.6458333,0,1 @ F,0,0,1,0,2.6458333,0,1 @ F,0,0,1,0,2.6458333,0,1"
       radius="10"
       unit="px"
       method="auto"
       mode="F"
       chamfer_steps="1"
       flexible="false"
       use_knot_distance="true"
       apply_no_radius="true"
       apply_with_radius="true"
       only_selected="false"
       hide_knots="false" /><inkscape:path-effect
       effect="fillet_chamfer"
       id="path-effect1526"
       is_visible="true"
       lpeversion="1"
       nodesatellites_param="F,0,0,1,0,3.96875,0,1 @ F,0,0,1,0,3.96875,0,1 @ F,0,0,1,0,3.96875,0,1 @ F,0,0,1,0,3.96875,0,1"
       radius="15"
       unit="px"
       method="auto"
       mode="F"
       chamfer_steps="1"
       flexible="false"
       use_knot_distance="true"
       apply_no_radius="true"
       apply_with_radius="true"
       only_selected="false"
       hide_knots="false" /><inkscape:path-effect
       effect="fillet_chamfer"
       id="path-effect1525"
       is_visible="true"
       lpeversion="1"
       nodesatellites_param="F,0,0,1,0,0.26458333,0,1 @ F,0,0,1,0,0.26458333,0,1 @ F,0,0,1,0,0.26458333,0,1 @ F,0,0,1,0,0.26458333,0,1 @ F,0,0,1,0,0.26458333,0,1 @ F,0,0,1,0,0.26458333,0,1"
       radius="2"
       unit="px"
       method="arc"
       mode="F"
       chamfer_steps="1"
       flexible="false"
       use_knot_distance="true"
       apply_no_radius="true"
       apply_with_radius="true"
       only_selected="false"
       hide_knots="false" /><inkscape:path-effect
       effect="fillet_chamfer"
       id="path-effect1524"
       is_visible="true"
       lpeversion="1"
       nodesatellites_param="F,0,0,1,0,8.6763236,0,1 @ F,0,0,1,0,11.695383,0,1 @ F,0,0,1,0,0,0,1 @ F,0,0,1,0,0,0,1"
       radius="0"
       unit="px"
       method="auto"
       mode="F"
       chamfer_steps="1"
       flexible="false"
       use_knot_distance="true"
       apply_no_radius="true"
       apply_with_radius="true"
       only_selected="false"
       hide_knots="false" /><inkscape:path-effect
       effect="fillet_chamfer"
       id="path-effect1523"
       is_visible="true"
       lpeversion="1"
       nodesatellites_param="F,0,0,1,0,0,0,1 @ F,0,0,1,0,0,0,1 @ F,0,0,1,0,0,0,1 @ F,0,0,1,0,0,0,1"
       radius="0"
       unit="px"
       method="auto"
       mode="F"
       chamfer_steps="1"
       flexible="false"
       use_knot_distance="true"
       apply_no_radius="true"
       apply_with_radius="true"
       only_selected="false"
       hide_knots="false" /><meshgradient
       inkscape:collect="always"
       id="meshgradient1"
       gradientUnits="userSpaceOnUse"
       x="18.387756"
       y="8.4245768"><meshrow
         id="meshrow12"><meshpatch
           id="meshpatch12"><stop
             path="c 25.0677,0  50.1354,0  75.2031,0"
             style="stop-color:#34e7fb;stop-opacity:1"
             id="stop12" /><stop
             path="c -8.30251,64.114  12.3197,48.8585  -11.3218,108.941"
             style="stop-color:#e3ff00;stop-opacity:1"
             id="stop13" /><stop
             path="c -53.5459,-2.62856  -38.814,25.6583  -63.8815,25.6583"
             style="stop-color:#5071d2;stop-opacity:1"
             id="stop14" /><stop
             path="c 0,-44.8678  0,-89.7356  0.0002,-134.599"
             style="stop-color:#18a7fd;stop-opacity:1"
             id="stop15" /></meshpatch><meshpatch
           id="meshpatch15"><stop
             path="c 53.2058,0  106.411,0  159.617,0"
             id="stop16" /><stop
             path="c 0,44.8678  0,89.7356  0,134.603"
             style="stop-color:#8d00ff;stop-opacity:1"
             id="stop17" /><stop
             path="c -53.2057,0  -117.732,-25.6617  -170.939,-25.662"
             style="stop-color:#009abd;stop-opacity:1"
             id="stop18" /></meshpatch></meshrow><meshrow
         id="meshrow18"><meshpatch
           id="meshpatch18"><stop
             path="c -2.64261,74.4457  -31.3231,101.721  11.3215,145.984"
             id="stop19" /><stop
             path="c -25.0676,0  -50.1352,0  -75.2028,0"
             style="stop-color:#514bad;stop-opacity:1"
             id="stop20" /><stop
             path="c 0,-40.1072  0,-80.2144  -0.0002,-120.326"
             style="stop-color:#006fff;stop-opacity:1"
             id="stop21" /></meshpatch><meshpatch
           id="meshpatch21"><stop
             path="c 1.0674,33.7028  0,80.2144  0,120.322"
             id="stop22" /><stop
             path="c -53.2058,0  -106.412,0  -159.617,0"
             style="stop-color:#ffffff;stop-opacity:1"
             id="stop23" /></meshpatch></meshrow></meshgradient></defs><g
     inkscape:label="图层 1"
     inkscape:groupmode="layer"
     id="layer1"><g
       id="g1535"
       inkscape:export-filename="codex/exp_3/src/assets/icon.png"
       inkscape:export-xdpi="96"
       inkscape:export-ydpi="96"><path
         style="fill:url(#meshgradient1);stroke-width:0.298607;fill-opacity:1"
         d="M 28.260184,146.91113 C 27.819089,131.93891 25.86443,116.3498 32.640677,102.35254 37.877921,87.685986 49.883136,77.248588 58.828621,64.932305 74.763227,48.602294 96.687416,40.394188 117.94866,33.438494 c 11.28115,-3.126287 20.96747,-9.127972 31.18762,-14.532963 10.81645,-7.926666 25.87031,-9.2189942 39.22765,-9.7569265 17.08521,-1.3745457 38.80642,-2.4985152 49.64956,13.6251655 7.01564,13.324678 18.29066,27.210525 14.39838,43.138534 -2.29428,18.154563 -18.20375,30.504931 -22.00069,47.973696 -1.82797,14.72927 1.83423,29.22793 6.88764,42.92307 3.32424,14.93739 2.93632,30.57513 1.6882,45.70304 -4.23246,14.94039 -19.75718,21.63565 -31.12865,30.35102 -15.72941,9.65981 -31.6766,19.37327 -49.49296,24.59694 -12.34796,7.82512 -27.25013,5.95717 -41.1866,4.9185 -18.612474,-2.93319 -37.5342,1.36943 -56.076625,-1.47304 -14.770776,-2.99149 -24.395184,-15.27172 -30.185461,-28.32111 -7.24648,-11.1952 -14.238074,-23.08348 -12.156106,-37.00564 -1.903996,-13.15559 7.935184,-23.38605 9.635443,-35.8932 0.530005,-4.2433 -0.177282,-8.51657 -0.135877,-12.77445 z"
         id="path1" /><path
         style="mix-blend-mode:multiply;fill:#0e3236;fill-opacity:0.713429;stroke-width:0.264999"
         id="rect1525"
         width="171.70903"
         height="171.70903"
         x="42.644215"
         y="41.134689"
         inkscape:path-effect="#path-effect1526"
         sodipodi:type="rect"
         d="M 46.612965,41.134689 H 210.38449 a 3.96875,3.96875 45 0 1 3.96875,3.96875 V 208.87497 a 3.96875,3.96875 135 0 1 -3.96875,3.96875 H 46.612965 a 3.96875,3.96875 45 0 1 -3.96875,-3.96875 l 0,-163.771531 a 3.96875,3.96875 135 0 1 3.96875,-3.96875 z" /><path
         id="rect1526"
         d="m 121.72796,87.109884 c 12.50612,1.92174 25.31918,-2.73122 37.66102,0.84217 3.23709,0.60222 5.81511,5.54817 0.68341,5.2756 -15.3096,4.515809 -31.28812,1.06962 -46.8489,0.31345 -5.49953,-3.89494 3.07012,-7.82466 6.86206,-6.58015 l 0.82377,0.0448 z"
         style="fill:#ff6868;fill-opacity:1;stroke-width:0.468199" /><path
         id="path1527"
         d="m 78.05312,119.61516 c 11.625331,1.88455 23.59797,-2.73679 35.03018,0.9251 4.93588,1.30965 3.9977,6.24386 -0.88038,6.07661 -11.76276,3.46479 -23.986779,-1.32393 -35.879454,0.97407 -4.386795,1.20378 -12.099605,-5.22125 -5.099926,-7.26815 2.217788,-0.62664 4.541202,-0.67828 6.82958,-0.70763 z"
         style="fill:#ff6868;fill-opacity:1;stroke-width:0.45115" /><path
         style="fill:#ffb500;fill-opacity:1;stroke-width:1.04247"
         d="m 165.05627,200.68045 c -0.92174,-0.44142 -2.17864,-0.82522 -2.79312,-0.85289 -0.69089,-0.0311 -1.61085,-0.50611 -2.41062,-1.24467 -0.71135,-0.65689 -1.4045,-1.19435 -1.54034,-1.19435 -0.41246,0 -1.44911,-2.47201 -1.44911,-3.45553 0,-0.50726 -0.25137,-1.13091 -0.55863,-1.3859 -0.7776,-0.64535 -0.70249,-0.93214 0.37243,-1.42191 0.74124,-0.33773 0.93103,-0.69655 0.93103,-1.76013 0,-0.73477 -0.17921,-1.67082 -0.39825,-2.0801 -0.25457,-0.47566 -0.27033,-0.90352 -0.0437,-1.18587 0.19502,-0.24294 0.35138,-1.12228 0.34747,-1.95408 -0.008,-1.70027 0.66932,-3.26159 1.3207,-3.04447 0.2612,0.0871 0.38624,0.76373 0.31737,1.71751 -0.0649,0.89882 0.0918,1.82146 0.36557,2.15122 0.2973,0.35823 0.44627,1.41127 0.39244,2.77416 -0.0477,1.20821 -0.0146,2.19675 0.0734,2.19675 0.93167,0 8.40204,-9.08525 7.89075,-9.59653 -0.12506,-0.12506 -1.01962,0.0566 -1.98791,0.40361 -2.20901,0.79174 -3.30428,0.79727 -3.73987,0.0189 -0.47009,-0.84 0.0819,-3.01814 1.0172,-4.0137 0.94951,-1.01071 0.96377,-1.36116 0.10163,-2.49671 -1.05353,-1.3876 -1.61935,-3.76693 -1.19496,-5.02491 0.19984,-0.59241 0.78728,-3.39952 1.30537,-6.23801 0.51812,-2.83849 1.04501,-5.32751 1.17086,-5.53116 0.47548,-0.76933 2.73097,-1.44515 3.48188,-1.04326 0.81727,0.43738 1.49231,2.4987 1.49539,4.56628 0.002,1.58064 -0.0783,1.55681 3.17742,0.93922 l 2.41092,-0.45735 v -1.7467 c 0,-0.96067 0.0934,-1.99018 0.20763,-2.28776 0.34889,-0.90922 -0.88058,-1.7539 -2.56184,-1.76007 -0.8559,-0.003 -1.80473,-0.16286 -2.10852,-0.35495 -0.78771,-0.49806 2.60194,-1.95585 5.03235,-2.16426 2.0465,-0.1755 4.64735,0.65511 4.63983,1.48177 -0.002,0.26648 -0.3356,1.82523 -0.74044,3.46386 -0.63616,2.57506 -0.73663,4.28063 -0.74044,12.5691 -0.004,7.0394 0.11071,9.58977 0.42841,9.58977 1.1728,0 3.79529,-2.14937 6.73625,-5.52095 1.79225,-2.05469 3.25865,-3.91547 3.25865,-4.13507 0,-0.60994 -0.99163,-0.47849 -2.60693,0.34557 -2.15765,1.10075 -3.80878,0.97479 -5.38709,-0.41099 -1.668,-1.46452 -1.71478,-2.64223 -0.16258,-4.09221 0.97918,-0.91469 1.44428,-1.0726 3.07243,-1.04311 2.18906,0.0397 8.24155,-1.97557 8.57965,-2.85665 0.11266,-0.29362 0.22986,-2.58709 0.26041,-5.09658 0.0593,-4.87431 0.49201,-6.63959 1.79885,-7.33899 0.93464,-0.50019 2.10453,0.005 2.43687,1.05198 0.12172,0.38347 0.18624,2.48139 0.14338,4.66204 -0.0429,2.18065 0.0784,4.11059 0.26946,4.28878 0.19105,0.17816 1.31643,0.39899 2.50082,0.49073 l 2.15345,0.16678 -0.16525,-2.07993 c -0.0909,-1.14397 -0.28556,-3.12737 -0.43257,-4.40755 -0.2238,-1.94872 -0.17547,-2.32761 0.29697,-2.32761 0.93365,0 1.88054,2.46437 1.55218,4.0397 -0.15594,0.7482 -0.23458,1.52794 -0.17475,1.73278 0.35198,1.20484 0.48834,12.27739 0.17517,14.22485 -0.21388,1.33018 0.21711,12.19335 0.799,20.13808 0.14548,1.98616 0.0485,2.50083 -0.64953,3.44487 -0.45131,0.61042 -0.98237,1.10986 -1.18015,1.10986 -0.19777,0 -0.99879,0.69238 -1.78004,1.53863 -1.2116,1.3124 -1.58002,1.50672 -2.50574,1.32157 -0.59692,-0.11938 -1.19201,-0.11036 -1.32243,0.02 -0.46784,0.46783 -2.9291,1.15498 -3.43777,0.95978 -0.28552,-0.10957 -0.72647,-0.0332 -0.9799,0.16969 -0.25344,0.20289 -1.80148,0.39633 -3.44012,0.42989 -1.63864,0.0336 -4.9637,0.14574 -7.38902,0.24931 -3.57835,0.1528 -4.72131,0.0693 -6.06275,-0.44302 -1.35078,-0.51587 -1.83205,-0.54976 -2.63174,-0.1854 -0.53828,0.24525 -2.16732,0.52081 -3.62012,0.61236 -2.16777,0.13661 -2.94196,0.0225 -4.31732,-0.63613 z m 26.25545,-4.78157 c 0.12661,-0.20484 -0.018,-0.37242 -0.32141,-0.37242 -0.72004,0 -3.01023,-2.6904 -3.95961,-4.65156 -0.78827,-1.62834 -1.06031,-5.77615 -0.37887,-5.77615 0.20227,0 0.76604,0.63092 1.25282,1.40204 1.59562,2.52762 3.09815,3.1897 4.36461,1.92325 0.77265,-0.77265 0.8021,-1.05295 0.64822,-6.1679 -0.0887,-2.94716 -0.32212,-5.51938 -0.51879,-5.71605 -0.28203,-0.28204 -3.24059,3.22484 -5.60233,6.64067 -0.0495,0.0716 -1.20211,0.53393 -2.56121,1.02726 l -2.47112,0.89697 -1.12038,-1.12036 c -0.61621,-0.61622 -1.19128,-1.12038 -1.27793,-1.12038 -0.0866,0 -0.15684,0.79604 -0.15598,1.76898 5.9e-4,1.34092 0.27119,2.17452 1.11567,3.44487 1.2222,1.83854 1.45275,3.72696 0.5468,4.47881 -1.40749,1.16813 -4.519,-0.90107 -8.06179,-5.3612 -1.79091,-2.25465 -1.48806,-3.00887 1.05508,-2.6275 1.90194,0.28521 1.98061,0.0546 0.83561,-2.44879 -0.42158,-0.92174 -0.87954,-2.3236 -1.01769,-3.11526 l -0.25118,-1.43937 -1.34959,1.998 c -0.74228,1.0989 -2.65451,4.09286 -4.24942,6.65322 -2.85792,4.58793 -5.96388,8.1932 -7.05853,8.1932 -0.71978,0 -0.71649,0.52363 0.007,1.12414 0.43077,0.35751 1.79492,0.40883 5.67938,0.21368 6.17634,-0.3103 5.49912,-0.3049 9.53026,-0.0759 1.81531,0.1031 3.39343,0.28033 3.50693,0.39384 0.37882,0.37881 11.5739,0.22145 11.81339,-0.16605 z m 8.37942,-1.00581 c 0.51207,-0.23279 1.24374,-0.52288 1.62591,-0.64465 0.6458,-0.20574 0.67694,-0.53006 0.44088,-4.59241 -0.35468,-6.10362 -0.30357,-13.20185 0.097,-13.46275 0.5688,-0.37053 0.7895,-2.70535 0.50117,-5.30168 -0.23246,-2.09308 -0.17181,-2.60346 0.39215,-3.29992 0.70532,-0.87103 0.8561,-2.10155 0.35441,-2.8921 -0.39999,-0.63027 -4.22214,1.08489 -5.20658,2.33642 -1.04089,1.32327 -1.25593,7.34616 -0.61832,17.31795 0.54982,8.59886 0.85438,11.29 1.25411,11.0815 0.12557,-0.0654 0.64728,-0.30955 1.15936,-0.54236 z m -24.952,-17.45086 c 0,-0.31933 -0.16759,-0.47702 -0.37242,-0.35044 -0.20483,0.12659 -0.37242,0.38787 -0.37242,0.58061 0,0.19274 0.16759,0.35044 0.37242,0.35044 0.20483,0 0.37242,-0.26127 0.37242,-0.58061 z m -3.24357,-1.86906 3.52633,-1.70484 0.24788,-2.19101 c 0.28765,-2.54247 -0.10862,-7.80636 -0.58765,-7.80636 -0.68198,0 -4.44868,2.34718 -4.97689,3.10128 -1.0096,1.4414 -0.7283,1.8511 1.08429,1.57929 1.89337,-0.28393 3.67242,0.06 3.47031,0.67082 -0.0766,0.2316 -1.21515,0.94423 -2.53004,1.58366 -1.3149,0.6394 -2.69911,1.50724 -3.07606,1.92852 -1.03891,1.16119 -1.64604,4.54347 -0.81555,4.54347 0.072,0 1.71789,-0.76717 3.65738,-1.70483 z m -12.7704,0.31076 c 0,-0.43901 -0.30414,-1.01719 -0.67586,-1.28484 -0.62742,-0.45176 -0.65153,-0.87364 -0.33632,-5.8867 0.18675,-2.97004 0.31003,-6.77704 0.27395,-8.46002 -0.0774,-3.60542 0.61789,-7.16571 1.45765,-7.46503 0.32123,-0.11449 0.88385,-0.51651 1.25028,-0.89338 0.89628,-0.9218 1.26128,-0.86281 1.47168,0.23784 0.12899,0.6747 -0.0557,1.07525 -0.68679,1.48868 -1.63133,1.06888 -1.87555,3.27489 -1.5471,13.97466 0.13647,4.44531 -0.19794,8.07744 -0.79901,8.67851 -0.29636,0.29636 -0.40848,0.18941 -0.40848,-0.38972 z m 6.83555,-25.98555 c -0.12323,-0.32111 -0.14737,-0.66051 -0.0537,-0.75422 0.0937,-0.0937 1.66461,-0.18042 3.49087,-0.19268 1.82628,-0.0123 4.88718,-0.19078 6.80203,-0.39671 2.9926,-0.32186 3.57201,-0.29254 4.12591,0.20873 0.79848,0.72261 1.5168,0.7531 1.5168,0.0644 0,-0.77804 0.84239,-0.95348 2.63946,-0.54971 0.88765,0.19945 2.21461,0.26115 2.94879,0.13711 1.72165,-0.29086 3.41777,0.32084 3.11042,1.12178 -0.18635,0.48562 -1.00296,0.5946 -4.74122,0.63272 -7.34077,0.0749 -15.42624,0.0309 -16.53322,-0.0899 -0.56695,-0.0619 -1.49236,0.004 -2.05648,0.14493 -0.75618,0.18978 -1.08453,0.10402 -1.2497,-0.32641 z"
         id="path1535" /><path
         id="path1529"
         d="m 86.191393,142.56423 c 22.998977,0.50404 46.059337,-1.11428 69.008447,1.03658 1.33998,6.01425 -6.32777,7.5492 -10.78158,7.02442 -6.53792,-0.15373 -13.08784,-1.20311 -19.61538,-0.35601 -17.76422,-0.10753 -35.557031,0.60445 -53.294618,-0.69056 -4.076862,-0.76155 -4.247997,-7.03669 0.618003,-6.23361 4.638484,-0.8483 9.374104,-0.66204 14.065128,-0.78082 z"
         style="fill:#ff6868;fill-opacity:1;stroke-width:0.597609" /><path
         id="rect1531"
         d="m 141.1295,180.65724 c 5.17067,-1.73357 11.08367,-0.73115 15.58148,2.28445 2.53399,5.39114 -6.7232,6.22816 -10.38027,5.58753 -4.25287,1.02701 -12.14534,-3.90057 -6.09389,-7.31272 l 0.44539,-0.2848 z"
         style="fill:#35ff35;fill-opacity:1;stroke-width:0.264999" /><path
         id="path1532"
         d="m 83.227657,105.43823 c 13.575409,1.35549 27.508393,-2.40773 40.838513,1.43414 3.05784,2.96753 -4.69841,3.92211 -6.79639,4.32933 -9.00132,0.90545 -18.135847,-2.88835 -26.996272,0.003 -4.969439,0.67195 -10.274611,-0.30392 -14.632702,-2.74144 -2.372201,-3.19163 6.179603,-2.63531 7.586851,-3.02464 z"
         style="fill:#35ff35;fill-opacity:1;stroke-width:0.352605" /><path
         id="rect1534"
         d="m 74.859984,67.723487 c 35.471186,0 70.942376,0 106.413566,0 6.23977,2.922415 1.8288,13.744392 -4.83311,10.566708 -33.86015,0 -67.7203,0 -101.580456,0 -3.865497,-0.720572 -4.042536,-9.994061 0,-10.566708 z"
         style="fill:#a30ac0;fill-opacity:1;stroke-width:0.264999" /></g></g><script
     id="mesh_polyfill"
     type="text/javascript">
!function(){const t=&quot;http://www.w3.org/2000/svg&quot;,e=&quot;http://www.w3.org/1999/xlink&quot;,s=&quot;http://www.w3.org/1999/xhtml&quot;,r=2;if(document.createElementNS(t,&quot;meshgradient&quot;).x)return;const n=(t,e,s,r)=&gt;{let n=new x(.5*(e.x+s.x),.5*(e.y+s.y)),o=new x(.5*(t.x+e.x),.5*(t.y+e.y)),i=new x(.5*(s.x+r.x),.5*(s.y+r.y)),a=new x(.5*(n.x+o.x),.5*(n.y+o.y)),h=new x(.5*(n.x+i.x),.5*(n.y+i.y)),l=new x(.5*(a.x+h.x),.5*(a.y+h.y));return[[t,o,a,l],[l,h,i,r]]},o=t=&gt;{let e=t[0].distSquared(t[1]),s=t[2].distSquared(t[3]),r=.25*t[0].distSquared(t[2]),n=.25*t[1].distSquared(t[3]),o=e&gt;s?e:s,i=r&gt;n?r:n;return 18*(o&gt;i?o:i)},i=(t,e)=&gt;Math.sqrt(t.distSquared(e)),a=(t,e)=&gt;t.scale(2/3).add(e.scale(1/3)),h=t=&gt;{let e,s,r,n,o,i,a,h=new g;return t.match(/(\w+\(\s*[^)]+\))+/g).forEach(t=&gt;{let l=t.match(/[\w.-]+/g),d=l.shift();switch(d){case&quot;translate&quot;:2===l.length?e=new g(1,0,0,1,l[0],l[1]):(console.error(&quot;mesh.js: translate does not have 2 arguments!&quot;),e=new g(1,0,0,1,0,0)),h=h.append(e);break;case&quot;scale&quot;:1===l.length?s=new g(l[0],0,0,l[0],0,0):2===l.length?s=new g(l[0],0,0,l[1],0,0):(console.error(&quot;mesh.js: scale does not have 1 or 2 arguments!&quot;),s=new g(1,0,0,1,0,0)),h=h.append(s);break;case&quot;rotate&quot;:if(3===l.length&amp;&amp;(e=new g(1,0,0,1,l[1],l[2]),h=h.append(e)),l[0]){r=l[0]*Math.PI/180;let t=Math.cos(r),e=Math.sin(r);Math.abs(t)&lt;1e-16&amp;&amp;(t=0),Math.abs(e)&lt;1e-16&amp;&amp;(e=0),a=new g(t,e,-e,t,0,0),h=h.append(a)}else console.error(&quot;math.js: No argument to rotate transform!&quot;);3===l.length&amp;&amp;(e=new g(1,0,0,1,-l[1],-l[2]),h=h.append(e));break;case&quot;skewX&quot;:l[0]?(r=l[0]*Math.PI/180,n=Math.tan(r),o=new g(1,0,n,1,0,0),h=h.append(o)):console.error(&quot;math.js: No argument to skewX transform!&quot;);break;case&quot;skewY&quot;:l[0]?(r=l[0]*Math.PI/180,n=Math.tan(r),i=new g(1,n,0,1,0,0),h=h.append(i)):console.error(&quot;math.js: No argument to skewY transform!&quot;);break;case&quot;matrix&quot;:6===l.length?h=h.append(new g(...l)):console.error(&quot;math.js: Incorrect number of arguments for matrix!&quot;);break;default:console.error(&quot;mesh.js: Unhandled transform type: &quot;+d)}}),h},l=t=&gt;{let e=[],s=t.split(/[ ,]+/);for(let t=0,r=s.length-1;t&lt;r;t+=2)e.push(new x(parseFloat(s[t]),parseFloat(s[t+1])));return e},d=(t,e)=&gt;{for(let s in e)t.setAttribute(s,e[s])},c=(t,e,s,r,n)=&gt;{let o,i,a=[0,0,0,0];for(let h=0;h&lt;3;++h)e[h]&lt;t[h]&amp;&amp;e[h]&lt;s[h]||t[h]&lt;e[h]&amp;&amp;s[h]&lt;e[h]?a[h]=0:(a[h]=.5*((e[h]-t[h])/r+(s[h]-e[h])/n),o=Math.abs(3*(e[h]-t[h])/r),i=Math.abs(3*(s[h]-e[h])/n),a[h]&gt;o?a[h]=o:a[h]&gt;i&amp;&amp;(a[h]=i));return a},u=[[1,0,0,0,0,0,0,0,0,0,0,0,0,0,0,0],[0,0,0,0,1,0,0,0,0,0,0,0,0,0,0,0],[-3,3,0,0,-2,-1,0,0,0,0,0,0,0,0,0,0],[2,-2,0,0,1,1,0,0,0,0,0,0,0,0,0,0],[0,0,0,0,0,0,0,0,1,0,0,0,0,0,0,0],[0,0,0,0,0,0,0,0,0,0,0,0,1,0,0,0],[0,0,0,0,0,0,0,0,-3,3,0,0,-2,-1,0,0],[0,0,0,0,0,0,0,0,2,-2,0,0,1,1,0,0],[-3,0,3,0,0,0,0,0,-2,0,-1,0,0,0,0,0],[0,0,0,0,-3,0,3,0,0,0,0,0,-2,0,-1,0],[9,-9,-9,9,6,3,-6,-3,6,-6,3,-3,4,2,2,1],[-6,6,6,-6,-3,-3,3,3,-4,4,-2,2,-2,-2,-1,-1],[2,0,-2,0,0,0,0,0,1,0,1,0,0,0,0,0],[0,0,0,0,2,0,-2,0,0,0,0,0,1,0,1,0],[-6,6,6,-6,-4,-2,4,2,-3,3,-3,3,-2,-1,-2,-1],[4,-4,-4,4,2,2,-2,-2,2,-2,2,-2,1,1,1,1]],f=t=&gt;{let e=[];for(let s=0;s&lt;16;++s){e[s]=0;for(let r=0;r&lt;16;++r)e[s]+=u[s][r]*t[r]}return e},p=(t,e,s)=&gt;{const r=e*e,n=s*s,o=e*e*e,i=s*s*s;return t[0]+t[1]*e+t[2]*r+t[3]*o+t[4]*s+t[5]*s*e+t[6]*s*r+t[7]*s*o+t[8]*n+t[9]*n*e+t[10]*n*r+t[11]*n*o+t[12]*i+t[13]*i*e+t[14]*i*r+t[15]*i*o},y=t=&gt;{let e=[],s=[],r=[];for(let s=0;s&lt;4;++s)e[s]=[],e[s][0]=n(t[0][s],t[1][s],t[2][s],t[3][s]),e[s][1]=[],e[s][1].push(...n(...e[s][0][0])),e[s][1].push(...n(...e[s][0][1])),e[s][2]=[],e[s][2].push(...n(...e[s][1][0])),e[s][2].push(...n(...e[s][1][1])),e[s][2].push(...n(...e[s][1][2])),e[s][2].push(...n(...e[s][1][3]));for(let t=0;t&lt;8;++t){s[t]=[];for(let r=0;r&lt;4;++r)s[t][r]=[],s[t][r][0]=n(e[0][2][t][r],e[1][2][t][r],e[2][2][t][r],e[3][2][t][r]),s[t][r][1]=[],s[t][r][1].push(...n(...s[t][r][0][0])),s[t][r][1].push(...n(...s[t][r][0][1])),s[t][r][2]=[],s[t][r][2].push(...n(...s[t][r][1][0])),s[t][r][2].push(...n(...s[t][r][1][1])),s[t][r][2].push(...n(...s[t][r][1][2])),s[t][r][2].push(...n(...s[t][r][1][3]))}for(let t=0;t&lt;8;++t){r[t]=[];for(let e=0;e&lt;8;++e)r[t][e]=[],r[t][e][0]=s[t][0][2][e],r[t][e][1]=s[t][1][2][e],r[t][e][2]=s[t][2][2][e],r[t][e][3]=s[t][3][2][e]}return r};class x{constructor(t,e){this.x=t||0,this.y=e||0}toString(){return`(x=${this.x}, y=${this.y})`}clone(){return new x(this.x,this.y)}add(t){return new x(this.x+t.x,this.y+t.y)}scale(t){return void 0===t.x?new x(this.x*t,this.y*t):new x(this.x*t.x,this.y*t.y)}distSquared(t){let e=this.x-t.x,s=this.y-t.y;return e*e+s*s}transform(t){let e=this.x*t.a+this.y*t.c+t.e,s=this.x*t.b+this.y*t.d+t.f;return new x(e,s)}}class g{constructor(t,e,s,r,n,o){void 0===t?(this.a=1,this.b=0,this.c=0,this.d=1,this.e=0,this.f=0):(this.a=t,this.b=e,this.c=s,this.d=r,this.e=n,this.f=o)}toString(){return`affine: ${this.a} ${this.c} ${this.e} \n       ${this.b} ${this.d} ${this.f}`}append(t){t instanceof g||console.error(&quot;mesh.js: argument to Affine.append is not affine!&quot;);let e=this.a*t.a+this.c*t.b,s=this.b*t.a+this.d*t.b,r=this.a*t.c+this.c*t.d,n=this.b*t.c+this.d*t.d,o=this.a*t.e+this.c*t.f+this.e,i=this.b*t.e+this.d*t.f+this.f;return new g(e,s,r,n,o,i)}}class w{constructor(t,e){this.nodes=t,this.colors=e}paintCurve(t,e){if(o(this.nodes)&gt;r){const s=n(...this.nodes);let r=[[],[]],o=[[],[]];for(let t=0;t&lt;4;++t)r[0][t]=this.colors[0][t],r[1][t]=(this.colors[0][t]+this.colors[1][t])/2,o[0][t]=r[1][t],o[1][t]=this.colors[1][t];let i=new w(s[0],r),a=new w(s[1],o);i.paintCurve(t,e),a.paintCurve(t,e)}else{let s=Math.round(this.nodes[0].x);if(s&gt;=0&amp;&amp;s&lt;e){let r=4*(~~this.nodes[0].y*e+s);t[r]=Math.round(this.colors[0][0]),t[r+1]=Math.round(this.colors[0][1]),t[r+2]=Math.round(this.colors[0][2]),t[r+3]=Math.round(this.colors[0][3])}}}}class m{constructor(t,e){this.nodes=t,this.colors=e}split(){let t=[[],[],[],[]],e=[[],[],[],[]],s=[[[],[]],[[],[]]],r=[[[],[]],[[],[]]];for(let s=0;s&lt;4;++s){const r=n(this.nodes[0][s],this.nodes[1][s],this.nodes[2][s],this.nodes[3][s]);t[0][s]=r[0][0],t[1][s]=r[0][1],t[2][s]=r[0][2],t[3][s]=r[0][3],e[0][s]=r[1][0],e[1][s]=r[1][1],e[2][s]=r[1][2],e[3][s]=r[1][3]}for(let t=0;t&lt;4;++t)s[0][0][t]=this.colors[0][0][t],s[0][1][t]=this.colors[0][1][t],s[1][0][t]=(this.colors[0][0][t]+this.colors[1][0][t])/2,s[1][1][t]=(this.colors[0][1][t]+this.colors[1][1][t])/2,r[0][0][t]=s[1][0][t],r[0][1][t]=s[1][1][t],r[1][0][t]=this.colors[1][0][t],r[1][1][t]=this.colors[1][1][t];return[new m(t,s),new m(e,r)]}paint(t,e){let s,n=!1;for(let t=0;t&lt;4;++t)if((s=o([this.nodes[0][t],this.nodes[1][t],this.nodes[2][t],this.nodes[3][t]]))&gt;r){n=!0;break}if(n){let s=this.split();s[0].paint(t,e),s[1].paint(t,e)}else{new w([...this.nodes[0]],[...this.colors[0]]).paintCurve(t,e)}}}class b{constructor(t){this.readMesh(t),this.type=t.getAttribute(&quot;type&quot;)||&quot;bilinear&quot;}readMesh(t){let e=[[]],s=[[]],r=Number(t.getAttribute(&quot;x&quot;)),n=Number(t.getAttribute(&quot;y&quot;));e[0][0]=new x(r,n);let o=t.children;for(let t=0,r=o.length;t&lt;r;++t){e[3*t+1]=[],e[3*t+2]=[],e[3*t+3]=[],s[t+1]=[];let r=o[t].children;for(let n=0,o=r.length;n&lt;o;++n){let o=r[n].children;for(let r=0,i=o.length;r&lt;i;++r){let i=r;0!==t&amp;&amp;++i;let h,d=o[r].getAttribute(&quot;path&quot;),c=&quot;l&quot;;null!=d&amp;&amp;(c=(h=d.match(/\s*([lLcC])\s*(.*)/))[1]);let u=l(h[2]);switch(c){case&quot;l&quot;:0===i?(e[3*t][3*n+3]=u[0].add(e[3*t][3*n]),e[3*t][3*n+1]=a(e[3*t][3*n],e[3*t][3*n+3]),e[3*t][3*n+2]=a(e[3*t][3*n+3],e[3*t][3*n])):1===i?(e[3*t+3][3*n+3]=u[0].add(e[3*t][3*n+3]),e[3*t+1][3*n+3]=a(e[3*t][3*n+3],e[3*t+3][3*n+3]),e[3*t+2][3*n+3]=a(e[3*t+3][3*n+3],e[3*t][3*n+3])):2===i?(0===n&amp;&amp;(e[3*t+3][3*n+0]=u[0].add(e[3*t+3][3*n+3])),e[3*t+3][3*n+1]=a(e[3*t+3][3*n],e[3*t+3][3*n+3]),e[3*t+3][3*n+2]=a(e[3*t+3][3*n+3],e[3*t+3][3*n])):(e[3*t+1][3*n]=a(e[3*t][3*n],e[3*t+3][3*n]),e[3*t+2][3*n]=a(e[3*t+3][3*n],e[3*t][3*n]));break;case&quot;L&quot;:0===i?(e[3*t][3*n+3]=u[0],e[3*t][3*n+1]=a(e[3*t][3*n],e[3*t][3*n+3]),e[3*t][3*n+2]=a(e[3*t][3*n+3],e[3*t][3*n])):1===i?(e[3*t+3][3*n+3]=u[0],e[3*t+1][3*n+3]=a(e[3*t][3*n+3],e[3*t+3][3*n+3]),e[3*t+2][3*n+3]=a(e[3*t+3][3*n+3],e[3*t][3*n+3])):2===i?(0===n&amp;&amp;(e[3*t+3][3*n+0]=u[0]),e[3*t+3][3*n+1]=a(e[3*t+3][3*n],e[3*t+3][3*n+3]),e[3*t+3][3*n+2]=a(e[3*t+3][3*n+3],e[3*t+3][3*n])):(e[3*t+1][3*n]=a(e[3*t][3*n],e[3*t+3][3*n]),e[3*t+2][3*n]=a(e[3*t+3][3*n],e[3*t][3*n]));break;case&quot;c&quot;:0===i?(e[3*t][3*n+1]=u[0].add(e[3*t][3*n]),e[3*t][3*n+2]=u[1].add(e[3*t][3*n]),e[3*t][3*n+3]=u[2].add(e[3*t][3*n])):1===i?(e[3*t+1][3*n+3]=u[0].add(e[3*t][3*n+3]),e[3*t+2][3*n+3]=u[1].add(e[3*t][3*n+3]),e[3*t+3][3*n+3]=u[2].add(e[3*t][3*n+3])):2===i?(e[3*t+3][3*n+2]=u[0].add(e[3*t+3][3*n+3]),e[3*t+3][3*n+1]=u[1].add(e[3*t+3][3*n+3]),0===n&amp;&amp;(e[3*t+3][3*n+0]=u[2].add(e[3*t+3][3*n+3]))):(e[3*t+2][3*n]=u[0].add(e[3*t+3][3*n]),e[3*t+1][3*n]=u[1].add(e[3*t+3][3*n]));break;case&quot;C&quot;:0===i?(e[3*t][3*n+1]=u[0],e[3*t][3*n+2]=u[1],e[3*t][3*n+3]=u[2]):1===i?(e[3*t+1][3*n+3]=u[0],e[3*t+2][3*n+3]=u[1],e[3*t+3][3*n+3]=u[2]):2===i?(e[3*t+3][3*n+2]=u[0],e[3*t+3][3*n+1]=u[1],0===n&amp;&amp;(e[3*t+3][3*n+0]=u[2])):(e[3*t+2][3*n]=u[0],e[3*t+1][3*n]=u[1]);break;default:console.error(&quot;mesh.js: &quot;+c+&quot; invalid path type.&quot;)}if(0===t&amp;&amp;0===n||r&gt;0){let e=window.getComputedStyle(o[r]).stopColor.match(/^rgb\s*\(\s*(\d+)\s*,\s*(\d+)\s*,\s*(\d+)\s*\)$/i),a=window.getComputedStyle(o[r]).stopOpacity,h=255;a&amp;&amp;(h=Math.floor(255*a)),e&amp;&amp;(0===i?(s[t][n]=[],s[t][n][0]=Math.floor(e[1]),s[t][n][1]=Math.floor(e[2]),s[t][n][2]=Math.floor(e[3]),s[t][n][3]=h):1===i?(s[t][n+1]=[],s[t][n+1][0]=Math.floor(e[1]),s[t][n+1][1]=Math.floor(e[2]),s[t][n+1][2]=Math.floor(e[3]),s[t][n+1][3]=h):2===i?(s[t+1][n+1]=[],s[t+1][n+1][0]=Math.floor(e[1]),s[t+1][n+1][1]=Math.floor(e[2]),s[t+1][n+1][2]=Math.floor(e[3]),s[t+1][n+1][3]=h):3===i&amp;&amp;(s[t+1][n]=[],s[t+1][n][0]=Math.floor(e[1]),s[t+1][n][1]=Math.floor(e[2]),s[t+1][n][2]=Math.floor(e[3]),s[t+1][n][3]=h))}}e[3*t+1][3*n+1]=new x,e[3*t+1][3*n+2]=new x,e[3*t+2][3*n+1]=new x,e[3*t+2][3*n+2]=new x,e[3*t+1][3*n+1].x=(-4*e[3*t][3*n].x+6*(e[3*t][3*n+1].x+e[3*t+1][3*n].x)+-2*(e[3*t][3*n+3].x+e[3*t+3][3*n].x)+3*(e[3*t+3][3*n+1].x+e[3*t+1][3*n+3].x)+-1*e[3*t+3][3*n+3].x)/9,e[3*t+1][3*n+2].x=(-4*e[3*t][3*n+3].x+6*(e[3*t][3*n+2].x+e[3*t+1][3*n+3].x)+-2*(e[3*t][3*n].x+e[3*t+3][3*n+3].x)+3*(e[3*t+3][3*n+2].x+e[3*t+1][3*n].x)+-1*e[3*t+3][3*n].x)/9,e[3*t+2][3*n+1].x=(-4*e[3*t+3][3*n].x+6*(e[3*t+3][3*n+1].x+e[3*t+2][3*n].x)+-2*(e[3*t+3][3*n+3].x+e[3*t][3*n].x)+3*(e[3*t][3*n+1].x+e[3*t+2][3*n+3].x)+-1*e[3*t][3*n+3].x)/9,e[3*t+2][3*n+2].x=(-4*e[3*t+3][3*n+3].x+6*(e[3*t+3][3*n+2].x+e[3*t+2][3*n+3].x)+-2*(e[3*t+3][3*n].x+e[3*t][3*n+3].x)+3*(e[3*t][3*n+2].x+e[3*t+2][3*n].x)+-1*e[3*t][3*n].x)/9,e[3*t+1][3*n+1].y=(-4*e[3*t][3*n].y+6*(e[3*t][3*n+1].y+e[3*t+1][3*n].y)+-2*(e[3*t][3*n+3].y+e[3*t+3][3*n].y)+3*(e[3*t+3][3*n+1].y+e[3*t+1][3*n+3].y)+-1*e[3*t+3][3*n+3].y)/9,e[3*t+1][3*n+2].y=(-4*e[3*t][3*n+3].y+6*(e[3*t][3*n+2].y+e[3*t+1][3*n+3].y)+-2*(e[3*t][3*n].y+e[3*t+3][3*n+3].y)+3*(e[3*t+3][3*n+2].y+e[3*t+1][3*n].y)+-1*e[3*t+3][3*n].y)/9,e[3*t+2][3*n+1].y=(-4*e[3*t+3][3*n].y+6*(e[3*t+3][3*n+1].y+e[3*t+2][3*n].y)+-2*(e[3*t+3][3*n+3].y+e[3*t][3*n].y)+3*(e[3*t][3*n+1].y+e[3*t+2][3*n+3].y)+-1*e[3*t][3*n+3].y)/9,e[3*t+2][3*n+2].y=(-4*e[3*t+3][3*n+3].y+6*(e[3*t+3][3*n+2].y+e[3*t+2][3*n+3].y)+-2*(e[3*t+3][3*n].y+e[3*t][3*n+3].y)+3*(e[3*t][3*n+2].y+e[3*t+2][3*n].y)+-1*e[3*t][3*n].y)/9}}this.nodes=e,this.colors=s}paintMesh(t,e){let s=(this.nodes.length-1)/3,r=(this.nodes[0].length-1)/3;if(&quot;bilinear&quot;===this.type||s&lt;2||r&lt;2){let n;for(let o=0;o&lt;s;++o)for(let s=0;s&lt;r;++s){let r=[];for(let t=3*o,e=3*o+4;t&lt;e;++t)r.push(this.nodes[t].slice(3*s,3*s+4));let i=[];i.push(this.colors[o].slice(s,s+2)),i.push(this.colors[o+1].slice(s,s+2)),(n=new m(r,i)).paint(t,e)}}else{let n,o,a,h,l,d,u;const x=s,g=r;s++,r++;let w=new Array(s);for(let t=0;t&lt;s;++t){w[t]=new Array(r);for(let e=0;e&lt;r;++e)w[t][e]=[],w[t][e][0]=this.nodes[3*t][3*e],w[t][e][1]=this.colors[t][e]}for(let t=0;t&lt;s;++t)for(let e=0;e&lt;r;++e)0!==t&amp;&amp;t!==x&amp;&amp;(n=i(w[t-1][e][0],w[t][e][0]),o=i(w[t+1][e][0],w[t][e][0]),w[t][e][2]=c(w[t-1][e][1],w[t][e][1],w[t+1][e][1],n,o)),0!==e&amp;&amp;e!==g&amp;&amp;(n=i(w[t][e-1][0],w[t][e][0]),o=i(w[t][e+1][0],w[t][e][0]),w[t][e][3]=c(w[t][e-1][1],w[t][e][1],w[t][e+1][1],n,o));for(let t=0;t&lt;r;++t){w[0][t][2]=[],w[x][t][2]=[];for(let e=0;e&lt;4;++e)n=i(w[1][t][0],w[0][t][0]),o=i(w[x][t][0],w[x-1][t][0]),w[0][t][2][e]=n&gt;0?2*(w[1][t][1][e]-w[0][t][1][e])/n-w[1][t][2][e]:0,w[x][t][2][e]=o&gt;0?2*(w[x][t][1][e]-w[x-1][t][1][e])/o-w[x-1][t][2][e]:0}for(let t=0;t&lt;s;++t){w[t][0][3]=[],w[t][g][3]=[];for(let e=0;e&lt;4;++e)n=i(w[t][1][0],w[t][0][0]),o=i(w[t][g][0],w[t][g-1][0]),w[t][0][3][e]=n&gt;0?2*(w[t][1][1][e]-w[t][0][1][e])/n-w[t][1][3][e]:0,w[t][g][3][e]=o&gt;0?2*(w[t][g][1][e]-w[t][g-1][1][e])/o-w[t][g-1][3][e]:0}for(let s=0;s&lt;x;++s)for(let r=0;r&lt;g;++r){let n=i(w[s][r][0],w[s+1][r][0]),o=i(w[s][r+1][0],w[s+1][r+1][0]),c=i(w[s][r][0],w[s][r+1][0]),x=i(w[s+1][r][0],w[s+1][r+1][0]),g=[[],[],[],[]];for(let t=0;t&lt;4;++t){(d=[])[0]=w[s][r][1][t],d[1]=w[s+1][r][1][t],d[2]=w[s][r+1][1][t],d[3]=w[s+1][r+1][1][t],d[4]=w[s][r][2][t]*n,d[5]=w[s+1][r][2][t]*n,d[6]=w[s][r+1][2][t]*o,d[7]=w[s+1][r+1][2][t]*o,d[8]=w[s][r][3][t]*c,d[9]=w[s+1][r][3][t]*x,d[10]=w[s][r+1][3][t]*c,d[11]=w[s+1][r+1][3][t]*x,d[12]=0,d[13]=0,d[14]=0,d[15]=0,u=f(d);for(let e=0;e&lt;9;++e){g[t][e]=[];for(let s=0;s&lt;9;++s)g[t][e][s]=p(u,e/8,s/8),g[t][e][s]&gt;255?g[t][e][s]=255:g[t][e][s]&lt;0&amp;&amp;(g[t][e][s]=0)}}h=[];for(let t=3*s,e=3*s+4;t&lt;e;++t)h.push(this.nodes[t].slice(3*r,3*r+4));l=y(h);for(let s=0;s&lt;8;++s)for(let r=0;r&lt;8;++r)(a=new m(l[s][r],[[[g[0][s][r],g[1][s][r],g[2][s][r],g[3][s][r]],[g[0][s][r+1],g[1][s][r+1],g[2][s][r+1],g[3][s][r+1]]],[[g[0][s+1][r],g[1][s+1][r],g[2][s+1][r],g[3][s+1][r]],[g[0][s+1][r+1],g[1][s+1][r+1],g[2][s+1][r+1],g[3][s+1][r+1]]]])).paint(t,e)}}}transform(t){if(t instanceof x)for(let e=0,s=this.nodes.length;e&lt;s;++e)for(let s=0,r=this.nodes[0].length;s&lt;r;++s)this.nodes[e][s]=this.nodes[e][s].add(t);else if(t instanceof g)for(let e=0,s=this.nodes.length;e&lt;s;++e)for(let s=0,r=this.nodes[0].length;s&lt;r;++s)this.nodes[e][s]=this.nodes[e][s].transform(t)}scale(t){for(let e=0,s=this.nodes.length;e&lt;s;++e)for(let s=0,r=this.nodes[0].length;s&lt;r;++s)this.nodes[e][s]=this.nodes[e][s].scale(t)}}document.querySelectorAll(&quot;rect,circle,ellipse,path,text&quot;).forEach((r,n)=&gt;{let o=r.getAttribute(&quot;id&quot;);o||(o=&quot;patchjs_shape&quot;+n,r.setAttribute(&quot;id&quot;,o));const i=r.style.fill.match(/^url\(\s*&quot;?\s*#([^\s&quot;]+)&quot;?\s*\)/),a=r.style.stroke.match(/^url\(\s*&quot;?\s*#([^\s&quot;]+)&quot;?\s*\)/);if(i&amp;&amp;i[1]){const a=document.getElementById(i[1]);if(a&amp;&amp;&quot;meshgradient&quot;===a.nodeName){const i=r.getBBox();let l=document.createElementNS(s,&quot;canvas&quot;);d(l,{width:i.width,height:i.height});const c=l.getContext(&quot;2d&quot;);let u=c.createImageData(i.width,i.height);const f=new b(a);&quot;objectBoundingBox&quot;===a.getAttribute(&quot;gradientUnits&quot;)&amp;&amp;f.scale(new x(i.width,i.height));const p=a.getAttribute(&quot;gradientTransform&quot;);null!=p&amp;&amp;f.transform(h(p)),&quot;userSpaceOnUse&quot;===a.getAttribute(&quot;gradientUnits&quot;)&amp;&amp;f.transform(new x(-i.x,-i.y)),f.paintMesh(u.data,l.width),c.putImageData(u,0,0);const y=document.createElementNS(t,&quot;image&quot;);d(y,{width:i.width,height:i.height,x:i.x,y:i.y});let g=l.toDataURL();y.setAttributeNS(e,&quot;xlink:href&quot;,g),r.parentNode.insertBefore(y,r),r.style.fill=&quot;none&quot;;const w=document.createElementNS(t,&quot;use&quot;);w.setAttributeNS(e,&quot;xlink:href&quot;,&quot;#&quot;+o);const m=&quot;patchjs_clip&quot;+n,M=document.createElementNS(t,&quot;clipPath&quot;);M.setAttribute(&quot;id&quot;,m),M.appendChild(w),r.parentElement.insertBefore(M,r),y.setAttribute(&quot;clip-path&quot;,&quot;url(#&quot;+m+&quot;)&quot;),u=null,l=null,g=null}}if(a&amp;&amp;a[1]){const o=document.getElementById(a[1]);if(o&amp;&amp;&quot;meshgradient&quot;===o.nodeName){const i=parseFloat(r.style.strokeWidth.slice(0,-2))*(parseFloat(r.style.strokeMiterlimit)||parseFloat(r.getAttribute(&quot;stroke-miterlimit&quot;))||1),a=r.getBBox(),l=Math.trunc(a.width+i),c=Math.trunc(a.height+i),u=Math.trunc(a.x-i/2),f=Math.trunc(a.y-i/2);let p=document.createElementNS(s,&quot;canvas&quot;);d(p,{width:l,height:c});const y=p.getContext(&quot;2d&quot;);let g=y.createImageData(l,c);const w=new b(o);&quot;objectBoundingBox&quot;===o.getAttribute(&quot;gradientUnits&quot;)&amp;&amp;w.scale(new x(l,c));const m=o.getAttribute(&quot;gradientTransform&quot;);null!=m&amp;&amp;w.transform(h(m)),&quot;userSpaceOnUse&quot;===o.getAttribute(&quot;gradientUnits&quot;)&amp;&amp;w.transform(new x(-u,-f)),w.paintMesh(g.data,p.width),y.putImageData(g,0,0);const M=document.createElementNS(t,&quot;image&quot;);d(M,{width:l,height:c,x:0,y:0});let S=p.toDataURL();M.setAttributeNS(e,&quot;xlink:href&quot;,S);const k=&quot;pattern_clip&quot;+n,A=document.createElementNS(t,&quot;pattern&quot;);d(A,{id:k,patternUnits:&quot;userSpaceOnUse&quot;,width:l,height:c,x:u,y:f}),A.appendChild(M),o.parentNode.appendChild(A),r.style.stroke=&quot;url(#&quot;+k+&quot;)&quot;,g=null,p=null,S=null}}})}();
</script></svg>
