<?xml version="1.0" encoding="UTF-8" standalone="no"?>
<!-- Created with Inkscape (http://www.inkscape.org/) -->

<svg
   width="1024"
   height="1024"
   viewBox="0 0 270.93333 270.93333"
   version="1.1"
   id="svg1"
   xml:space="preserve"
   inkscape:export-filename="codex/exp_3/src/assets/icon.png"
   inkscape:export-xdpi="96"
   inkscape:export-ydpi="96"
   inkscape:version="1.4.3 (0d15f75042, 2025-12-25)"
   sodipodi:docname="icons.svg"
   xmlns:inkscape="http://www.inkscape.org/namespaces/inkscape"
   xmlns:sodipodi="http://sodipodi.sourceforge.net/DTD/sodipodi-0.dtd"
   xmlns="http://www.w3.org/2000/svg"
   xmlns:svg="http://www.w3.org/2000/svg"><sodipodi:namedview
     id="namedview1"
     pagecolor="#505050"
     bordercolor="#eeeeee"
     borderopacity="1"
     inkscape:showpageshadow="false"
     inkscape:pageopacity="0"
     inkscape:pagecheckerboard="true"
     inkscape:deskcolor="#505050"
     inkscape:document-units="mm"
     inkscape:export-bgcolor="#ffffff00"
     labelstyle="default"
     inkscape:clip-to-page="true"
     inkscape:zoom="0.49575348"
     inkscape:cx="178.51614"
     inkscape:cy="384.26357"
     inkscape:window-width="1920"
     inkscape:window-height="1011"
     inkscape:window-x="0"
     inkscape:window-y="0"
     inkscape:window-maximized="1"
     inkscape:current-layer="layer1" /><defs
     id="defs1"><inkscape:path-effect
       effect="fillet_chamfer"
       id="path-effect1535"
       is_visible="true"
       lpeversion="1"
       nodesatellites_param="F,0,0,1,0,2.6458333,0,1 @ F,0,0,1,0,2.6458333,0,1 @ F,0,0,1,0,2.6458333,0,1 @ F,0,0,1,0,2.6458333,0,1"
       radius="10"
       unit="px"
       method="auto"
       mode="F"
       chamfer_steps="1"
       flexible="false"
       use_knot_distance="true"
       apply_no_radius="true"
       apply_with_radius="true"
       only_selected="false"
       hide_knots="false" /><inkscape:path-effect
       effect="fillet_chamfer"
       id="path-effect1534"
       is_visible="true"
       lpeversion="1"
       nodesatellites_param="F,0,0,1,0,3.96875,0,1 @ F,0,0,1,0,3.96875,0,1 @ F,0,0,1,0,3.96875,0,1 @ F,0,0,1,0,3.96875,0,1"
       radius="15"
       unit="px"
       method="auto"
       mode="F"
       chamfer_steps="1"
       flexible="false"
       use_knot_distance="true"
       apply_no_radius="true"
       apply_with_radius="true"
       only_selected="false"
       hide_knots="false" /><inkscape:path-effect
       effect="fillet_chamfer"
       id="path-effect1532"
       is_visible="true"
       lpeversion="1"
       nodesatellites_param="F,0,0,1,0,3.96875,0,1 @ F,0,0,1,0,3.96875,0,1 @ F,0,0,1,0,3.96875,0,1 @ F,0,0,1,0,3.96875,0,1"
       radius="15"
       unit="px"
       method="auto"
       mode="F"
       chamfer_steps="1"
       flexible="false"
       use_knot_distance="true"
       apply_no_radius="true"
       apply_with_radius="true"
       only_selected="false"
       hide_knots="false" /><inkscape:path-effect
       effect="fillet_chamfer"
       id="path-effect1531"
       is_visible="true"
       lpeversion="1"
       nodesatellites_param="F,0,0,1,0,2.6458333,0,1 @ F,0,0,1,0,2.6458333,0,1 @ F,0,0,1,0,2.6458333,0,1 @ F,0,0,1,0,2.6458333,0,1"
       radius="10"
       unit="px"
       method="auto"
       mode="F"
       chamfer_steps="1"
       flexible="false"
       use_knot_distance="true"
       apply_no_radius="true"
       apply_with_radius="true"
       only_selected="false"
       hide_knots="false" /><inkscape:path-effect
       effect="fillet_chamfer"
       id="path-effect1529"
       is_visible="true"
       lpeversion="1"
       nodesatellites_param="F,0,0,1,0,2.6458333,0,1 @ F,0,0,1,0,2.6458333,0,1 @ F,0,0,1,0,2.6458333,0,1 @ F,0,0,1,0,2.6458333,0,1"
       radius="10"
       unit="px"
       method="auto"
       mode="F"
       chamfer_steps="1"
       flexible="false"
       use_knot_distance="true"
       apply_no_radius="true"
       apply_with_radius="true"
       only_selected="false"
       hide_knots="false" /><inkscape:path-effect
       effect="fillet_chamfer"
       id="path-effect1527"
       is_visible="true"
       lpeversion="1"
       nodesatellites_param="F,0,0,1,0,2.6458333,0,1 @ F,0,0,1,0,2.6458333,0,1 @ F,0,0,1,0,2.6458333,0,1 @ F,0,0,1,0,2.6458333,0,1"
       radius="10"
       unit="px"
       method="auto"
       mode="F"
       chamfer_steps="1"
       flexible="false"
       use_knot_distance="true"
       apply_no_radius="true"
       apply_with_radius="true"
       only_selected="false"
       hide_knots="false" /><inkscape:path-effect
       effect="fillet_chamfer"
       id="path-effect1526"
       is_visible="true"
       lpeversion="1"
       nodesatellites_param="F,0,0,1,0,3.96875,0,1 @ F,0,0,1,0,3.96875,0,1 @ F,0,0,1,0,3.96875,0,1 @ F,0,0,1,0,3.96875,0,1"
       radius="15"
       unit="px"
       method="auto"
       mode="F"
       chamfer_steps="1"
       flexible="false"
       use_knot_distance="true"
       apply_no_radius="true"
       apply_with_radius="true"
       only_selected="false"
       hide_knots="false" /><inkscape:path-effect
       effect="fillet_chamfer"
       id="path-effect1525"
       is_visible="true"
       lpeversion="1"
       nodesatellites_param="F,0,0,1,0,0.26458333,0,1 @ F,0,0,1,0,0.26458333,0,1 @ F,0,0,1,0,0.26458333,0,1 @ F,0,0,1,0,0.26458333,0,1 @ F,0,0,1,0,0.26458333,0,1 @ F,0,0,1,0,0.26458333,0,1"
       radius="2"
       unit="px"
       method="arc"
       mode="F"
       chamfer_steps="1"
       flexible="false"
       use_knot_distance="true"
       apply_no_radius="true"
       apply_with_radius="true"
       only_selected="false"
       hide_knots="false" /><inkscape:path-effect
       effect="fillet_chamfer"
       id="path-effect1524"
       is_visible="true"
       lpeversion="1"
       nodesatellites_param="F,0,0,1,0,8.6763236,0,1 @ F,0,0,1,0,11.695383,0,1 @ F,0,0,1,0,0,0,1 @ F,0,0,1,0,0,0,1"
       radius="0"
       unit="px"
       method="auto"
       mode="F"
       chamfer_steps="1"
       flexible="false"
       use_knot_distance="true"
       apply_no_radius="true"
       apply_with_radius="true"
       only_selected="false"
       hide_knots="false" /><inkscape:path-effect
       effect="fillet_chamfer"
       id="path-effect1523"
       is_visible="true"
       lpeversion="1"
       nodesatellites_param="F,0,0,1,0,0,0,1 @ F,0,0,1,0,0,0,1 @ F,0,0,1,0,0,0,1 @ F,0,0,1,0,0,0,1"
       radius="0"
       unit="px"
       method="auto"
       mode="F"
       chamfer_steps="1"
       flexible="false"
       use_knot_distance="true"
       apply_no_radius="true"
       apply_with_radius="true"
       only_selected="false"
       hide_knots="false" /><clipPath
       clipPathUnits="userSpaceOnUse"
       id="clipPath2330"><rect
         style="opacity:0.41652;fill:#ff3167;fill-opacity:1;stroke:#561526;stroke-width:0;stroke-linecap:round;stroke-linejoin:bevel;stroke-dasharray:none;paint-order:stroke markers fill"
         id="rect2331"
         width="294.60208"
         height="4.2695975"
         x="-35.224163"
         y="144.63254" /></clipPath></defs><g
     inkscape:label="图层 1"
     inkscape:groupmode="layer"
     id="layer1"><g
       id="g1535"
       inkscape:export-filename="codex/exp_3/src/assets/icon.png"
       inkscape:export-xdpi="96"
       inkscape:export-ydpi="96"
       style="fill:#efc80c;fill-opacity:1"
       transform="matrix(1.0670921,0,0,1.0670921,-9.0887381,-9.0887381)"><path
         style="mix-blend-mode:multiply;fill:#efc80c;fill-opacity:1;stroke-width:0.264999"
         id="rect1525"
         width="171.70903"
         height="171.70903"
         x="42.644215"
         y="41.134689"
         sodipodi:type="rect"
         d="M 46.612965,41.134689 H 210.38449 a 3.96875,3.96875 45 0 1 3.96875,3.96875 V 208.87497 a 3.96875,3.96875 135 0 1 -3.96875,3.96875 H 46.612965 a 3.96875,3.96875 45 0 1 -3.96875,-3.96875 l 0,-163.771531 a 3.96875,3.96875 135 0 1 3.96875,-3.96875 z"
         inkscape:path-effect="#path-effect1526"
         transform="matrix(1.4786569,0,0,1.4786569,-54.538867,-52.306797)" /></g><g
       id="g2338"
       transform="matrix(1.0670921,0,0,1.0670921,25.651151,-23.326398)"><path
         style="font-size:23.5539px;font-family:TSCu_Comic;-inkscape-font-specification:'TSCu_Comic, Normal';fill:#fffc47;fill-opacity:1;stroke:#fffa63;stroke-width:0;stroke-linecap:round;stroke-linejoin:bevel;stroke-opacity:1;paint-order:stroke markers fill"
         d="m 174.08134,172.28006 q 0,2.41398 -1.82806,6.21073 -1.96868,4.05455 -4.94515,7.12476 l -0.30467,0.21093 -0.37499,0.0703 q -0.32812,0 -0.58592,-0.30468 -0.2578,-0.28124 -0.2578,-0.72654 l 2.50773,-3.32801 q 1.57026,-2.10931 2.8124,-5.01546 l -0.98434,0.51561 q -1.07809,0.56248 -2.43742,0.56248 -0.93747,0 -1.66401,-0.86716 -0.79684,-0.9609 -0.79684,-2.41398 0,-1.61713 1.26558,-2.92959 1.59369,-1.64057 4.47641,-1.64057 1.71088,0 2.50773,0.8906 0.60935,0.67966 0.60935,1.64057 z m -1.80462,0.37498 q 0,-1.12496 -1.26559,-1.12496 -1.68744,0 -2.83584,0.8906 -1.1484,0.89059 -1.1484,1.99212 0,1.4062 1.45308,1.4062 0.84372,0 2.17961,-0.86716 1.61714,-1.05465 1.61714,-2.2968 z"
         id="path2337" /><circle
         style="opacity:1;fill:none;fill-opacity:1;stroke:#ffe85a;stroke-width:1.1821;stroke-linecap:round;stroke-linejoin:bevel;stroke-dasharray:none;stroke-opacity:1;paint-order:stroke markers fill"
         id="path2338"
         cx="169.65181"
         cy="177.82283"
         r="12.617735" /></g><g
       id="g2341"
       transform="matrix(1.0670921,0,0,1.0670921,-10.797258,-71.164934)"><path
         style="font-size:23.5539px;font-family:TSCu_Comic;-inkscape-font-specification:'TSCu_Comic, Normal';fill:#fbf433;fill-opacity:1;stroke:#561526;stroke-width:0;stroke-linecap:round;stroke-linejoin:bevel;paint-order:stroke markers fill"
         d="m 138.5085,214.87157 q 0,0.8906 -0.93747,0.8906 -0.16406,0 -0.84372,-0.0703 -0.82029,-0.0937 -1.42964,-0.14063 l -1.68745,-0.11718 q -1.12496,-0.0937 -1.12496,0.28124 l 0.0469,0.46874 q 0,1.03121 -0.7031,1.94524 2.15618,0 3.58582,0.93747 1.82806,1.19527 1.82806,3.49207 0,3.14052 -2.95302,5.08577 -2.2968,1.49995 -4.49985,1.49995 -0.39843,0 -0.7031,-0.2578 -0.28124,-0.28124 -0.28124,-0.67967 0,-0.7031 0.91403,-0.91403 2.15618,-0.2578 3.703,-1.31246 2.01556,-1.35933 2.01556,-3.42176 0,-2.74209 -3.84362,-2.74209 -1.71088,0 -1.71088,-1.07809 0,-0.4453 0.42186,-1.49995 0.44529,-1.05465 0.44529,-1.75776 0,-0.14062 -0.16405,-0.44529 -0.14062,-0.32812 -0.14062,-0.49217 0,-0.8906 2.83584,-0.8906 2.83584,0 4.00768,0.21093 1.21871,0.21093 1.21871,1.00778 z"
         id="path2336" /><g
         id="g2339"><circle
           style="opacity:1;fill:none;fill-opacity:1;stroke:#ffe85a;stroke-width:1.1821;stroke-linecap:round;stroke-linejoin:bevel;stroke-dasharray:none;stroke-opacity:1;paint-order:stroke markers fill"
           id="circle2338"
           cx="133.65714"
           cy="221.39871"
           r="12.617735" /></g></g><g
       id="g2343"
       transform="matrix(1.0670921,0,0,1.0670921,-2.2546616,-69.456415)"><path
         style="font-size:23.5539px;font-family:TSCu_Comic;-inkscape-font-specification:'TSCu_Comic, Normal';fill:#fbf433;fill-opacity:1;stroke:#561526;stroke-width:0;stroke-linecap:round;stroke-linejoin:bevel;paint-order:stroke markers fill"
         d="m 97.080626,226.99904 q 0,0.74998 -0.79685,0.84372 l -2.03899,-0.39842 q -0.0469,-0.0234 -0.79685,-0.11718 -0.35155,-0.0469 -0.7031,-0.0469 -1.49995,0 -2.34367,0.21093 l -2.08587,0.49217 q -0.30468,0 -0.4453,-0.0937 -0.11718,-0.11719 -0.16405,-0.51561 0,-1.42964 1.664,-4.26548 0.49217,-0.84373 3.14052,-4.71078 1.68745,-2.4843 1.68745,-3.09365 0,-1.07809 -0.98435,-1.07809 -0.98434,0 -2.41398,0.98434 -1.42964,0.98435 -1.664,0.98435 -0.77342,0 -0.86716,-0.79685 0,-0.82029 1.75775,-1.87494 1.68744,-1.03122 2.95303,-1.03122 1.17183,0 1.96868,0.51561 1.10153,0.67967 1.10153,2.20305 0,1.00778 -1.21871,2.81241 l -2.48429,3.65613 q -1.64057,2.39054 -2.32024,4.03111 l 0.91403,-0.16406 0.72654,-0.0703 q 2.10931,0 3.4452,0.25781 1.96868,0.37499 1.96868,1.26558 z"
         id="path2334" /><g
         id="g2340"
         transform="translate(-41.263849,-1.1611672)"><circle
           style="opacity:1;fill:none;fill-opacity:1;stroke:#ffe85a;stroke-width:1.1821;stroke-linecap:round;stroke-linejoin:bevel;stroke-dasharray:none;stroke-opacity:1;paint-order:stroke markers fill"
           id="circle2339"
           cx="133.65714"
           cy="221.39871"
           r="12.617735" /></g></g><g
       id="g2344"
       transform="matrix(1.0670921,0,0,1.0670921,23.373127,-67.747896)"><path
         style="font-size:23.5539px;font-family:TSCu_Comic;-inkscape-font-specification:'TSCu_Comic, Normal';fill:#fbf433;fill-opacity:1;stroke:#561526;stroke-width:0;stroke-linecap:round;stroke-linejoin:bevel;paint-order:stroke markers fill"
         d="m 141.33326,213.96288 -4.05455,14.64795 q -0.0703,0.30468 -0.46874,0.53904 -0.30468,0.16406 -0.7031,0.16406 -0.18749,0 -0.37499,-0.30468 -0.18749,-0.30467 -0.23436,-0.67966 l 3.77331,-13.19487 h -5.27326 q -0.14062,0.42186 -0.42187,1.05465 -0.30467,0.46873 -0.9609,0.46873 -0.28124,0 -0.49217,-0.23436 -0.21093,-0.25781 -0.21093,-0.53905 0,-0.7031 0.46873,-1.82806 0.28124,-0.7031 0.63279,-0.7031 h 7.52319 q 0.35155,0 0.60935,0.23437 0.16406,0.14062 0.1875,0.37498 z"
         id="path2335" /><g
         id="g2342"
         transform="translate(2.965345,-0.06498216)"><circle
           style="opacity:1;fill:none;fill-opacity:1;stroke:#ffe85a;stroke-width:1.1821;stroke-linecap:round;stroke-linejoin:bevel;stroke-dasharray:none;stroke-opacity:1;paint-order:stroke markers fill"
           id="circle2341"
           cx="133.65714"
           cy="221.39871"
           r="12.617735" /></g></g><g
       id="g2346"
       transform="matrix(1.0670921,0,0,1.0670921,-84.833087,-71.164935)"><path
         style="font-size:23.5539px;font-family:TSCu_Comic;-inkscape-font-specification:'TSCu_Comic, Normal';fill:#fbf433;fill-opacity:1;stroke:#561526;stroke-width:0;stroke-linecap:round;stroke-linejoin:bevel;paint-order:stroke markers fill"
         d="m 141.33326,213.96288 -4.05455,14.64795 q -0.0703,0.30468 -0.46874,0.53904 -0.30468,0.16406 -0.7031,0.16406 -0.18749,0 -0.37499,-0.30468 -0.18749,-0.30467 -0.23436,-0.67966 l 3.77331,-13.19487 h -5.27326 q -0.14062,0.42186 -0.42187,1.05465 -0.30467,0.46873 -0.9609,0.46873 -0.28124,0 -0.49217,-0.23436 -0.21093,-0.25781 -0.21093,-0.53905 0,-0.7031 0.46873,-1.82806 0.28124,-0.7031 0.63279,-0.7031 h 7.52319 q 0.35155,0 0.60935,0.23437 0.16406,0.14062 0.1875,0.37498 z"
         id="path2344" /><g
         id="g2345"
         transform="translate(2.965345,-0.06498216)"><circle
           style="opacity:1;fill:none;fill-opacity:1;stroke:#ffe85a;stroke-width:1.1821;stroke-linecap:round;stroke-linejoin:bevel;stroke-dasharray:none;stroke-opacity:1;paint-order:stroke markers fill"
           id="circle2344"
           cx="133.65714"
           cy="221.39871"
           r="12.617735" /></g></g><path
       style="fill:#000000;stroke-width:0.784943"
       d="m 250.93049,113.13072 c -0.11431,0.16405 -0.16482,0.37144 -0.11226,0.46086 0.0526,0.0894 -0.065,0.39631 -0.26141,0.68195 -0.76962,1.11966 -3.74562,0.33465 -5.0645,-1.33592 -0.27893,-0.35331 -0.75937,-0.90653 -1.06763,-1.2294 -0.30827,-0.32288 -0.55956,-0.62946 -0.55842,-0.6813 0.005,-0.26282 -1.53048,-1.83062 -1.79969,-1.83659 -0.17159,-0.004 -0.54906,-0.27425 -0.8388,-0.60101 -0.28975,-0.32675 -0.91777,-0.77548 -1.3956,-0.99719 -1.63269,-0.75753 -5.21371,-0.11189 -6.03905,1.08882 -0.45919,0.66802 -1.25649,0.6708 -2.04921,0.007 -0.57005,-0.47725 -0.57815,-0.51234 -0.25414,-1.09948 0.18407,-0.33357 0.9714,-1.29624 1.74962,-2.13925 1.91895,-2.07873 1.84079,-1.97052 1.98482,-2.7486 0.0998,-0.53889 0.0277,-0.78922 -0.32584,-1.13363 -0.52476,-0.51108 -1.78037,-0.80445 -2.68344,-0.62698 -0.47823,0.094 -3.58575,2.38359 -4.25277,3.13341 -0.1326,0.14906 -1.68215,1.25115 -2.14298,1.52414 -0.98053,0.58088 -1.72047,1.11363 -3.28111,2.36244 -1.71055,1.36873 -1.72182,1.3841 -2.34075,3.19113 -0.57035,1.66521 -2.05328,4.18919 -2.9359,4.99699 -1.02113,0.93455 -2.04284,2.96239 -2.28616,4.53739 -0.0618,0.40009 -0.25828,1.19343 -0.43661,1.76299 -0.79281,2.53211 -1.47384,5.03878 -1.57702,5.80441 -0.0617,0.45743 -0.21959,1.25164 -0.35098,1.76487 -0.13142,0.51325 -0.41324,1.9147 -0.62628,3.11435 -0.21305,1.19965 -0.54396,2.60001 -0.73536,3.11192 -0.34838,0.93175 -0.62388,2.11269 -0.94001,4.02936 -0.16947,1.02751 -0.59075,1.46903 -0.81224,0.85123 -0.0653,-0.18238 -0.21677,-0.27404 -0.33643,-0.20372 -0.13774,0.081 -0.17847,-0.1027 -0.111,-0.50074 0.0818,-0.48277 0.0308,-0.61952 -0.21961,-0.58935 -0.18411,0.0222 -0.36111,0.28761 -0.40643,0.60949 -0.0593,0.42174 -0.26612,0.64303 -0.79419,0.85005 -0.39266,0.15395 -0.90455,0.27566 -1.13751,0.27049 -0.23298,-0.005 -0.42585,0.0922 -0.4286,0.21644 -0.003,0.1242 -0.12136,0.18245 -0.26356,0.12946 -0.1422,-0.0531 -0.52859,0.11832 -0.85863,0.38069 -0.67789,0.53887 -0.9497,0.5725 -1.70024,0.21022 -0.65464,-0.31597 -0.95232,-0.0865 -0.4183,0.32253 0.53112,0.40672 0.20798,0.66861 -0.43942,0.35613 -0.78785,-0.38026 -3.57781,-3.25916 -3.56844,-3.68215 0.004,-0.205 -0.0843,-0.43277 -0.19733,-0.50617 -0.29522,-0.19163 -0.23925,-0.80307 0.13592,-1.48514 0.17853,-0.32458 0.33049,-0.82931 0.33768,-1.12166 0.006,-0.29232 0.10617,-0.6206 0.22003,-0.72949 0.11383,-0.10891 0.24687,-0.3828 0.29562,-0.60867 0.0824,-0.38171 0.61107,-1.46691 1.38547,-2.84389 0.17873,-0.31781 0.57602,-1.24747 0.88288,-2.06592 0.30685,-0.81844 0.73896,-1.63924 0.96023,-1.824 0.22127,-0.18473 0.433,-0.5108 0.47048,-0.72459 0.0376,-0.21377 0.33101,-0.71787 0.65225,-1.12023 0.34459,-0.4316 0.58993,-0.9957 0.59835,-1.37576 0.007,-0.35432 0.12909,-0.90586 0.2694,-1.22565 0.14032,-0.31979 0.23845,-0.66205 0.21809,-0.76061 -0.0204,-0.0985 0.0516,-0.28465 0.15995,-0.41355 0.10836,-0.1289 0.27302,-0.56115 0.36596,-0.96054 0.093,-0.3994 0.23038,-0.81866 0.30542,-0.93169 0.0751,-0.11306 0.15757,-0.4866 0.18338,-0.83014 0.0259,-0.34353 0.17067,-1.0911 0.32193,-1.66125 0.15125,-0.57015 0.26594,-1.22455 0.25487,-1.45419 -0.0111,-0.22965 -0.0308,-1.49702 -0.0438,-2.81637 -0.0387,-3.93167 -0.3257,-7.10782 -0.79274,-8.77662 -0.31299,-1.11837 -1.74854,-4.20973 -1.95704,-4.21435 -0.10123,-0.002 -0.23813,-0.18855 -0.30424,-0.414 -0.0661,-0.22545 -0.5303,-0.832581 -1.03157,-1.349171 -1.0199,-1.05107 -1.02061,-1.440227 -0.003,-1.937929 0.37045,-0.181284 0.58261,-0.42093 0.52208,-0.589751 -0.17086,-0.476572 2.68139,-0.451156 3.69859,0.03297 0.95145,0.452818 3.41673,3.03238 4.05799,4.246121 0.24318,0.46027 0.57724,1.09267 0.74236,1.40535 1.46024,2.76509 2.48598,6.00295 2.82001,8.90167 0.10416,0.90401 0.16474,0.99442 0.67486,1.00736 0.67767,0.0172 2.55942,-0.78914 2.56631,-1.09964 0.002,-0.12208 0.43439,-0.62997 0.9593,-1.12865 0.52491,-0.4987 0.9577,-0.97171 0.96177,-1.05115 0.0149,-0.28774 2.34826,-2.25391 3.12905,-2.63644 0.44023,-0.21568 0.9949,-0.59273 1.23258,-0.83789 0.23769,-0.24518 1.05085,-0.9426 1.80702,-1.54986 0.75617,-0.60724 1.56625,-1.27057 1.80015,-1.47406 1.14266,-0.99406 2.13835,-1.77866 2.25931,-1.78033 0.0739,-0.001 0.45574,-0.29066 0.84846,-0.64364 0.98116,-0.881821 1.88798,-1.384324 2.47633,-1.372211 0.39459,0.0082 0.44801,-0.04848 0.26431,-0.280074 -0.52833,-0.666098 0.23537,-0.765494 4.57442,-0.595366 l 4.21176,0.165137 0.69088,0.835345 c 0.37998,0.45944 1.02665,1.405869 1.43705,2.103179 0.97606,1.65843 0.97415,1.65596 2.33948,3.02652 0.64519,0.64764 1.17047,1.2945 1.1673,1.43744 -0.003,0.14295 0.31233,0.62926 0.70112,1.08068 0.38878,0.45141 0.70578,0.9686 0.70444,1.1493 -0.001,0.1807 0.23312,0.55987 0.52101,0.84262 0.75496,0.74143 1.13591,1.74923 1.38639,3.66767 0.0451,0.3451 -0.0116,0.76168 -0.12592,0.92571 z m -43.32666,25.53523 c -0.0945,-0.002 -0.22505,0.18271 -0.29009,0.41067 -0.13003,0.45567 0.36246,0.61122 0.53254,0.16822 0.11598,-0.30206 0.002,-0.57346 -0.24245,-0.57889 z m -9.65375,-10.51184 c -0.28751,0.94852 -0.70904,1.5231 -1.11084,1.51418 -0.14566,-0.003 -0.32438,0.13953 -0.39712,0.31724 -0.0728,0.17771 -0.22545,0.26264 -0.33932,0.18872 -0.11887,-0.0773 -0.21221,0.098 -0.21914,0.41132 -0.006,0.31075 -0.1006,0.48827 -0.21769,0.41229 -0.11307,-0.0734 -0.21953,-0.0345 -0.23654,0.0867 -0.017,0.1211 -0.0457,0.33716 -0.0639,0.48014 -0.0224,0.17762 -0.33701,0.23147 -0.99325,0.17003 -0.9011,-0.0844 -0.98887,-0.046 -1.42279,0.62255 -0.25434,0.39185 -0.66556,0.76079 -0.91385,0.81987 -0.35112,0.0835 -0.40096,0.17105 -0.22429,0.39378 0.22235,0.28031 0.17258,0.3648 -1.01414,1.72151 -0.10928,0.12494 -0.15899,0.5808 -0.11047,1.01306 0.0552,0.49173 0.0118,0.73631 -0.11589,0.6534 -0.11228,-0.0729 -0.26103,0.006 -0.33056,0.17632 -0.0721,0.1763 -0.38729,0.30304 -0.73434,0.29536 -0.42431,-0.009 -0.71852,0.14747 -0.97423,0.51946 -0.25773,0.37496 -0.49006,0.49765 -0.78371,0.41386 -0.34972,-0.0998 -0.39661,-0.0449 -0.28927,0.33886 0.24632,0.88051 0.18765,1.04009 -0.52297,1.42249 -0.50364,0.27102 -0.77975,0.31833 -0.93157,0.15962 -0.46517,-0.48626 -0.75761,-0.2434 -0.78057,0.64825 -0.0297,1.15587 -0.29255,1.58211 -0.73735,1.19599 -0.27366,-0.23754 -0.32756,-0.22092 -0.35585,0.1098 -0.0183,0.21437 -0.0216,0.46738 -0.006,0.56225 0.0142,0.0949 -0.0845,0.10071 -0.21957,0.0131 -0.16788,-0.10895 -0.20563,-0.0479 -0.11928,0.19299 0.10563,0.29474 0.0339,0.32721 -0.43821,0.19845 -0.5287,-0.14418 -0.54523,-0.129 -0.26042,0.23924 0.2763,0.35725 0.27028,0.37966 -0.0657,0.24508 -0.36355,-0.14561 -0.94644,0.073 -1.66834,0.62557 -0.22765,0.17425 -0.59942,0.22758 -0.98565,0.14139 -0.68085,-0.15193 -1.08176,0.17736 -0.62538,0.51365 0.19512,0.14378 0.0916,0.16174 -0.33385,0.0579 l -0.61665,-0.15045 0.40104,0.46935 0.40103,0.46932 -0.49169,-0.16523 c -0.30347,-0.10196 -0.44537,-0.0865 -0.37067,0.0406 0.0684,0.11639 -0.29861,0.25397 -0.8442,0.31646 -1.44206,0.16518 -1.63331,0.13446 -2.16534,-0.34805 -0.29331,-0.266 -0.67761,-0.411 -0.96234,-0.36308 -0.32926,0.0554 -0.47748,-0.023 -0.48537,-0.25652 -0.006,-0.18496 -0.11102,-0.0161 -0.23283,0.37519 -0.15258,0.49012 -0.27192,0.62568 -0.38359,0.4357 -0.0892,-0.15167 -0.57106,-0.31469 -1.07088,-0.36223 -0.97283,-0.0925 -2.66432,-0.85904 -2.65667,-1.20384 0.002,-0.11482 -0.21756,-0.2989 -0.48914,-0.40911 -0.27156,-0.1102 -0.80292,-0.48241 -1.18081,-0.82713 -0.37789,-0.34473 -1.07804,-0.83602 -1.5559,-1.09178 -0.47786,-0.25574 -1.33567,-0.96778 -1.90625,-1.5823 l -1.03743,-1.11731 0.12383,-1.45708 c 0.0682,-0.80141 0.0226,-2.02243 -0.10103,-2.71338 -0.2344,-1.30949 -0.19771,-3.15303 0.13264,-6.66524 0.24472,-2.60182 0.80915,-5.35297 1.23182,-6.00414 0.15409,-0.2374 0.15093,-0.22137 0.4238,-2.15653 0.10123,-0.71821 0.26538,-1.35358 0.36466,-1.41193 0.0993,-0.0584 0.18547,-0.32955 0.19151,-0.60262 0.006,-0.27308 0.10607,-0.5524 0.22231,-0.62072 0.11623,-0.0683 0.21677,-0.37046 0.22344,-0.67143 0.006,-0.30098 0.19874,-0.92465 0.4268,-1.38593 0.22809,-0.4613 0.53917,-1.35211 0.6913,-1.9796 0.72024,-2.97078 2.74824,-8.02916 4.1437,-10.33558 0.37663,-0.62251 0.99178,-1.68812 1.36699,-2.36801 0.37521,-0.67989 0.84818,-1.420178 1.05106,-1.645084 0.20288,-0.224906 0.61869,-0.825694 0.92404,-1.335082 0.9889,-1.649716 3.16025,-3.486576 5.10435,-4.318026 1.1667,-0.49897 1.90775,-0.700538 2.25592,-0.61362 0.56455,0.140935 1.43631,1.061691 1.42644,1.506637 -0.003,0.152698 0.38709,0.530931 0.86771,0.840516 0.48062,0.309587 1.33583,1.057034 1.90046,1.660994 0.56463,0.603962 1.60118,1.660584 2.30342,2.348051 0.70225,0.687464 1.2548,1.403564 1.2279,1.591334 -0.0269,0.18777 0.0153,0.53051 0.0938,0.76166 0.57346,1.68914 0.6519,2.03488 0.54595,2.4062 -0.13692,0.47989 -0.30167,0.51966 -0.64893,0.15666 -0.19024,-0.19887 -0.3038,-0.19807 -0.51103,0.003 -0.14653,0.14258 -0.17214,0.23947 -0.057,0.21532 0.11523,-0.0242 0.44186,0.059 0.72583,0.18476 0.28396,0.12576 0.60957,0.2546 0.72357,0.28629 0.30869,0.0858 0.62419,0.63948 0.90092,1.58103 0.13574,0.46182 0.32529,0.94389 0.42122,1.07126 0.096,0.1274 0.11786,0.28574 0.0488,0.35188 -0.0692,0.0661 0.14815,0.69012 0.48287,1.38661 0.5109,1.06308 0.58665,1.42688 0.47191,2.26652 -0.0752,0.55011 -0.24714,1.09312 -0.38215,1.20671 -0.13499,0.11358 -0.43797,0.42434 -0.67327,0.69057 l -0.42783,0.48406 0.47224,-0.13558 c 0.68747,-0.19736 0.5752,0.18866 -0.24776,0.852 -0.63866,0.51478 -2.28609,2.9103 -2.29556,3.33798 -0.003,0.15146 -0.73378,0.79872 -2.87182,2.5448 -0.35044,0.2862 -0.7012,0.51906 -0.77947,0.51747 -0.0783,-0.001 -0.20951,0.19368 -0.29168,0.43395 -0.31382,0.91773 -3.3049,3.44901 -4.05586,3.43235 -0.10448,-0.002 -0.53866,0.17286 -0.96485,0.38927 -0.64519,0.3276 -1.09954,0.37528 -2.71436,0.28483 -1.20477,-0.0675 -2.24231,-0.24605 -2.73894,-0.47136 -0.43971,-0.1995 -1.00231,-0.36721 -1.25021,-0.37271 -0.62479,-0.0138 -1.27984,1.09604 -1.2427,2.10557 0.0161,0.4363 -0.0903,1.37579 -0.23662,2.08778 -0.22477,1.09471 -0.37699,3.85566 -0.36133,6.55341 0.003,0.48095 0.15526,0.77712 0.53416,1.03756 0.49931,0.34321 0.5936,0.34416 1.61589,0.0161 1.14863,-0.36849 5.64098,-2.42389 5.82713,-2.66609 0.25392,-0.33041 2.40618,-1.22878 2.91669,-1.21746 0.3401,0.007 0.77738,-0.21343 1.13041,-0.57125 0.56919,-0.57688 3.21,-1.89433 5.86138,-2.92413 0.75204,-0.29209 1.53133,-0.71116 1.7318,-0.93125 0.20045,-0.22008 0.81949,-0.62764 1.37564,-0.90569 0.55615,-0.27805 1.20881,-0.68069 1.45035,-0.89479 0.50595,-0.44843 0.95142,-0.48743 1.30815,-0.11452 0.19703,0.20597 0.33712,0.20905 0.66421,0.0148 0.56058,-0.33306 1.25546,-0.29522 1.2474,0.0679 -0.004,0.16257 0.0282,0.42135 0.0708,0.57506 0.0425,0.1537 -0.0393,0.66365 -0.18154,1.1332 z m -5.88084,-15.41789 c -0.16775,0.0628 -0.11946,0.11333 0.12314,0.12872 0.21955,0.0139 0.34375,-0.0326 0.27602,-0.10343 -0.0677,-0.0708 -0.24735,-0.0822 -0.39916,-0.0252 z m -4.85646,-13.52085 c -0.23211,-0.0052 -0.38249,0.119585 -0.36022,0.298801 0.0533,0.428296 0.2541,0.599539 0.52001,0.443236 0.37554,-0.220753 0.26533,-0.732613 -0.15979,-0.742037 z m -4.09926,42.97441 c -0.11621,0.0683 -0.21337,0.21801 -0.21593,0.33265 -0.002,0.11464 0.0905,0.15255 0.20669,0.0842 0.11621,-0.0683 0.21337,-0.21799 0.21592,-0.33264 0.002,-0.11465 -0.0904,-0.15256 -0.20668,-0.0843 z m 0.45232,-37.13737 c -0.0401,-1.34272 -0.0938,-1.5104 -0.55455,-1.73281 -0.28058,-0.13544 -0.63964,-0.24912 -0.79789,-0.25263 -0.36872,-0.007 -1.1737,0.96363 -1.18403,1.4294 -0.004,0.19606 -0.19927,0.5221 -0.43316,0.72452 -0.23389,0.20242 -0.4282,0.50166 -0.43183,0.66497 -0.004,0.16331 -0.51036,1.28716 -1.12609,2.49744 -1.82055,3.57852 -2.12466,4.23123 -2.27636,4.88599 -0.0793,0.34235 -0.22323,0.80839 -0.31976,1.03566 -0.0966,0.22725 -0.28681,0.67323 -0.42285,0.99104 -0.32999,0.77099 -0.33239,0.76488 0.30442,0.77899 1.49301,0.0331 5.43188,-2.78653 5.72814,-4.10047 0.0712,-0.31624 0.21244,-0.62365 0.31366,-0.68314 0.10112,-0.0595 0.19735,-0.71086 0.21369,-1.44747 0.0265,-1.19409 0.0985,-1.41164 0.66485,-2.00631 0.39915,-0.41914 0.58518,-0.78434 0.50065,-0.98281 -0.074,-0.17368 -0.1545,-0.98476 -0.17889,-1.80237 z m -4.54709,38.70271 c -0.26879,-0.37225 -0.29847,-0.37669 -0.31178,-0.0468 -0.007,0.20055 0.0846,0.36683 0.20603,0.36952 0.12141,0.002 0.1607,0.0974 0.0873,0.21049 -0.0734,0.11308 -0.0341,0.2078 0.0873,0.21049 0.30616,0.006 0.28161,-0.25838 -0.0689,-0.74372 z m -8.43131,-57.42119 c -0.11465,-0.0025 -0.20636,-0.09843 -0.20382,-0.213067 0.002,-0.114644 0.0984,-0.206366 0.21307,-0.203825 0.11465,0.0025 0.20635,0.09843 0.20382,0.213067 -0.002,0.114645 -0.0984,0.206366 -0.21307,0.203825 z m -6.82461,19.63832 c -0.1768,0.2409 -0.57691,1.11147 -0.88911,1.93462 -0.31221,0.82317 -0.69956,1.64188 -0.86078,1.8194 -0.16122,0.17751 -0.29521,0.41711 -0.29776,0.53243 -0.002,0.11534 -0.26782,0.43873 -0.58944,0.71865 -0.32164,0.27994 -0.89954,0.84572 -1.28422,1.25731 -0.38468,0.41158 -0.77923,0.74656 -0.87677,0.7444 -0.0976,-0.002 -0.23483,0.25375 -0.30511,0.5687 -0.0808,0.36186 -0.48711,0.82961 -1.10407,1.27089 -0.53696,0.38403 -1.03402,0.90839 -1.10456,1.16523 -0.0706,0.25685 -0.3078,0.51962 -0.52723,0.58394 -0.21942,0.0644 -0.40169,0.23992 -0.40502,0.39017 -0.003,0.15025 -0.20718,0.4004 -0.453,0.55589 -0.38899,0.24603 -0.46508,0.53831 -0.5868,2.25432 -0.0768,1.0844 -0.25433,2.25064 -0.39421,2.59165 -0.13988,0.341 -0.23733,1.20972 -0.21656,1.93049 0.0208,0.72075 -0.0747,1.75097 -0.21219,2.28932 -0.13748,0.53837 -0.36149,1.86792 -0.49781,2.95457 -0.13631,1.08664 -0.35984,2.53632 -0.49674,3.2215 -0.13688,0.68517 -0.3476,1.79542 -0.46826,2.4672 -0.12065,0.6718 -0.2685,1.26844 -0.32853,1.32588 -0.19222,0.18387 -0.73319,-0.42352 -0.72455,-0.81349 0.004,-0.20708 -0.14395,-0.53569 -0.33009,-0.73026 -0.31423,-0.3285 -0.35273,-0.32951 -0.53851,-0.0142 -0.11004,0.18678 -0.13488,0.49959 -0.0552,0.69511 0.0798,0.19553 0.11952,0.56611 0.0886,0.8235 -0.0309,0.25739 0.0442,0.47021 0.16707,0.47293 0.45134,0.009 0.19172,0.54137 -0.53531,1.09554 -0.4109,0.31322 -0.70374,0.64323 -0.65076,0.73336 0.16473,0.28024 -0.24182,1.37196 -0.50869,1.36603 -0.13925,-0.003 -0.33464,0.11992 -0.43423,0.27333 -0.13212,0.20358 -0.21981,0.21298 -0.32454,0.0349 -0.0977,-0.16624 -0.22569,-0.17893 -0.40114,-0.0399 -0.17644,0.13996 -0.44021,0.10448 -0.83696,-0.11269 -0.66809,-0.36563 -1.36337,-0.42958 -1.37009,-0.12603 -0.002,0.11464 -0.10395,0.20623 -0.22537,0.20354 -0.12142,-0.002 -0.16071,-0.0974 -0.0873,-0.21047 0.0734,-0.11309 -0.009,-0.20878 -0.18497,-0.21266 -0.19741,-0.004 -0.2702,-0.12487 -0.19152,-0.31706 0.0804,-0.1963 0.004,-0.31275 -0.20806,-0.31744 -0.19125,-0.004 -0.33117,-0.17898 -0.32611,-0.40728 0.0138,-0.62313 -0.20152,-1.06426 -0.523,-1.07138 -0.3364,-0.007 -1.09285,-1.21073 -1.08268,-1.72222 0.004,-0.18837 -0.1327,-0.3996 -0.3032,-0.4694 -0.17051,-0.0698 -0.3068,-0.27158 -0.30289,-0.4484 0.004,-0.17681 -0.1864,-0.75811 -0.42296,-1.29174 -0.39477,-0.89061 -0.40122,-0.98559 -0.0786,-1.15686 0.1933,-0.10259 0.35477,-0.33572 0.35881,-0.51803 0.004,-0.18229 0.1745,-0.46235 0.37876,-0.62235 0.20427,-0.16 0.23786,-0.22531 0.0746,-0.14514 -0.23099,0.11345 -0.26323,0.0353 -0.14547,-0.35271 0.0832,-0.27418 0.25615,-1.1531 0.38426,-1.95317 0.31084,-1.94123 0.79462,-3.98904 0.98554,-4.17166 0.22168,-0.21207 0.21049,-1.07329 -0.0159,-1.2202 -0.10531,-0.0683 -0.2469,-0.0386 -0.31476,0.0658 -0.0687,0.10585 -0.50353,-0.004 -0.98125,-0.24812 -0.60993,-0.31156 -1.08298,-0.40731 -1.63666,-0.33132 -0.73202,0.1005 -0.86289,0.0256 -2.1804,-1.24543 -0.77091,-0.74378 -1.74264,-1.6797 -2.15938,-2.07986 -0.60287,-0.57884 -0.75279,-0.8766 -0.73357,-1.45691 0.0133,-0.40117 -0.001,-0.96457 -0.0326,-1.25202 -0.0488,-0.44864 0.0253,-0.52081 0.52315,-0.50977 0.31895,0.006 0.64987,-0.0943 0.73539,-0.22525 0.1553,-0.23777 1.61692,-0.57715 2.06763,-0.48008 0.44248,0.0953 6.30721,-2.78494 6.99051,-3.43309 0.29585,-0.28066 0.69496,-2.33137 0.85329,-4.38462 0.13679,-1.7738 0.55392,-4.56667 0.96665,-6.472 0.51043,-2.356506 1.11343,-5.439974 1.231,-6.29492 0.11377,-0.827245 0.31199,-1.808242 0.47109,-2.331337 0.0583,-0.191465 0.38437,-0.402848 0.72475,-0.469739 0.3404,-0.0669 0.62186,-0.254869 0.62546,-0.417728 0.008,-0.401224 1.48596,-0.359301 2.85682,0.08109 1.1481,0.368826 1.6949,1.001544 1.81553,2.100767 0.0761,0.693392 0.31686,2.221706 0.56052,3.557874 0.0816,0.447609 0.0721,1.57356 -0.0211,2.502113 -0.66347,6.6116 -0.73025,6.07741 0.6708,5.36598 1.61354,-0.81929 2.70907,-2.80673 2.27899,-4.13442 -0.27418,-0.8464 -0.21544,-0.92971 0.94828,-1.34483 0.72328,-0.25801 1.06083,-0.284 1.40795,-0.1084 0.25112,0.12703 0.62922,0.29102 0.84022,0.36441 0.22362,0.0778 0.33358,0.25573 0.26362,0.42661 -0.18969,0.46336 0.35868,0.82288 0.68382,0.44832 0.3263,-0.37589 0.76312,-0.39075 0.97422,-0.0331 0.0857,0.14527 0.15686,1.12087 0.158,2.16799 0.001,1.40916 -0.0815,2.01766 -0.31942,2.34185 z m -32.66307,2.42671 c -0.11465,-0.002 -0.21162,0.13903 -0.21552,0.3146 -0.004,0.17556 -0.14319,0.36801 -0.30955,0.42765 -0.16638,0.0597 -0.36629,0.37101 -0.44427,0.6919 -0.078,0.3209 -0.32771,0.74439 -0.55497,0.94106 -0.22727,0.19669 -0.41665,0.51305 -0.42085,0.70302 -0.004,0.18995 -0.27903,0.53686 -0.6107,0.77088 -0.33166,0.23403 -0.76543,0.749 -0.96391,1.1444 -0.50185,0.99973 -2.50577,3.22519 -3.09246,3.43432 -0.27003,0.0963 -0.4259,0.27471 -0.35108,0.40197 0.074,0.12588 -0.10981,0.4739 -0.40843,0.77339 -0.67502,0.67697 -1.00728,1.47803 -1.02954,2.48214 -0.009,0.42559 -0.18005,0.99574 -0.37913,1.26697 -0.20727,0.28239 -0.37737,0.91318 -0.39801,1.47592 -0.0223,0.60768 -0.1721,1.12721 -0.39256,1.36132 -0.36493,0.3875 -1.21068,3.03755 -1.44337,4.52258 -0.0714,0.45564 -0.20426,0.92194 -0.29525,1.0362 -0.1901,0.23871 -0.59891,1.71054 -1.35373,4.87375 -0.37558,1.57393 -0.97739,3.60848 -1.17892,3.9856 -0.10519,0.19683 -0.19428,0.49463 -0.198,0.66176 -0.008,0.38231 -0.99509,1.49748 -1.16664,1.31864 -0.0699,-0.073 0.022,-0.53647 0.2044,-1.03006 0.39062,-1.05713 0.3534,-1.17342 -0.19139,-0.59764 -0.25144,0.26576 -0.41616,0.75442 -0.43857,1.30095 -0.0197,0.48142 -0.11057,0.99041 -0.20188,1.13109 -0.0913,0.14067 -0.14354,0.52829 -0.11603,0.86138 0.0364,0.44227 -0.10673,0.74449 -0.53099,1.12057 -0.31953,0.28323 -0.58508,0.7005 -0.59012,0.92726 -0.007,0.36469 -0.0856,0.38851 -0.67169,0.20629 -0.36442,-0.11332 -0.71578,-0.13801 -0.78085,-0.0549 -0.21127,0.26995 -2.26715,0.23717 -2.42932,-0.0386 -0.0845,-0.14367 -0.0355,-0.29294 0.11068,-0.33812 0.17223,-0.0533 0.11342,-0.18987 -0.17169,-0.39914 -0.23847,-0.17504 -0.57336,-0.69134 -0.74419,-1.14734 -0.17083,-0.456 -0.48483,-0.92738 -0.69779,-1.04747 -0.21294,-0.12012 -0.38679,-0.37932 -0.38632,-0.57599 4.7e-4,-0.19669 -0.17208,-0.73683 -0.38341,-1.20033 -0.46693,-1.024 -0.48177,-1.84545 -0.0449,-2.48115 0.18033,-0.26237 0.42777,-1.07474 0.54986,-1.80528 0.35297,-2.11205 0.89884,-4.49414 1.12201,-4.89632 0.11288,-0.20343 0.28717,-0.97805 0.38729,-1.7214 0.10008,-0.74333 0.26524,-1.50175 0.36693,-1.68535 0.10176,-0.1836 0.29877,-0.88307 0.4379,-1.5544 0.13913,-0.67132 0.31119,-1.47472 0.38234,-1.7853 0.10477,-0.45747 0.0332,-0.61114 -0.37692,-0.8091 -0.27845,-0.1344 -0.70071,-0.66823 -0.93837,-1.1863 -0.53117,-1.15791 -2.0681,-2.90903 -2.85892,-3.25733 -0.57678,-0.25401 -1.66648,-1.78505 -1.92685,-2.70722 -0.31497,-1.11553 -0.27964,-1.46976 0.1998,-2.00332 0.40728,-0.45326 0.60078,-0.51967 1.1543,-0.39614 0.57862,0.12912 0.66626,0.0918 0.67467,-0.28722 0.0145,-0.65963 0.74811,-0.94596 1.53522,-0.5993 0.35399,0.15591 0.94361,0.26431 1.31025,0.2409 0.36664,-0.0234 0.72631,0.0589 0.79926,0.18308 0.22865,0.38896 0.73311,0.26433 2.04333,-0.50482 1.46984,-0.86285 1.66406,-1.21862 1.83281,-3.35753 0.1006,-1.27532 0.23168,-1.71181 0.71534,-2.38245 0.54366,-0.75382 0.56998,-0.86942 0.32144,-1.4114 -0.21064,-0.45931 -0.21412,-0.65548 -0.0158,-0.88401 0.14022,-0.16154 0.20701,-0.42743 0.14839,-0.59089 -0.0586,-0.16345 0.079,-0.98276 0.30586,-1.82068 0.22683,-0.83792 0.4763,-1.97701 0.55438,-2.531319 0.0781,-0.554308 0.22926,-1.114038 0.33593,-1.243845 0.10661,-0.129807 0.25966,-0.61184 0.33999,-1.071181 0.19907,-1.138187 0.76422,-2.174862 1.72862,-3.1708 l 0.80898,-0.835438 1.68129,0.03727 c 1.56384,0.03466 1.73698,0.08343 2.4787,0.698114 0.63351,0.525012 0.79433,0.800063 0.7824,1.33815 -0.008,0.372518 0.0493,0.744551 0.12795,0.826741 0.2183,0.228207 0.29077,1.659472 0.22129,4.370718 -0.0454,1.77323 0.004,2.43884 0.1799,2.38433 0.13362,-0.0416 0.25131,-0.25504 0.26152,-0.47433 0.0115,-0.24763 0.13264,-0.36292 0.31956,-0.30425 0.16556,0.052 0.72301,0.10814 1.2388,0.12476 0.51578,0.0167 1.00265,0.12869 1.08193,0.249 0.0793,0.12029 0.59129,0.22861 1.13783,0.24074 0.83252,0.0184 1.00302,0.0898 1.05116,0.4404 0.0316,0.2301 0.13157,0.6077 0.22216,0.83911 0.50123,1.28043 0.61706,2.11386 0.37607,2.70586 -0.20283,0.49831 -0.19011,0.64003 0.0712,0.794 0.35618,0.20982 0.42177,0.58609 0.10092,0.57899 z m -15.56668,34.27401 c -0.18011,0.2656 -0.20835,0.25947 -0.20438,-0.0443 0.002,-0.19389 0.0998,-0.40843 0.21593,-0.47674 0.26742,-0.15721 0.26131,0.11874 -0.0115,0.52111 z M 97.983276,125.28725 c -0.239252,0.44465 -0.436633,0.88162 -0.438615,0.97103 -0.0054,0.25026 -1.511016,2.07828 -1.956721,2.37595 -0.217712,0.14542 -0.39867,0.39194 -0.402123,0.54784 -0.0087,0.37362 -4.113738,4.31476 -5.308455,5.09599 -0.51357,0.33583 -1.145069,0.74805 -1.403313,0.91607 -0.258256,0.16802 -1.268965,1.01736 -2.246023,1.88745 -0.977069,0.87008 -1.972488,1.62656 -2.212057,1.68107 -0.239557,0.0546 -0.912165,0.68442 -1.49467,1.3998 -0.582504,0.71538 -1.344115,1.4575 -1.692463,1.64917 -0.348359,0.19167 -1.060455,0.80667 -1.582432,1.36666 -1.435352,1.53988 -2.621879,1.85181 -4.796333,1.26091 -1.295165,-0.35197 -1.773321,-0.68742 -3.238185,-2.27184 -0.789174,-0.8536 -1.405361,-1.34219 -1.70098,-1.34873 -0.807469,-0.0179 -1.698508,-0.65718 -2.004733,-1.43829 -0.241148,-0.61515 -0.245384,-0.91649 -0.02396,-1.7072 0.225629,-0.80581 0.216971,-1.12496 -0.0539,-1.98469 -0.270735,-0.85943 -0.289433,-1.54489 -0.116054,-4.25487 0.170406,-2.66353 0.337947,-3.70729 0.954756,-5.9479 0.754261,-2.73994 1.205464,-4.06153 1.77441,-5.19732 0.170472,-0.34032 0.389937,-0.85432 0.487697,-1.14221 0.09779,-0.28788 0.664265,-1.30363 1.258912,-2.2572 1.12942,-1.81116 2.579463,-3.31178 4.06163,-4.2033 0.827442,-0.49772 0.912122,-0.64259 1.596884,-2.73208 0.972189,-2.96657 1.780247,-4.95585 2.135456,-5.2571 0.161084,-0.13661 0.605569,-0.49879 0.987741,-0.80484 0.382173,-0.30606 1.073446,-0.87728 1.536172,-1.26938 0.955583,-0.80975 1.278623,-0.87191 1.567752,-0.30164 0.111437,0.2198 0.460318,0.50637 0.775278,0.63681 1.080535,0.4475 2.218678,1.25246 2.411822,1.7058 0.106287,0.24952 0.435011,0.56011 0.730456,0.69024 0.597532,0.26316 4.074012,3.89491 4.066182,4.24778 -0.0032,0.12327 0.319925,0.38797 0.717006,0.58824 0.469249,0.23668 0.859392,0.6639 1.114556,1.22049 0.215925,0.47099 0.806782,1.30732 1.313025,1.85849 0.932028,1.01478 1.666198,2.45548 2.127432,4.17487 0.139304,0.51924 0.37102,1.07056 0.514931,1.22515 0.143922,0.15458 0.316071,0.53378 0.382565,0.84267 0.06654,0.30888 0.209675,0.67968 0.318194,0.82401 0.108464,0.14432 0.140937,0.40011 0.07198,0.56842 -0.06894,0.16831 -0.03681,0.36345 0.07132,0.43365 0.38117,0.24741 0.162185,3.08138 -0.305213,3.95003 z m -10.102219,-4.70773 c -0.10792,-0.002 -0.256197,0.0883 -0.329584,0.20124 -0.0734,0.11308 0.01274,0.20882 0.191521,0.21279 0.178737,0.004 0.327048,-0.0866 0.329596,-0.20123 0.0022,-0.11465 -0.08364,-0.21041 -0.191533,-0.2128 z m -1.411448,1.11572 c -0.152623,-2.12752 -0.235877,-2.69272 -0.413645,-2.80812 -0.109585,-0.0711 -0.25942,-0.41125 -0.33296,-0.75583 -0.07351,-0.3446 -0.301576,-0.92086 -0.506754,-1.28059 -0.205177,-0.35972 -0.322473,-0.70242 -0.260673,-0.76154 0.288454,-0.27595 -0.746039,-1.56911 -1.47706,-1.84639 -1.309911,-0.49686 -1.644875,-0.95497 -0.865328,-1.1835 0.523862,-0.15357 0.566703,-0.71736 0.05532,-0.72869 -0.432146,-0.009 -1.313318,1.02911 -1.325135,1.56201 -0.0044,0.19625 0.143868,0.53218 0.329368,0.74651 0.341585,0.39469 0.296283,0.59835 -0.361264,1.62382 -0.390394,0.60884 -1.943064,4.45778 -2.126266,5.27086 -0.102908,0.45653 -0.201868,0.87664 -0.219998,0.93359 -0.502203,1.57726 -0.636889,2.12174 -0.716005,2.89433 -0.05217,0.50979 -0.201323,1.43872 -0.33136,2.0643 -0.130048,0.62559 -0.262056,2.2927 -0.293353,3.70473 -0.06556,2.95736 0.01502,3.05634 1.562339,1.92033 0.489209,-0.35915 1.797148,-1.31708 2.906531,-2.12874 1.109382,-0.81165 2.31256,-1.8173 2.673727,-2.23477 1.045502,-1.20849 1.65486,-3.54995 1.08525,-4.17009 -0.205363,-0.22359 -0.139871,-0.36045 0.338961,-0.70836 0.479202,-0.34818 0.567476,-0.5329 0.458358,-0.95921 -0.07438,-0.2904 -0.155378,-0.80999 -0.180098,-1.15465 z m -24.047111,9.07917 c -0.546373,1.21079 -1.241816,2.21885 -2.245337,3.25465 -0.260826,0.26922 -0.794641,1.07674 -1.186255,1.79451 -0.391604,0.71777 -0.924885,1.64879 -1.185068,2.06896 -0.532944,0.86064 -2.012204,2.41348 -2.293187,2.40725 -0.10139,-0.002 -0.130843,0.14508 -0.06545,0.32742 0.128992,0.35979 -2.177459,2.74191 -2.65041,2.73734 -0.143344,-0.001 -0.263712,0.13645 -0.267479,0.3063 -0.0032,0.16984 -0.606484,0.89962 -1.339368,1.62175 -0.732895,0.72212 -1.442126,1.43545 -1.576083,1.58518 -0.133947,0.14972 -0.586664,0.54618 -1.006048,0.88098 -0.419383,0.3348 -1.170998,0.96051 -1.670249,1.39045 -0.49926,0.42993 -1.404064,1.05098 -2.010668,1.3801 -0.606615,0.32911 -1.497065,1.04848 -1.978783,1.59859 -0.924961,1.0563 -3.189518,2.67709 -4.435317,3.17445 -0.408101,0.16293 -0.906706,0.37496 -1.10801,0.4712 -0.201305,0.0963 -0.629924,0.16912 -0.952487,0.16197 -0.322562,-0.006 -0.688384,0.0845 -0.812936,0.20364 -0.147157,0.14079 -1.056793,0.15964 -2.597625,0.0538 -4.360036,-0.29925 -4.486557,-0.32542 -5.432203,-1.12328 -0.475164,-0.40091 -1.212167,-0.8955 -1.637787,-1.09907 -1.932534,-0.92431 -2.217809,-1.08666 -2.213966,-1.26 0.0023,-0.10165 -0.129411,-0.18766 -0.292583,-0.19127 -0.948484,-0.021 -2.967471,-3.27001 -2.935253,-4.72346 0.009,-0.40639 -0.07143,-0.79589 -0.178728,-0.86553 -0.107309,-0.0696 -0.159042,-0.38134 -0.114961,-0.69264 0.04409,-0.31131 -0.02889,-1.27227 -0.162155,-2.13548 -0.133269,-0.86322 -0.228312,-2.74227 -0.21121,-4.17564 0.01711,-1.43341 0.0387,-3.32748 0.04798,-4.20906 0.01775,-1.68421 0.441623,-4.69072 0.859173,-6.094 0.135624,-0.4558 0.32907,-1.2023 0.429878,-1.65885 0.225895,-1.02313 2.1224,-7.64434 2.433651,-8.49655 0.124667,-0.34134 0.496667,-1.45927 0.826666,-2.48427 0.330001,-1.02499 0.770476,-2.18832 0.978837,-2.58515 0.208361,-0.39685 0.454357,-1.09524 0.546659,-1.552 0.0923,-0.45677 0.445897,-1.38739 0.785764,-2.06806 0.33987,-0.68069 1.009837,-2.16739 1.488819,-3.30378 0.478982,-1.1364 1.075007,-2.39013 1.3245,-2.78605 0.48534,-0.7702 1.065272,-1.88783 1.925703,-3.71118 0.507819,-1.07614 0.659782,-1.368477 1.152108,-2.216367 0.115071,-0.198177 0.39794,-0.77845 0.628595,-1.289494 2.490839,-5.518756 4.369806,-9.270082 4.967056,-9.91665 0.163916,-0.177451 0.300745,-0.445197 0.304066,-0.594991 0.0032,-0.149795 0.249652,-0.488291 0.547402,-0.752215 1.05074,-0.931371 3.473997,-0.56978 4.970256,0.741644 1.046972,0.917641 2.144473,2.454496 2.13268,2.986454 -0.0044,0.187093 0.138303,0.821952 0.31656,1.410799 0.277957,0.918202 0.284773,1.280226 0.04781,2.542828 -0.151958,0.809709 -0.225443,1.821153 -0.163306,2.247649 0.06218,0.426499 0.03866,0.942137 -0.05217,1.145862 -0.09082,0.203726 -0.202433,0.810615 -0.248029,1.348644 -0.07797,0.919814 -0.986424,3.775997 -1.451512,4.563597 -0.116098,0.1966 -0.21328,0.45644 -0.215971,0.57742 -0.0054,0.2386 -1.19941,2.7947 -1.540135,3.29677 -0.115042,0.1695 -0.311137,0.54055 -0.435772,0.82453 -0.124636,0.28399 -0.436623,0.934 -0.693299,1.44448 -0.596345,1.18597 -0.683738,1.40558 -1.377897,3.46218 -0.31693,0.93901 -0.867418,2.25014 -1.22329,2.91362 -0.581216,1.08361 -0.882075,2.02371 -1.59217,4.97511 -0.120063,0.49901 -0.454772,1.38313 -0.743797,1.96472 -0.289026,0.58156 -0.604078,1.66566 -0.700117,2.4091 -0.09604,0.74343 -0.249959,1.44387 -0.342047,1.55653 -0.09208,0.11266 -0.294658,0.81203 -0.450159,1.55414 -0.155498,0.74211 -0.516505,1.88724 -0.802233,2.54474 -0.28573,0.65749 -0.690939,2.19698 -0.900465,3.42109 -0.209527,1.2241 -0.470041,2.55214 -0.57892,2.95117 -0.181131,0.66385 -0.519999,3.2609 -0.556231,4.26292 -0.0083,0.22922 0.07143,1.35715 0.177133,2.50651 0.205937,2.23908 0.408159,2.616 1.415355,2.63813 2.371904,0.0521 9.750574,-4.24493 17.517144,-10.20126 1.207959,-0.9264 2.448109,-1.8348 2.75588,-2.01866 1.629574,-0.97347 4.479196,-3.54213 4.497066,-4.05367 0.0044,-0.13365 0.393531,-0.53429 0.86413,-0.89032 0.7988,-0.60436 0.929959,-0.63639 1.974513,-0.4823 0.615382,0.0909 1.154957,0.27738 1.199051,0.41468 0.04411,0.1373 -0.175209,0.81558 -0.487348,1.50731 z"
       id="path1" /></g><script
     id="mesh_polyfill"
     type="text/javascript">
!function(){const t=&quot;http://www.w3.org/2000/svg&quot;,e=&quot;http://www.w3.org/1999/xlink&quot;,s=&quot;http://www.w3.org/1999/xhtml&quot;,r=2;if(document.createElementNS(t,&quot;meshgradient&quot;).x)return;const n=(t,e,s,r)=&gt;{let n=new x(.5*(e.x+s.x),.5*(e.y+s.y)),o=new x(.5*(t.x+e.x),.5*(t.y+e.y)),i=new x(.5*(s.x+r.x),.5*(s.y+r.y)),a=new x(.5*(n.x+o.x),.5*(n.y+o.y)),h=new x(.5*(n.x+i.x),.5*(n.y+i.y)),l=new x(.5*(a.x+h.x),.5*(a.y+h.y));return[[t,o,a,l],[l,h,i,r]]},o=t=&gt;{let e=t[0].distSquared(t[1]),s=t[2].distSquared(t[3]),r=.25*t[0].distSquared(t[2]),n=.25*t[1].distSquared(t[3]),o=e&gt;s?e:s,i=r&gt;n?r:n;return 18*(o&gt;i?o:i)},i=(t,e)=&gt;Math.sqrt(t.distSquared(e)),a=(t,e)=&gt;t.scale(2/3).add(e.scale(1/3)),h=t=&gt;{let e,s,r,n,o,i,a,h=new g;return t.match(/(\w+\(\s*[^)]+\))+/g).forEach(t=&gt;{let l=t.match(/[\w.-]+/g),d=l.shift();switch(d){case&quot;translate&quot;:2===l.length?e=new g(1,0,0,1,l[0],l[1]):(console.error(&quot;mesh.js: translate does not have 2 arguments!&quot;),e=new g(1,0,0,1,0,0)),h=h.append(e);break;case&quot;scale&quot;:1===l.length?s=new g(l[0],0,0,l[0],0,0):2===l.length?s=new g(l[0],0,0,l[1],0,0):(console.error(&quot;mesh.js: scale does not have 1 or 2 arguments!&quot;),s=new g(1,0,0,1,0,0)),h=h.append(s);break;case&quot;rotate&quot;:if(3===l.length&amp;&amp;(e=new g(1,0,0,1,l[1],l[2]),h=h.append(e)),l[0]){r=l[0]*Math.PI/180;let t=Math.cos(r),e=Math.sin(r);Math.abs(t)&lt;1e-16&amp;&amp;(t=0),Math.abs(e)&lt;1e-16&amp;&amp;(e=0),a=new g(t,e,-e,t,0,0),h=h.append(a)}else console.error(&quot;math.js: No argument to rotate transform!&quot;);3===l.length&amp;&amp;(e=new g(1,0,0,1,-l[1],-l[2]),h=h.append(e));break;case&quot;skewX&quot;:l[0]?(r=l[0]*Math.PI/180,n=Math.tan(r),o=new g(1,0,n,1,0,0),h=h.append(o)):console.error(&quot;math.js: No argument to skewX transform!&quot;);break;case&quot;skewY&quot;:l[0]?(r=l[0]*Math.PI/180,n=Math.tan(r),i=new g(1,n,0,1,0,0),h=h.append(i)):console.error(&quot;math.js: No argument to skewY transform!&quot;);break;case&quot;matrix&quot;:6===l.length?h=h.append(new g(...l)):console.error(&quot;math.js: Incorrect number of arguments for matrix!&quot;);break;default:console.error(&quot;mesh.js: Unhandled transform type: &quot;+d)}}),h},l=t=&gt;{let e=[],s=t.split(/[ ,]+/);for(let t=0,r=s.length-1;t&lt;r;t+=2)e.push(new x(parseFloat(s[t]),parseFloat(s[t+1])));return e},d=(t,e)=&gt;{for(let s in e)t.setAttribute(s,e[s])},c=(t,e,s,r,n)=&gt;{let o,i,a=[0,0,0,0];for(let h=0;h&lt;3;++h)e[h]&lt;t[h]&amp;&amp;e[h]&lt;s[h]||t[h]&lt;e[h]&amp;&amp;s[h]&lt;e[h]?a[h]=0:(a[h]=.5*((e[h]-t[h])/r+(s[h]-e[h])/n),o=Math.abs(3*(e[h]-t[h])/r),i=Math.abs(3*(s[h]-e[h])/n),a[h]&gt;o?a[h]=o:a[h]&gt;i&amp;&amp;(a[h]=i));return a},u=[[1,0,0,0,0,0,0,0,0,0,0,0,0,0,0,0],[0,0,0,0,1,0,0,0,0,0,0,0,0,0,0,0],[-3,3,0,0,-2,-1,0,0,0,0,0,0,0,0,0,0],[2,-2,0,0,1,1,0,0,0,0,0,0,0,0,0,0],[0,0,0,0,0,0,0,0,1,0,0,0,0,0,0,0],[0,0,0,0,0,0,0,0,0,0,0,0,1,0,0,0],[0,0,0,0,0,0,0,0,-3,3,0,0,-2,-1,0,0],[0,0,0,0,0,0,0,0,2,-2,0,0,1,1,0,0],[-3,0,3,0,0,0,0,0,-2,0,-1,0,0,0,0,0],[0,0,0,0,-3,0,3,0,0,0,0,0,-2,0,-1,0],[9,-9,-9,9,6,3,-6,-3,6,-6,3,-3,4,2,2,1],[-6,6,6,-6,-3,-3,3,3,-4,4,-2,2,-2,-2,-1,-1],[2,0,-2,0,0,0,0,0,1,0,1,0,0,0,0,0],[0,0,0,0,2,0,-2,0,0,0,0,0,1,0,1,0],[-6,6,6,-6,-4,-2,4,2,-3,3,-3,3,-2,-1,-2,-1],[4,-4,-4,4,2,2,-2,-2,2,-2,2,-2,1,1,1,1]],f=t=&gt;{let e=[];for(let s=0;s&lt;16;++s){e[s]=0;for(let r=0;r&lt;16;++r)e[s]+=u[s][r]*t[r]}return e},p=(t,e,s)=&gt;{const r=e*e,n=s*s,o=e*e*e,i=s*s*s;return t[0]+t[1]*e+t[2]*r+t[3]*o+t[4]*s+t[5]*s*e+t[6]*s*r+t[7]*s*o+t[8]*n+t[9]*n*e+t[10]*n*r+t[11]*n*o+t[12]*i+t[13]*i*e+t[14]*i*r+t[15]*i*o},y=t=&gt;{let e=[],s=[],r=[];for(let s=0;s&lt;4;++s)e[s]=[],e[s][0]=n(t[0][s],t[1][s],t[2][s],t[3][s]),e[s][1]=[],e[s][1].push(...n(...e[s][0][0])),e[s][1].push(...n(...e[s][0][1])),e[s][2]=[],e[s][2].push(...n(...e[s][1][0])),e[s][2].push(...n(...e[s][1][1])),e[s][2].push(...n(...e[s][1][2])),e[s][2].push(...n(...e[s][1][3]));for(let t=0;t&lt;8;++t){s[t]=[];for(let r=0;r&lt;4;++r)s[t][r]=[],s[t][r][0]=n(e[0][2][t][r],e[1][2][t][r],e[2][2][t][r],e[3][2][t][r]),s[t][r][1]=[],s[t][r][1].push(...n(...s[t][r][0][0])),s[t][r][1].push(...n(...s[t][r][0][1])),s[t][r][2]=[],s[t][r][2].push(...n(...s[t][r][1][0])),s[t][r][2].push(...n(...s[t][r][1][1])),s[t][r][2].push(...n(...s[t][r][1][2])),s[t][r][2].push(...n(...s[t][r][1][3]))}for(let t=0;t&lt;8;++t){r[t]=[];for(let e=0;e&lt;8;++e)r[t][e]=[],r[t][e][0]=s[t][0][2][e],r[t][e][1]=s[t][1][2][e],r[t][e][2]=s[t][2][2][e],r[t][e][3]=s[t][3][2][e]}return r};class x{constructor(t,e){this.x=t||0,this.y=e||0}toString(){return`(x=${this.x}, y=${this.y})`}clone(){return new x(this.x,this.y)}add(t){return new x(this.x+t.x,this.y+t.y)}scale(t){return void 0===t.x?new x(this.x*t,this.y*t):new x(this.x*t.x,this.y*t.y)}distSquared(t){let e=this.x-t.x,s=this.y-t.y;return e*e+s*s}transform(t){let e=this.x*t.a+this.y*t.c+t.e,s=this.x*t.b+this.y*t.d+t.f;return new x(e,s)}}class g{constructor(t,e,s,r,n,o){void 0===t?(this.a=1,this.b=0,this.c=0,this.d=1,this.e=0,this.f=0):(this.a=t,this.b=e,this.c=s,this.d=r,this.e=n,this.f=o)}toString(){return`affine: ${this.a} ${this.c} ${this.e} \n       ${this.b} ${this.d} ${this.f}`}append(t){t instanceof g||console.error(&quot;mesh.js: argument to Affine.append is not affine!&quot;);let e=this.a*t.a+this.c*t.b,s=this.b*t.a+this.d*t.b,r=this.a*t.c+this.c*t.d,n=this.b*t.c+this.d*t.d,o=this.a*t.e+this.c*t.f+this.e,i=this.b*t.e+this.d*t.f+this.f;return new g(e,s,r,n,o,i)}}class w{constructor(t,e){this.nodes=t,this.colors=e}paintCurve(t,e){if(o(this.nodes)&gt;r){const s=n(...this.nodes);let r=[[],[]],o=[[],[]];for(let t=0;t&lt;4;++t)r[0][t]=this.colors[0][t],r[1][t]=(this.colors[0][t]+this.colors[1][t])/2,o[0][t]=r[1][t],o[1][t]=this.colors[1][t];let i=new w(s[0],r),a=new w(s[1],o);i.paintCurve(t,e),a.paintCurve(t,e)}else{let s=Math.round(this.nodes[0].x);if(s&gt;=0&amp;&amp;s&lt;e){let r=4*(~~this.nodes[0].y*e+s);t[r]=Math.round(this.colors[0][0]),t[r+1]=Math.round(this.colors[0][1]),t[r+2]=Math.round(this.colors[0][2]),t[r+3]=Math.round(this.colors[0][3])}}}}class m{constructor(t,e){this.nodes=t,this.colors=e}split(){let t=[[],[],[],[]],e=[[],[],[],[]],s=[[[],[]],[[],[]]],r=[[[],[]],[[],[]]];for(let s=0;s&lt;4;++s){const r=n(this.nodes[0][s],this.nodes[1][s],this.nodes[2][s],this.nodes[3][s]);t[0][s]=r[0][0],t[1][s]=r[0][1],t[2][s]=r[0][2],t[3][s]=r[0][3],e[0][s]=r[1][0],e[1][s]=r[1][1],e[2][s]=r[1][2],e[3][s]=r[1][3]}for(let t=0;t&lt;4;++t)s[0][0][t]=this.colors[0][0][t],s[0][1][t]=this.colors[0][1][t],s[1][0][t]=(this.colors[0][0][t]+this.colors[1][0][t])/2,s[1][1][t]=(this.colors[0][1][t]+this.colors[1][1][t])/2,r[0][0][t]=s[1][0][t],r[0][1][t]=s[1][1][t],r[1][0][t]=this.colors[1][0][t],r[1][1][t]=this.colors[1][1][t];return[new m(t,s),new m(e,r)]}paint(t,e){let s,n=!1;for(let t=0;t&lt;4;++t)if((s=o([this.nodes[0][t],this.nodes[1][t],this.nodes[2][t],this.nodes[3][t]]))&gt;r){n=!0;break}if(n){let s=this.split();s[0].paint(t,e),s[1].paint(t,e)}else{new w([...this.nodes[0]],[...this.colors[0]]).paintCurve(t,e)}}}class b{constructor(t){this.readMesh(t),this.type=t.getAttribute(&quot;type&quot;)||&quot;bilinear&quot;}readMesh(t){let e=[[]],s=[[]],r=Number(t.getAttribute(&quot;x&quot;)),n=Number(t.getAttribute(&quot;y&quot;));e[0][0]=new x(r,n);let o=t.children;for(let t=0,r=o.length;t&lt;r;++t){e[3*t+1]=[],e[3*t+2]=[],e[3*t+3]=[],s[t+1]=[];let r=o[t].children;for(let n=0,o=r.length;n&lt;o;++n){let o=r[n].children;for(let r=0,i=o.length;r&lt;i;++r){let i=r;0!==t&amp;&amp;++i;let h,d=o[r].getAttribute(&quot;path&quot;),c=&quot;l&quot;;null!=d&amp;&amp;(c=(h=d.match(/\s*([lLcC])\s*(.*)/))[1]);let u=l(h[2]);switch(c){case&quot;l&quot;:0===i?(e[3*t][3*n+3]=u[0].add(e[3*t][3*n]),e[3*t][3*n+1]=a(e[3*t][3*n],e[3*t][3*n+3]),e[3*t][3*n+2]=a(e[3*t][3*n+3],e[3*t][3*n])):1===i?(e[3*t+3][3*n+3]=u[0].add(e[3*t][3*n+3]),e[3*t+1][3*n+3]=a(e[3*t][3*n+3],e[3*t+3][3*n+3]),e[3*t+2][3*n+3]=a(e[3*t+3][3*n+3],e[3*t][3*n+3])):2===i?(0===n&amp;&amp;(e[3*t+3][3*n+0]=u[0].add(e[3*t+3][3*n+3])),e[3*t+3][3*n+1]=a(e[3*t+3][3*n],e[3*t+3][3*n+3]),e[3*t+3][3*n+2]=a(e[3*t+3][3*n+3],e[3*t+3][3*n])):(e[3*t+1][3*n]=a(e[3*t][3*n],e[3*t+3][3*n]),e[3*t+2][3*n]=a(e[3*t+3][3*n],e[3*t][3*n]));break;case&quot;L&quot;:0===i?(e[3*t][3*n+3]=u[0],e[3*t][3*n+1]=a(e[3*t][3*n],e[3*t][3*n+3]),e[3*t][3*n+2]=a(e[3*t][3*n+3],e[3*t][3*n])):1===i?(e[3*t+3][3*n+3]=u[0],e[3*t+1][3*n+3]=a(e[3*t][3*n+3],e[3*t+3][3*n+3]),e[3*t+2][3*n+3]=a(e[3*t+3][3*n+3],e[3*t][3*n+3])):2===i?(0===n&amp;&amp;(e[3*t+3][3*n+0]=u[0]),e[3*t+3][3*n+1]=a(e[3*t+3][3*n],e[3*t+3][3*n+3]),e[3*t+3][3*n+2]=a(e[3*t+3][3*n+3],e[3*t+3][3*n])):(e[3*t+1][3*n]=a(e[3*t][3*n],e[3*t+3][3*n]),e[3*t+2][3*n]=a(e[3*t+3][3*n],e[3*t][3*n]));break;case&quot;c&quot;:0===i?(e[3*t][3*n+1]=u[0].add(e[3*t][3*n]),e[3*t][3*n+2]=u[1].add(e[3*t][3*n]),e[3*t][3*n+3]=u[2].add(e[3*t][3*n])):1===i?(e[3*t+1][3*n+3]=u[0].add(e[3*t][3*n+3]),e[3*t+2][3*n+3]=u[1].add(e[3*t][3*n+3]),e[3*t+3][3*n+3]=u[2].add(e[3*t][3*n+3])):2===i?(e[3*t+3][3*n+2]=u[0].add(e[3*t+3][3*n+3]),e[3*t+3][3*n+1]=u[1].add(e[3*t+3][3*n+3]),0===n&amp;&amp;(e[3*t+3][3*n+0]=u[2].add(e[3*t+3][3*n+3]))):(e[3*t+2][3*n]=u[0].add(e[3*t+3][3*n]),e[3*t+1][3*n]=u[1].add(e[3*t+3][3*n]));break;case&quot;C&quot;:0===i?(e[3*t][3*n+1]=u[0],e[3*t][3*n+2]=u[1],e[3*t][3*n+3]=u[2]):1===i?(e[3*t+1][3*n+3]=u[0],e[3*t+2][3*n+3]=u[1],e[3*t+3][3*n+3]=u[2]):2===i?(e[3*t+3][3*n+2]=u[0],e[3*t+3][3*n+1]=u[1],0===n&amp;&amp;(e[3*t+3][3*n+0]=u[2])):(e[3*t+2][3*n]=u[0],e[3*t+1][3*n]=u[1]);break;default:console.error(&quot;mesh.js: &quot;+c+&quot; invalid path type.&quot;)}if(0===t&amp;&amp;0===n||r&gt;0){let e=window.getComputedStyle(o[r]).stopColor.match(/^rgb\s*\(\s*(\d+)\s*,\s*(\d+)\s*,\s*(\d+)\s*\)$/i),a=window.getComputedStyle(o[r]).stopOpacity,h=255;a&amp;&amp;(h=Math.floor(255*a)),e&amp;&amp;(0===i?(s[t][n]=[],s[t][n][0]=Math.floor(e[1]),s[t][n][1]=Math.floor(e[2]),s[t][n][2]=Math.floor(e[3]),s[t][n][3]=h):1===i?(s[t][n+1]=[],s[t][n+1][0]=Math.floor(e[1]),s[t][n+1][1]=Math.floor(e[2]),s[t][n+1][2]=Math.floor(e[3]),s[t][n+1][3]=h):2===i?(s[t+1][n+1]=[],s[t+1][n+1][0]=Math.floor(e[1]),s[t+1][n+1][1]=Math.floor(e[2]),s[t+1][n+1][2]=Math.floor(e[3]),s[t+1][n+1][3]=h):3===i&amp;&amp;(s[t+1][n]=[],s[t+1][n][0]=Math.floor(e[1]),s[t+1][n][1]=Math.floor(e[2]),s[t+1][n][2]=Math.floor(e[3]),s[t+1][n][3]=h))}}e[3*t+1][3*n+1]=new x,e[3*t+1][3*n+2]=new x,e[3*t+2][3*n+1]=new x,e[3*t+2][3*n+2]=new x,e[3*t+1][3*n+1].x=(-4*e[3*t][3*n].x+6*(e[3*t][3*n+1].x+e[3*t+1][3*n].x)+-2*(e[3*t][3*n+3].x+e[3*t+3][3*n].x)+3*(e[3*t+3][3*n+1].x+e[3*t+1][3*n+3].x)+-1*e[3*t+3][3*n+3].x)/9,e[3*t+1][3*n+2].x=(-4*e[3*t][3*n+3].x+6*(e[3*t][3*n+2].x+e[3*t+1][3*n+3].x)+-2*(e[3*t][3*n].x+e[3*t+3][3*n+3].x)+3*(e[3*t+3][3*n+2].x+e[3*t+1][3*n].x)+-1*e[3*t+3][3*n].x)/9,e[3*t+2][3*n+1].x=(-4*e[3*t+3][3*n].x+6*(e[3*t+3][3*n+1].x+e[3*t+2][3*n].x)+-2*(e[3*t+3][3*n+3].x+e[3*t][3*n].x)+3*(e[3*t][3*n+1].x+e[3*t+2][3*n+3].x)+-1*e[3*t][3*n+3].x)/9,e[3*t+2][3*n+2].x=(-4*e[3*t+3][3*n+3].x+6*(e[3*t+3][3*n+2].x+e[3*t+2][3*n+3].x)+-2*(e[3*t+3][3*n].x+e[3*t][3*n+3].x)+3*(e[3*t][3*n+2].x+e[3*t+2][3*n].x)+-1*e[3*t][3*n].x)/9,e[3*t+1][3*n+1].y=(-4*e[3*t][3*n].y+6*(e[3*t][3*n+1].y+e[3*t+1][3*n].y)+-2*(e[3*t][3*n+3].y+e[3*t+3][3*n].y)+3*(e[3*t+3][3*n+1].y+e[3*t+1][3*n+3].y)+-1*e[3*t+3][3*n+3].y)/9,e[3*t+1][3*n+2].y=(-4*e[3*t][3*n+3].y+6*(e[3*t][3*n+2].y+e[3*t+1][3*n+3].y)+-2*(e[3*t][3*n].y+e[3*t+3][3*n+3].y)+3*(e[3*t+3][3*n+2].y+e[3*t+1][3*n].y)+-1*e[3*t+3][3*n].y)/9,e[3*t+2][3*n+1].y=(-4*e[3*t+3][3*n].y+6*(e[3*t+3][3*n+1].y+e[3*t+2][3*n].y)+-2*(e[3*t+3][3*n+3].y+e[3*t][3*n].y)+3*(e[3*t][3*n+1].y+e[3*t+2][3*n+3].y)+-1*e[3*t][3*n+3].y)/9,e[3*t+2][3*n+2].y=(-4*e[3*t+3][3*n+3].y+6*(e[3*t+3][3*n+2].y+e[3*t+2][3*n+3].y)+-2*(e[3*t+3][3*n].y+e[3*t][3*n+3].y)+3*(e[3*t][3*n+2].y+e[3*t+2][3*n].y)+-1*e[3*t][3*n].y)/9}}this.nodes=e,this.colors=s}paintMesh(t,e){let s=(this.nodes.length-1)/3,r=(this.nodes[0].length-1)/3;if(&quot;bilinear&quot;===this.type||s&lt;2||r&lt;2){let n;for(let o=0;o&lt;s;++o)for(let s=0;s&lt;r;++s){let r=[];for(let t=3*o,e=3*o+4;t&lt;e;++t)r.push(this.nodes[t].slice(3*s,3*s+4));let i=[];i.push(this.colors[o].slice(s,s+2)),i.push(this.colors[o+1].slice(s,s+2)),(n=new m(r,i)).paint(t,e)}}else{let n,o,a,h,l,d,u;const x=s,g=r;s++,r++;let w=new Array(s);for(let t=0;t&lt;s;++t){w[t]=new Array(r);for(let e=0;e&lt;r;++e)w[t][e]=[],w[t][e][0]=this.nodes[3*t][3*e],w[t][e][1]=this.colors[t][e]}for(let t=0;t&lt;s;++t)for(let e=0;e&lt;r;++e)0!==t&amp;&amp;t!==x&amp;&amp;(n=i(w[t-1][e][0],w[t][e][0]),o=i(w[t+1][e][0],w[t][e][0]),w[t][e][2]=c(w[t-1][e][1],w[t][e][1],w[t+1][e][1],n,o)),0!==e&amp;&amp;e!==g&amp;&amp;(n=i(w[t][e-1][0],w[t][e][0]),o=i(w[t][e+1][0],w[t][e][0]),w[t][e][3]=c(w[t][e-1][1],w[t][e][1],w[t][e+1][1],n,o));for(let t=0;t&lt;r;++t){w[0][t][2]=[],w[x][t][2]=[];for(let e=0;e&lt;4;++e)n=i(w[1][t][0],w[0][t][0]),o=i(w[x][t][0],w[x-1][t][0]),w[0][t][2][e]=n&gt;0?2*(w[1][t][1][e]-w[0][t][1][e])/n-w[1][t][2][e]:0,w[x][t][2][e]=o&gt;0?2*(w[x][t][1][e]-w[x-1][t][1][e])/o-w[x-1][t][2][e]:0}for(let t=0;t&lt;s;++t){w[t][0][3]=[],w[t][g][3]=[];for(let e=0;e&lt;4;++e)n=i(w[t][1][0],w[t][0][0]),o=i(w[t][g][0],w[t][g-1][0]),w[t][0][3][e]=n&gt;0?2*(w[t][1][1][e]-w[t][0][1][e])/n-w[t][1][3][e]:0,w[t][g][3][e]=o&gt;0?2*(w[t][g][1][e]-w[t][g-1][1][e])/o-w[t][g-1][3][e]:0}for(let s=0;s&lt;x;++s)for(let r=0;r&lt;g;++r){let n=i(w[s][r][0],w[s+1][r][0]),o=i(w[s][r+1][0],w[s+1][r+1][0]),c=i(w[s][r][0],w[s][r+1][0]),x=i(w[s+1][r][0],w[s+1][r+1][0]),g=[[],[],[],[]];for(let t=0;t&lt;4;++t){(d=[])[0]=w[s][r][1][t],d[1]=w[s+1][r][1][t],d[2]=w[s][r+1][1][t],d[3]=w[s+1][r+1][1][t],d[4]=w[s][r][2][t]*n,d[5]=w[s+1][r][2][t]*n,d[6]=w[s][r+1][2][t]*o,d[7]=w[s+1][r+1][2][t]*o,d[8]=w[s][r][3][t]*c,d[9]=w[s+1][r][3][t]*x,d[10]=w[s][r+1][3][t]*c,d[11]=w[s+1][r+1][3][t]*x,d[12]=0,d[13]=0,d[14]=0,d[15]=0,u=f(d);for(let e=0;e&lt;9;++e){g[t][e]=[];for(let s=0;s&lt;9;++s)g[t][e][s]=p(u,e/8,s/8),g[t][e][s]&gt;255?g[t][e][s]=255:g[t][e][s]&lt;0&amp;&amp;(g[t][e][s]=0)}}h=[];for(let t=3*s,e=3*s+4;t&lt;e;++t)h.push(this.nodes[t].slice(3*r,3*r+4));l=y(h);for(let s=0;s&lt;8;++s)for(let r=0;r&lt;8;++r)(a=new m(l[s][r],[[[g[0][s][r],g[1][s][r],g[2][s][r],g[3][s][r]],[g[0][s][r+1],g[1][s][r+1],g[2][s][r+1],g[3][s][r+1]]],[[g[0][s+1][r],g[1][s+1][r],g[2][s+1][r],g[3][s+1][r]],[g[0][s+1][r+1],g[1][s+1][r+1],g[2][s+1][r+1],g[3][s+1][r+1]]]])).paint(t,e)}}}transform(t){if(t instanceof x)for(let e=0,s=this.nodes.length;e&lt;s;++e)for(let s=0,r=this.nodes[0].length;s&lt;r;++s)this.nodes[e][s]=this.nodes[e][s].add(t);else if(t instanceof g)for(let e=0,s=this.nodes.length;e&lt;s;++e)for(let s=0,r=this.nodes[0].length;s&lt;r;++s)this.nodes[e][s]=this.nodes[e][s].transform(t)}scale(t){for(let e=0,s=this.nodes.length;e&lt;s;++e)for(let s=0,r=this.nodes[0].length;s&lt;r;++s)this.nodes[e][s]=this.nodes[e][s].scale(t)}}document.querySelectorAll(&quot;rect,circle,ellipse,path,text&quot;).forEach((r,n)=&gt;{let o=r.getAttribute(&quot;id&quot;);o||(o=&quot;patchjs_shape&quot;+n,r.setAttribute(&quot;id&quot;,o));const i=r.style.fill.match(/^url\(\s*&quot;?\s*#([^\s&quot;]+)&quot;?\s*\)/),a=r.style.stroke.match(/^url\(\s*&quot;?\s*#([^\s&quot;]+)&quot;?\s*\)/);if(i&amp;&amp;i[1]){const a=document.getElementById(i[1]);if(a&amp;&amp;&quot;meshgradient&quot;===a.nodeName){const i=r.getBBox();let l=document.createElementNS(s,&quot;canvas&quot;);d(l,{width:i.width,height:i.height});const c=l.getContext(&quot;2d&quot;);let u=c.createImageData(i.width,i.height);const f=new b(a);&quot;objectBoundingBox&quot;===a.getAttribute(&quot;gradientUnits&quot;)&amp;&amp;f.scale(new x(i.width,i.height));const p=a.getAttribute(&quot;gradientTransform&quot;);null!=p&amp;&amp;f.transform(h(p)),&quot;userSpaceOnUse&quot;===a.getAttribute(&quot;gradientUnits&quot;)&amp;&amp;f.transform(new x(-i.x,-i.y)),f.paintMesh(u.data,l.width),c.putImageData(u,0,0);const y=document.createElementNS(t,&quot;image&quot;);d(y,{width:i.width,height:i.height,x:i.x,y:i.y});let g=l.toDataURL();y.setAttributeNS(e,&quot;xlink:href&quot;,g),r.parentNode.insertBefore(y,r),r.style.fill=&quot;none&quot;;const w=document.createElementNS(t,&quot;use&quot;);w.setAttributeNS(e,&quot;xlink:href&quot;,&quot;#&quot;+o);const m=&quot;patchjs_clip&quot;+n,M=document.createElementNS(t,&quot;clipPath&quot;);M.setAttribute(&quot;id&quot;,m),M.appendChild(w),r.parentElement.insertBefore(M,r),y.setAttribute(&quot;clip-path&quot;,&quot;url(#&quot;+m+&quot;)&quot;),u=null,l=null,g=null}}if(a&amp;&amp;a[1]){const o=document.getElementById(a[1]);if(o&amp;&amp;&quot;meshgradient&quot;===o.nodeName){const i=parseFloat(r.style.strokeWidth.slice(0,-2))*(parseFloat(r.style.strokeMiterlimit)||parseFloat(r.getAttribute(&quot;stroke-miterlimit&quot;))||1),a=r.getBBox(),l=Math.trunc(a.width+i),c=Math.trunc(a.height+i),u=Math.trunc(a.x-i/2),f=Math.trunc(a.y-i/2);let p=document.createElementNS(s,&quot;canvas&quot;);d(p,{width:l,height:c});const y=p.getContext(&quot;2d&quot;);let g=y.createImageData(l,c);const w=new b(o);&quot;objectBoundingBox&quot;===o.getAttribute(&quot;gradientUnits&quot;)&amp;&amp;w.scale(new x(l,c));const m=o.getAttribute(&quot;gradientTransform&quot;);null!=m&amp;&amp;w.transform(h(m)),&quot;userSpaceOnUse&quot;===o.getAttribute(&quot;gradientUnits&quot;)&amp;&amp;w.transform(new x(-u,-f)),w.paintMesh(g.data,p.width),y.putImageData(g,0,0);const M=document.createElementNS(t,&quot;image&quot;);d(M,{width:l,height:c,x:0,y:0});let S=p.toDataURL();M.setAttributeNS(e,&quot;xlink:href&quot;,S);const k=&quot;pattern_clip&quot;+n,A=document.createElementNS(t,&quot;pattern&quot;);d(A,{id:k,patternUnits:&quot;userSpaceOnUse&quot;,width:l,height:c,x:u,y:f}),A.appendChild(M),o.parentNode.appendChild(A),r.style.stroke=&quot;url(#&quot;+k+&quot;)&quot;,g=null,p=null,S=null}}})}();
</script></svg>
