<?xml version="1.0" encoding="UTF-8" standalone="no"?>
<!-- Created with Inkscape (http://www.inkscape.org/) -->

<svg
   width="1152"
   height="1152"
   viewBox="0 0 304.79999 304.8"
   version="1.1"
   id="svg1"
   xml:space="preserve"
   inkscape:version="1.4.3 (0d15f75042, 2025-12-25)"
   sodipodi:docname="icon1152.svg"
   inkscape:export-filename="codex/exp_3/src/assets/splash_android.png"
   inkscape:export-xdpi="96"
   inkscape:export-ydpi="96"
   xmlns:inkscape="http://www.inkscape.org/namespaces/inkscape"
   xmlns:sodipodi="http://sodipodi.sourceforge.net/DTD/sodipodi-0.dtd"
   xmlns="http://www.w3.org/2000/svg"
   xmlns:svg="http://www.w3.org/2000/svg"><sodipodi:namedview
     id="namedview1"
     pagecolor="#505050"
     bordercolor="#eeeeee"
     borderopacity="1"
     inkscape:showpageshadow="true"
     inkscape:pageopacity="0"
     inkscape:pagecheckerboard="true"
     inkscape:deskcolor="#505050"
     inkscape:document-units="mm"
     labelstyle="default"
     inkscape:clip-to-page="false"
     inkscape:zoom="0.49575348"
     inkscape:cx="131.11355"
     inkscape:cy="749.36439"
     inkscape:window-width="1920"
     inkscape:window-height="1011"
     inkscape:window-x="0"
     inkscape:window-y="0"
     inkscape:window-maximized="1"
     inkscape:current-layer="layer1" /><defs
     id="defs1"><inkscape:path-effect
       effect="fillet_chamfer"
       id="path-effect17"
       is_visible="true"
       lpeversion="1"
       nodesatellites_param="F,0,0,1,0,1.3229166,0,1 @ F,0,0,1,0,1.3229166,0,1 @ F,0,0,1,0,1.3229166,0,1 @ F,0,0,1,0,1.3229166,0,1 @ F,0,0,1,0,1.3229166,0,1 @ F,0,0,1,0,1.3229166,0,1 @ F,0,0,1,0,1.3229166,0,1 @ F,0,0,1,0,1.3229166,0,1 @ F,0,0,1,0,1.3229166,0,1 @ F,0,0,1,0,1.3229166,0,1 @ F,0,0,1,0,1.3229166,0,1 @ F,0,0,1,0,1.3229166,0,1 @ F,0,0,1,0,1.3229166,0,1 @ F,0,0,1,0,1.3229166,0,1 @ F,0,0,1,0,1.3229166,0,1 @ F,0,0,1,0,1.3229166,0,1 @ F,0,0,1,0,1.3229166,0,1 @ F,0,0,1,0,1.3229166,0,1 @ F,0,0,1,0,1.3229166,0,1 @ F,0,0,1,0,1.3229166,0,1 @ F,0,0,1,0,1.3229166,0,1 @ F,0,0,1,0,1.3229166,0,1 @ F,0,0,1,0,1.3229166,0,1 @ F,0,0,1,0,1.3229166,0,1 @ F,0,0,1,0,1.3229166,0,1 @ F,0,0,1,0,1.3229166,0,1 @ F,0,0,1,0,1.3229166,0,1 @ F,0,0,1,0,1.3229166,0,1 @ F,0,0,1,0,1.3229166,0,1 @ F,0,0,1,0,1.3229166,0,1 @ F,0,0,1,0,1.3229166,0,1 @ F,0,0,1,0,1.3229166,0,1 @ F,0,0,1,0,1.3229166,0,1 @ F,0,0,1,0,1.3229166,0,1 @ F,0,0,1,0,1.3229166,0,1 @ F,0,0,1,0,1.3229166,0,1 @ F,0,0,1,0,1.3229166,0,1"
       radius="5"
       unit="px"
       method="auto"
       mode="F"
       chamfer_steps="1"
       flexible="false"
       use_knot_distance="true"
       apply_no_radius="true"
       apply_with_radius="true"
       only_selected="false"
       hide_knots="false" /><inkscape:path-effect
       effect="fillet_chamfer"
       id="path-effect10"
       is_visible="true"
       lpeversion="1"
       nodesatellites_param="F,0,0,1,0,1.3229166,0,1 @ F,0,0,1,0,1.3229166,0,1 @ F,0,0,1,0,1.3229166,0,1 @ F,0,0,1,0,1.3229166,0,1 @ F,0,0,1,0,1.3229166,0,1 @ F,0,0,1,0,1.3229166,0,1 @ F,0,0,1,0,1.3229166,0,1 @ F,0,0,1,0,1.3229166,0,1 @ F,0,0,1,0,1.3229166,0,1 @ F,0,0,1,0,1.3229166,0,1 @ F,0,0,1,0,1.3229166,0,1 @ F,0,0,1,0,1.3229166,0,1 @ F,0,0,1,0,1.3229166,0,1 @ F,0,0,1,0,1.3229166,0,1 @ F,0,0,1,0,1.3229166,0,1 @ F,0,0,1,0,1.3229166,0,1 @ F,0,0,1,0,1.3229166,0,1 @ F,0,0,1,0,1.3229166,0,1 @ F,0,0,1,0,1.3229166,0,1 @ F,0,0,1,0,1.3229166,0,1 @ F,0,0,1,0,1.3229166,0,1 @ F,0,0,1,0,1.3229166,0,1 @ F,0,0,1,0,1.3229166,0,1 @ F,0,0,1,0,1.3229166,0,1 @ F,0,0,1,0,1.3229166,0,1 @ F,0,0,1,0,1.3229166,0,1 @ F,0,0,1,0,1.3229166,0,1 @ F,0,0,1,0,1.3229166,0,1 @ F,0,0,1,0,1.3229166,0,1 @ F,0,0,1,0,1.3229166,0,1 @ F,0,0,1,0,1.3229166,0,1 @ F,0,0,1,0,1.3229166,0,1 @ F,0,0,1,0,1.3229166,0,1 @ F,0,0,1,0,1.3229166,0,1 @ F,0,0,1,0,1.3229166,0,1 @ F,0,0,1,0,1.3229166,0,1 @ F,0,0,1,0,1.3229166,0,1"
       radius="5"
       unit="px"
       method="auto"
       mode="F"
       chamfer_steps="1"
       flexible="false"
       use_knot_distance="true"
       apply_no_radius="true"
       apply_with_radius="true"
       only_selected="false"
       hide_knots="false" /><rect
       x="625.74371"
       y="343.74491"
       width="3.6009733"
       height="209.67013"
       id="rect7" /><rect
       x="625.74371"
       y="343.74491"
       width="3.6009733"
       height="362.28717"
       id="rect6" /></defs><g
     inkscape:label="图层 1"
     inkscape:groupmode="layer"
     id="layer1"><g
       id="g23"
       transform="matrix(0.59233343,-0.7020473,0.7020473,0.59233343,-22.565089,199.1924)"
       style="stroke:#4a0909;stroke-width:0.1;stroke-dasharray:none;stroke-opacity:1"><path
         id="path12"
         style="baseline-shift:baseline;display:inline;overflow:visible;opacity:1;mix-blend-mode:normal;fill:#fe0707;stroke:#4a0909;stroke-width:0.1;stroke-dasharray:none;stroke-opacity:1;enable-background:accumulate;stop-color:#000000;stop-opacity:1"
         d="m 47.573324,30.176969 c -0.321115,0.0079 -0.586973,0.232468 -0.80977,0.445968 -0.3461,0.608111 0.229141,1.220699 0.499711,1.750281 4.543211,8.146082 9.552632,16.017402 14.504024,23.92102 a 2.4683597,2.4683597 0 0 1 1.623674,-0.782381 C 58.454407,47.63047 53.445857,39.790293 48.862651,31.697807 c -0.4089,-0.485262 -0.498095,-1.433571 -1.224215,-1.520321 v 5.17e-4 c -0.0219,-0.0015 -0.0437,-0.0016 -0.06511,-0.001 z M 65.70555,59.222742 a 2.4683597,2.4683597 0 0 1 -1.415934,1.113627 c 4.742066,7.642681 9.346745,15.364189 13.343888,23.440946 1.999186,3.947422 3.718995,8.023979 5.361947,12.130009 a 2.4683597,2.4683597 0 0 1 1.548226,-0.762744 c -0.01984,-0.05121 -0.03932,-0.102684 -0.05891,-0.153996 -2.08653,-5.312208 -4.430269,-10.523129 -7.083289,-15.578377 -3.5986,-6.9059 -7.594712,-13.578137 -11.695928,-20.189465 z m 20.774959,40.177392 a 2.4683597,2.4683597 0 0 1 -1.601969,0.667146 c 2.194945,4.29897 4.616687,8.48359 6.811987,12.78371 3.56489,6.94107 6.796571,14.20269 8.154541,21.90203 0.119854,0.69862 0.225772,1.4005 0.315742,2.10478 a 2.4683597,2.4683597 0 0 1 1.0418,-0.231 2.4683597,2.4683597 0 0 1 0.79116,0.13023 c -0.12749,-1.06569 -0.29102,-2.12554 -0.48627,-3.17604 -1.868308,-9.56328 -6.371083,-18.32839 -11.001913,-26.80663 -1.316003,-2.46254 -2.750941,-4.88466 -4.025078,-7.374226 z m 15.824361,41.903906 a 2.4683597,2.4683597 0 0 1 -1.10226,0.25993 2.4683597,2.4683597 0 0 1 -0.69608,-0.10025 c 0.0414,2.13885 -0.0928,4.28098 -0.44804,6.40167 -0.557053,3.65563 -2.272347,6.97968 -4.104657,10.14254 -3.57384,6.20604 -8.139133,11.84452 -11.270113,18.32601 -1.75237,3.78009 -3.483947,7.57871 -4.906677,11.49801 -2.64955,7.45317 -4.171154,15.48898 -3.445268,23.39857 a 2.4683597,2.4683597 0 0 1 0.854728,-0.15245 2.4683597,2.4683597 0 0 1 0.897103,0.16898 c -0.236686,-2.49036 -0.242262,-5.00825 -0.05478,-7.49876 0.56059,-7.53526 2.927303,-14.98695 6.046143,-21.8736 2.51885,-6.32411 6.456306,-11.92136 10.177156,-17.57309 2.65242,-4.13704 5.353569,-8.34838 6.816645,-13.07931 0.92003,-3.22423 1.28563,-6.57088 1.2361,-9.91825 z m -23.582027,74.17428 a 2.4683597,2.4683597 0 0 1 -1.53634,0.5364 2.4683597,2.4683597 0 0 1 -0.132292,-0.004 c 0.97821,4.61962 2.904093,9.03434 5.673039,12.86227 0.85851,1.2325 1.984354,2.24663 3.302124,2.96674 8.1628,4.74386 14.769836,11.60328 21.382156,18.233 6.55792,6.59197 13.33607,13.25762 21.72736,17.48369 1.55907,0.80211 3.17084,1.48944 4.82038,2.06705 a 2.4683597,2.4683597 0 0 1 -5.2e-4,-0.0553 2.4683597,2.4683597 0 0 1 0.58498,-1.59577 c -4.04347,-1.44779 -7.87289,-3.57155 -11.31559,-6.05234 -9.58314,-6.95361 -17.07412,-16.35689 -26.034073,-24.08897 -3.01673,-2.56291 -6.133681,-5.04942 -9.585461,-7.00629 -2.44616,-1.28488 -4.046631,-3.63743 -5.369181,-5.98207 -1.687289,-2.92793 -2.828884,-6.09357 -3.516582,-9.3648 z m 120.928017,46.60284 c -0.81245,0.0127 -1.62522,0.0576 -2.43654,0.10025 -11.33844,0.62084 -22.18733,4.2255 -33.25534,6.427 -7.58222,1.5082 -15.46463,2.3311 -23.16137,0.99736 -0.64491,-0.10491 -1.2871,-0.22966 -1.92547,-0.37259 a 2.4683597,2.4683597 0 0 1 0.0233,0.33538 2.4683597,2.4683597 0 0 1 -0.40359,1.35237 c 2.88937,0.65252 5.84964,1.00527 8.80876,1.08572 10.08991,0.32862 19.94056,-2.27404 29.67726,-4.57388 7.75692,-1.85686 15.62479,-3.51884 23.5846,-3.59254 0.92806,0.0392 1.38516,-0.88021 1.52343,-1.66605 -0.8104,-0.0862 -1.62254,-0.10573 -2.435,-0.093 z" /><ellipse
         style="fill:#ff0000;fill-opacity:1;stroke:#4a0909;stroke-width:0.1;stroke-dasharray:none;stroke-opacity:1"
         id="path17"
         cx="-46.068733"
         cy="28.453619"
         rx="0.43749002"
         ry="0.2225565"
         transform="scale(-1,1)" /><ellipse
         style="fill:#ff0000;fill-opacity:1;stroke:#4a0909;stroke-width:0.1;stroke-dasharray:none;stroke-opacity:1"
         id="ellipse17"
         cx="-204.57745"
         cy="263.28134"
         rx="0.43749002"
         ry="0.2225565"
         transform="scale(-1,1)" /><ellipse
         style="fill:#ff0000;fill-opacity:1;stroke:#4a0909;stroke-width:0.1;stroke-dasharray:none;stroke-opacity:1"
         id="ellipse18"
         cx="-136.45992"
         cy="269.50815"
         rx="0.43749002"
         ry="0.2225565"
         transform="scale(-1,1)" /><ellipse
         style="fill:#ff0000;fill-opacity:1;stroke:#4a0909;stroke-width:0.1;stroke-dasharray:none;stroke-opacity:1"
         id="ellipse19"
         cx="-77.399559"
         cy="213.46686"
         rx="0.43749002"
         ry="0.2225565"
         transform="scale(-1,1)" /><ellipse
         style="fill:#ff0000;fill-opacity:1;stroke:#4a0909;stroke-width:0.1;stroke-dasharray:none;stroke-opacity:1"
         id="ellipse20"
         cx="-101.34045"
         cy="139.25594"
         rx="0.43749002"
         ry="0.2225565"
         transform="scale(-1,1)" /><ellipse
         style="fill:#ff0000;fill-opacity:1;stroke:#4a0909;stroke-width:0.1;stroke-dasharray:none;stroke-opacity:1"
         id="ellipse21"
         cx="-84.735626"
         cy="97.633339"
         rx="0.43749002"
         ry="0.2225565"
         transform="scale(-1,1)" /><ellipse
         style="fill:#ff0000;fill-opacity:1;stroke:#4a0909;stroke-width:0.1;stroke-dasharray:none;stroke-opacity:1"
         id="ellipse22"
         cx="-63.625099"
         cy="57.985287"
         rx="0.43749002"
         ry="0.2225565"
         transform="scale(-1,1)" /><path
         d="m 4.924248,192.87597 c 4.083647,1.89249 -6.649015,2.66748 -0.869275,0.86129 0.359952,-0.0919 1.195946,-0.30048 0.869275,-0.86129 z m -5.90752298,0.55855 c 1.50581498,-0.21121 0.679332,3.41842 1.137288,3.11009 -1.69212802,1.04317 0.282572,2.62733 -0.0272,1.97985 -1.51645902,0.94788 0.34337598,6.99087 -2.10234102,4.05063 2.07351702,-1.16868 -0.173145,-2.74387 -1.160546,-0.6485 1.769599,-2.33764 2.36200402,-4.10771 0.309153,-3.91686 1.49879,-1.28433 2.28302702,-2.7084 1.84364602,-4.57521 z m 6.65006998,1.49824 c 3.34675,1.81829 -3.461651,5.54242 2.412957,5.26847 -1.851017,-0.4641 -5.072076,3.2323 -1.875959,2.25468 1.498611,-3.43202 2.319299,3.11688 -0.70938,1.13724 -1.683082,-0.72622 -4.724261,2.45177 -3.359752,-0.90559 1.20777,-0.84774 1.548413,1.80894 2.185927,-0.76265 -0.354763,-2.09726 -5.992869,1.13455 -2.430276,-0.95495 1.76359,-0.46335 3.484149,-2.20836 0.357658,-1.65982 1.571899,-0.88679 4.481618,-2.07098 3.418825,-4.37738 z m -2.48392,0.18399 c 1.372582,0.46925 2.490868,1.73415 0.246652,1.47726 -0.314982,-0.43029 -0.249519,-0.98191 -0.246652,-1.47726 z m -2.365637,0.80827 c 3.994368,0.78597 -0.301191,3.43218 0,0 z m 15.777489,-2.67449 c 2.031876,0.17576 0.460761,5.16666 2.539033,2.17507 2.12588,1.17122 -3.976263,3.78955 0.611228,2.43502 3.134794,1.04702 -3.30408,0.51661 -3.333015,2.71275 -0.172476,1.71655 -4.545689,4.99969 -3.33004,2.14752 2.500032,-1.89568 1.873341,-3.24523 -0.745609,-2.32207 -0.284162,-1.89565 5.736722,-0.4744 4.137721,-3.20247 -1.763331,2.38497 -2.702432,-1.36244 -0.06343,-0.91816 1.094066,-0.85454 -0.297219,-2.34852 0.184107,-3.02766 z m 0.933113,6.03238 c 1.72182,1.74259 1.326159,6.954 5.374075,3.80591 2.358161,-0.99235 0.06937,2.50294 -1.860201,1.56553 -3.882003,0.53773 -3.685603,-2.73343 -3.513874,-5.37144 z"
         id="text23"
         style="font-size:30.2519px;font-family:'SentyZHAO 新蒂赵孟頫';-inkscape-font-specification:'SentyZHAO 新蒂赵孟頫, Normal';fill:#ffb500;stroke:#4a0909;stroke-width:0.1;stroke-dasharray:none;stroke-opacity:1"
         aria-label="摇光"
         transform="rotate(49.844905,202.03999,146.08784)" /><path
         d="m 38.624105,200.32672 c 3.116231,0.004 -1.434577,2.74727 2.322976,2.98867 1.824379,1.35638 -3.110912,1.46966 -1.104795,3.90705 1.398598,1.46021 0.297289,6.4912 -1.134413,2.86692 0.564118,-1.61798 -0.35671,-7.35843 -1.525515,-3.46531 0.02869,2.15284 -5.271787,5.84305 -2.344368,1.71747 1.564919,-2.24137 -1.475014,-3.54228 0.851297,-4.50044 -0.205793,-2.88821 3.156354,1.50444 2.155465,-1.12096 -4.463549,-1.26975 -1.227837,-0.74597 0.779353,-2.3934 z m 11.447058,0.49941 c 2.409822,0.40051 -2.129953,3.36857 0.80826,3.98216 -2.319857,2.6476 -1.807019,-2.05426 -2.314457,-3.18327 0.469439,-0.32522 0.995787,-0.54953 1.506197,-0.79889 z m 5.473823,1.36682 c 2.227756,1.52765 1.499671,5.81348 0.819436,7.68781 -1.746563,-0.33078 -1.59388,-1.71641 -0.942621,-1.55397 -3.082807,1.57559 -4.692315,-2.76188 -2.91279,-4.40678 0.506316,2.26566 4.047922,0.39764 1.249637,2.98937 1.419646,2.49509 3.420543,-4.60092 -0.0048,-3.0627 -0.116119,-0.94352 0.823575,-1.90462 1.791168,-1.65373 z m -8.023455,1.18281 c 0.626675,2.14318 2.018805,5.09711 0.447292,7.19848 -2.376567,-0.38141 -0.3403,-5.37616 -0.447292,-7.19848 z"
         id="text24"
         style="font-size:30.2519px;font-family:'SentyZHAO 新蒂赵孟頫';-inkscape-font-specification:'SentyZHAO 新蒂赵孟頫, Normal';fill:#ffb500;stroke:#4a0909;stroke-width:0.1;stroke-dasharray:none;stroke-opacity:1"
         aria-label="开阳"
         transform="rotate(49.844905,202.03999,146.08784)" /><path
         d="m 82.122468,207.97564 c 2.996809,1.01649 -4.56817,2.50152 -0.265478,3.39792 2.687433,0.88636 -3.337956,3.54891 0.601993,3.2355 2.548414,-0.82738 3.251358,1.78697 0.519542,1.13293 -1.501954,0.73175 -7.313428,1.1695 -5.814961,0.33943 2.779834,0.0297 2.699101,-2.99861 0.228645,-3.07462 2.362228,-1.01998 2.795634,-3.03771 0.149664,-3.8479 1.409712,-0.65986 3.097436,-0.63141 4.580595,-1.18326 z m 2.674485,3.73245 c 3.707904,0.49977 0.229672,3.72847 0,0 z m 9.764826,-4.75756 c 0.841817,2.48557 -2.183401,2.52401 0,0 z m -2.181643,0.19056 c 2.099444,1.23792 -3.040836,3.61556 -0.202939,0.60166 0.06765,-0.20055 0.135293,-0.4011 0.202939,-0.60166 z m 3.607597,0.12486 c 0.850219,1.55255 1.868353,4.9754 1.005901,5.91719 -2.01037,-0.5546 1.495002,2.78681 -1.193188,0.81137 -0.115852,-1.6203 -2.546074,2.33029 -1.304379,-0.51219 -3.840689,0.63234 2.071598,-0.91854 0.482984,-3.10784 0.614228,-1.16163 1.477608,2.44479 1.0342,-0.82592 -1.429758,-0.86164 -2.279071,0.74356 -0.243323,-1.55532 l 0.179538,-0.35321 z m 2.924191,1.55081 c 3.186096,0.70351 -2.458172,1.35914 -0.591297,0.20396 z m -5.224116,0.49941 c 1.55804,1.64275 -0.814363,5.41456 -0.399329,1.55821 0.03783,-0.53094 0.02982,-1.12425 0.399329,-1.55821 z m -1.425954,0.49941 c 0.05253,1.65634 0.02276,4.40586 -0.539566,5.67283 -0.943572,-1.77222 0.624452,-4.59057 -1.622207,-1.97703 0.39213,-1.3365 1.544574,-2.43537 2.161773,-3.6958 z m 8.450586,0.61769 c 2.53962,1.23514 -2.743321,0.46865 -0.44324,2.52842 -0.013,1.49739 1.05177,5.78841 -1.790976,4.49622 2.873526,-1.63965 -0.06269,-6.56327 -0.944909,-6.13113 1.094559,-0.16931 2.058199,-0.84664 3.179125,-0.89351 z m -5.158407,1.92537 c 0.21264,1.11891 0.964477,-2.38254 0,0 z"
         id="text25"
         style="font-size:30.2519px;font-family:'SentyZHAO 新蒂赵孟頫';-inkscape-font-specification:'SentyZHAO 新蒂赵孟頫, Normal';fill:#ffb500;stroke:#4a0909;stroke-width:0.1;stroke-dasharray:none;stroke-opacity:1"
         aria-label="玉衡"
         transform="rotate(49.844905,202.03999,146.08784)" /><path
         d="m 125.94296,220.99267 c 4.31941,2.31369 -7.92813,3.25728 -2.60375,0.86544 0.85751,-0.31848 1.72382,-0.61475 2.60375,-0.86544 z m -1.47853,2.62849 c 0.60768,1.92833 0.81186,2.39421 2.78114,1.06686 2.53323,1.15768 -3.76739,1.49373 -0.64778,3.43513 1.5046,1.28072 7.7878,3.389 2.48124,2.85679 -2.76465,0.16744 -4.09062,-6.08614 -5.50411,-1.2119 -0.26469,2.21698 -4.59797,1.84388 -1.53552,0.1132 2.67077,-2.47631 -0.0184,-1.81531 -0.75893,-2.11803 0.86825,-1.52019 3.74218,-1.84042 3.18396,-4.14205 z m 11.48649,-1.99108 c 0.9551,0.187 2.24632,2.90289 1.55902,2.49948 -1.25487,1.39073 1.48446,2.34582 -0.64389,2.73528 0.52719,1.52462 -0.6385,5.45842 -0.90597,2.09812 1.08693,-3.52208 -1.49103,-0.51281 -1.95963,-0.22689 1.96922,-2.38248 1.8702,-4.04759 -0.18943,-2.97989 1.08907,-0.90483 3.73999,-2.48688 2.1399,-4.1261 z m 6.84064,1.42595 c 1.02335,1.81262 -2.83209,4.95515 1.31571,5.18198 4.29743,2.01429 -2.17652,1.21683 -2.97542,-0.80593 -1.12145,0.186 -4.58676,2.82198 -2.02054,0.23149 3.45163,-1.42757 -2.72993,-4.17567 0.9356,-2.53564 1.92939,1.3842 2.82105,-1.25864 0.65916,-1.11805 0.38262,-0.69124 1.368,-0.87361 2.08549,-0.95385 z"
         id="text26"
         style="font-size:30.2519px;font-family:'SentyZHAO 新蒂赵孟頫';-inkscape-font-specification:'SentyZHAO 新蒂赵孟頫, Normal';fill:#ffb500;stroke:#4a0909;stroke-width:0.1;stroke-dasharray:none;stroke-opacity:1"
         aria-label="天权"
         transform="rotate(49.844905,202.03999,146.08784)" /><path
         d="m 167.83836,283.49775 c 4.31941,2.31368 -7.92813,3.25729 -2.60374,0.86544 0.8575,-0.31848 1.72381,-0.61474 2.60374,-0.86544 z m -1.47852,2.62849 c 0.60768,1.92833 0.81186,2.3942 2.78113,1.06685 2.53323,1.15768 -3.76739,1.49374 -0.64778,3.43514 1.5046,1.28072 7.7878,3.389 2.48125,2.85679 -2.76466,0.16745 -4.09062,-6.08614 -5.50412,-1.2119 -0.26469,2.21698 -4.59796,1.84389 -1.53551,0.1132 2.67076,-2.4763 -0.0184,-1.81531 -0.75894,-2.11803 0.86825,-1.52019 3.74219,-1.84041 3.18397,-4.14205 z m 12.45245,-1.22225 c 1.5689,0.3504 -2.09843,2.09535 0.3099,3.04024 0.91339,1.95261 -0.50799,3.82268 -2.38365,3.884 1.36467,-1.19384 -1.50061,-2.73366 1.02054,-4.15552 0.89134,-1.91395 -3.33447,-1.29167 0.0384,-2.45352 0.32748,-0.13405 0.67876,-0.20473 1.01482,-0.3152 z m 4.475,0.12486 c 0.92685,1.89362 -1.30781,7.33825 2.67777,5.78102 0.56301,-3.7641 2.05157,3.51101 -1.06885,1.351 -3.58057,0.0943 -2.16265,-5.90949 -2.01793,-6.96009 l 0.22018,-0.0926 z m -2.29993,0.62426 c 2.3516,1.53527 -1.94135,7.95557 -0.0221,2.55579 0.2023,-0.82083 0.47891,-1.75299 0.0221,-2.55579 z m -2.35906,2.79277 c -0.64853,1.19631 0.65011,0.61906 0,0 z m -1.68223,0.87397 c 0.80783,2.60158 1.6635,-1.94453 0.12022,-0.14735 z"
         id="text27"
         style="font-size:30.2519px;font-family:'SentyZHAO 新蒂赵孟頫';-inkscape-font-specification:'SentyZHAO 新蒂赵孟頫, Normal';fill:#ffb500;stroke:#4a0909;stroke-width:0.1;stroke-dasharray:none;stroke-opacity:1"
         aria-label="天玑"
         transform="rotate(49.844905,202.03999,146.08784)" /><path
         d="m 248.69382,275.96847 c 4.31941,2.31369 -7.92813,3.25729 -2.60374,0.86545 0.8575,-0.31849 1.72381,-0.61475 2.60374,-0.86545 z m -1.47852,2.62849 c 0.60768,1.92834 0.81185,2.39421 2.78113,1.06686 2.53323,1.15768 -3.76739,1.49373 -0.64778,3.43513 1.5046,1.28072 7.7878,3.38901 2.48125,2.8568 -2.76466,0.16744 -4.09063,-6.08615 -5.50412,-1.21191 -0.26469,2.21698 -4.59796,1.84389 -1.53552,0.1132 2.67076,-2.4763 -0.0184,-1.81531 -0.75893,-2.11802 0.86825,-1.5202 3.74218,-1.84042 3.18397,-4.14206 z m 16.96031,-1.87279 c 0.91313,1.41325 0.35117,2.19113 2.44967,1.70284 -0.87896,0.44054 -2.88994,2.0195 -3.57177,2.25546 -0.10791,-1.38112 0.62066,-2.71031 1.1221,-3.9583 z m -3.10819,0.0657 c 3.09069,1.59787 0.22122,4.02482 0.9666,7.15451 -0.94339,2.1143 -2.06193,0.10556 -3.22963,0.53233 0.73834,-0.76368 3.9651,-5.49962 0.65801,-3.86404 0.84294,-1.18708 2.51127,-1.77655 1.4936,-2.33469 0.17207,-0.48026 0.0971,-0.99193 0.11142,-1.48811 z m -2.24078,0.80169 c -0.32582,2.48739 0.64459,5.62757 -1.90334,6.23659 2.19871,-1.75463 -1.90832,-3.90736 1.09508,-4.1798 0.26068,-1.80434 -2.82643,-1.35501 0.80826,-2.05679 z m 7.89203,2.5562 c 3.06194,1.21078 -3.66709,0.71157 0.43407,2.06384 -1.40689,0.041 -1.54056,3.30368 -2.10564,0.058 -1.08961,-1.51016 -1.03738,2.11946 1.00767,2.08977 1.31588,0.65632 4.0004,1.06663 0.86394,1.0513 -2.15328,-0.95428 -5.94491,-1.10111 -3.18592,-3.50479 -1.90984,-0.7489 2.50686,-1.17164 2.98588,-1.75813 z m -9.00914,0.80826 c -0.39468,1.58355 0.96231,-0.69034 0,0 z m 2.54963,2.66791 c 1.35089,1.73376 1.69281,-4.16654 0.2801,-0.50598 -0.0934,0.16866 -0.18673,0.33732 -0.2801,0.50598 z m -2.54963,-0.92654 c 0.63994,0.1505 0.12749,-1.16691 0,0 z"
         id="text28"
         style="font-size:30.2519px;font-family:'SentyZHAO 新蒂赵孟頫';-inkscape-font-specification:'SentyZHAO 新蒂赵孟頫, Normal';fill:#ffb500;stroke:#4a0909;stroke-width:0.1;stroke-dasharray:none;stroke-opacity:1"
         aria-label="天璇"
         transform="rotate(49.844905,202.03999,146.08784)" /><path
         d="m 287.65388,213.21589 c 4.31941,2.31368 -7.92814,3.25728 -2.60375,0.86544 0.8575,-0.31848 1.72381,-0.61475 2.60375,-0.86544 z m -1.47853,2.62848 c 0.60768,1.92833 0.81186,2.39422 2.78113,1.06686 2.53324,1.15768 -3.76738,1.49374 -0.64777,3.43514 1.5046,1.28071 7.7878,3.389 2.48124,2.85679 -2.76465,0.16744 -4.09062,-6.08615 -5.50411,-1.2119 -0.26469,2.21698 -4.59797,1.84388 -1.53552,0.11319 2.67076,-2.47629 -0.0184,-1.81531 -0.75893,-2.11802 0.86825,-1.52019 3.74218,-1.84042 3.18396,-4.14206 z m 12.32761,-1.71508 c 0.35213,1.81768 2.1854,1.12167 0.32739,2.37318 -0.82329,1.83722 1.96228,2.42323 -0.15937,2.82704 -0.0125,2.00011 -0.0916,4.40701 -0.27548,0.96856 0.3372,-3.13102 -3.28482,2.85865 -1.26954,-0.77525 1.46821,-1.98445 0.58426,-2.51631 -1.27817,-2.01092 0.51246,-1.13324 3.72095,-1.3616 2.65517,-3.38261 z m 6.34122,0.0591 c 3.29431,1.61426 -6.4396,1.56624 -1.55809,0.39969 0.51326,-0.14996 0.98946,-0.51971 1.55809,-0.39969 z m -0.30885,1.55738 c 2.3257,0.42379 -0.34728,3.54262 1.49493,4.11794 -1.7641,-1.39447 -2.84417,0.0408 -3.6676,0.92485 2.13758,-0.92055 0.43575,-4.42989 0.8966,-3.16956 1.3629,0.65882 1.88769,-0.89104 1.27607,-1.87323 z m -3.66673,0.30885 c 1.44382,2.02061 -0.35591,7.90804 4.23211,5.10379 5.61993,0.62247 -4.52712,3.12986 -4.34579,-0.91202 -0.55782,-1.42 0.34498,-2.79616 0.11368,-4.19177 z"
         id="text29"
         style="font-size:30.2519px;font-family:'SentyZHAO 新蒂赵孟頫';-inkscape-font-specification:'SentyZHAO 新蒂赵孟頫, Normal';fill:#ffb500;stroke:#4a0909;stroke-width:0.1;stroke-dasharray:none;stroke-opacity:1"
         aria-label="天枢"
         transform="rotate(49.844905,202.03999,146.08784)" /></g><g
       id="g10"
       style="display:inline;stroke:#4a0909;stroke-width:0.0929822;stroke-dasharray:none;stroke-opacity:1"
       transform="matrix(1.3228338,0,0,1.3228338,-51.4117,-60.688016)"><g
         id="g66"
         transform="matrix(0.30128387,0,0,0.30128387,11.237065,120.52874)"
         style="stroke:#4a0909;stroke-width:0.30862;stroke-dasharray:none;stroke-opacity:1"><path
           id="path35"
           style="baseline-shift:baseline;display:inline;overflow:visible;opacity:1;fill:#fe0707;stroke:#4a0909;stroke-width:0.30862;stroke-dasharray:none;stroke-opacity:1;enable-background:accumulate;stop-color:#000000;stop-opacity:1"
           d="m 480.94978,-67.41159 c -5.19856,0.05922 -10.29157,1.233777 -15.44471,1.684053 -38.55488,4.59274 -77.59421,5.704621 -115.74694,13.596846 -3.28196,0.710359 -6.76363,1.185436 -9.57218,3.23527 -5.42189,3.624414 -9.01692,9.742289 -10.27502,16.21592 -2.00019,8.576005 -1.39659,17.475213 -0.99968,26.1988882 0.45672,8.4334506 1.17272,16.9378798 0.4168,25.3469328 -0.17879,2.458051 -0.89945,4.821246 -1.091,7.271426 1.23647,23.755109 3.26416,47.528832 2.1693,71.343381 -0.51858,11.261423 -1.85168,22.526793 -4.24624,33.540223 2.51946,26.20087 1.17456,52.71292 4.89466,78.82304 0.75011,5.07091 1.71962,10.10447 2.88628,15.08988 11.82794,6.58093 25.18242,9.57962 38.46517,10.87245 17.94454,1.70512 35.98882,0.70608 53.94223,-0.30356 45.014,-5.85325 90.61366,-3.65627 135.72674,-8.60952 2.13482,-0.28959 4.33431,-0.65623 6.45329,-0.0701 6.23483,0.93679 13.0127,0.0181 18.22638,-3.84758 5.47191,-4.0143 8.85522,-10.38822 10.74084,-16.91707 3.22889,-10.68739 3.53297,-21.98262 3.92173,-33.08249 0.2475,-11.99265 -0.99568,-23.9413 -2.08589,-35.86317 -2.00418,-20.47213 -4.56109,-40.98835 -3.48262,-61.606591 0.22866,-4.469453 0.76697,-8.986102 1.17155,-13.454736 -2.64957,-35.535477 -4.71843,-71.1133019 -6.73838,-106.691839 -9.07977,-7.136432 -20.17663,-10.996836 -31.33792,-12.887361 -14.58078,-2.570716 -29.54565,-2.483851 -43.98438,-5.616154 -4.10319,-0.864536 -8.08752,-2.341036 -12.29153,-2.671144 -7.20793,-0.885715 -14.45052,-1.656265 -21.71848,-1.596955 z m -1.23232,13.700851 c 25.59816,0.381539 50.71319,6.172469 75.87288,10.655464 6.32319,1.137102 12.65936,2.198934 19.02192,3.074851 3.51562,8.274323 4.53491,17.400235 4.88487,26.308737 0.57155,14.8574983 -0.71585,29.863826 1.81917,44.58573 1.54866,9.256491 1.79726,18.613678 1.86564,27.99956 0.0584,20.453763 -1.57692,40.992276 0.71269,61.377057 0.74682,5.94273 1.84804,11.84044 2.27349,17.82414 1.34186,13.55703 2.53605,27.15443 1.86728,40.7943 -0.54303,9.73008 -2.14191,19.54395 -5.60147,28.69391 -0.11195,0.59045 -0.39739,1.14348 -1.02619,1.24377 -3.47043,1.4968 -7.01431,2.59623 -10.62538,3.41968 -10.95606,2.48074 -22.19722,2.40036 -33.3537,2.58509 -9.8055,0.10914 -19.65582,0.3378 -29.35193,1.96051 -5.80402,-0.0464 -11.60889,-0.16606 -17.4117,0.036 -32.52271,0.86509 -64.79277,6.7554 -97.3699,5.88625 -7.45476,-0.14573 -14.88144,-0.89293 -22.2928,-1.744 -4.37297,0.65187 -8.9331,0.89197 -13.36209,-0.0566 -4.20961,-0.77685 -8.10892,-3.14947 -10.76727,-6.61498 -2.50944,-3.25102 -3.75337,-7.3392 -4.46356,-11.37876 -1.03662,-6.3086 -0.55281,-12.74965 0.3106,-19.04657 0.13139,-1.16709 0.42299,-2.33819 0.0651,-3.49372 -3.27581,-19.57746 -3.02166,-39.63766 -1.67013,-59.41566 0.8981,-13.16379 2.31976,-26.283169 3.36501,-39.432991 -2.2438,-30.730003 -3.54531,-61.606813 -1.92093,-92.417085 0.44433,-8.339016 1.12825,-16.711947 2.0248,-25.018789 18.13681,-5.952553 37.07754,-8.167345 55.94549,-9.878141 17.48197,-1.527458 35.01619,-2.585135 52.40464,-5.071229 8.91832,-1.162428 17.81141,-2.349313 26.78352,-2.876469 z" /><path
           id="path36"
           style="baseline-shift:baseline;display:inline;overflow:visible;opacity:1;fill:#fe0707;stroke:#4a0909;stroke-width:0.30862;stroke-dasharray:none;stroke-opacity:1;enable-background:accumulate;stop-color:#000000;stop-opacity:1"
           d="m 379.32042,-40.965334 c -0.21022,0.0048 -0.41954,0.0219 -0.62838,0.05271 -7.15199,3.753426 0.68012,14.468645 6.70036,14.663704 7.38755,-2.863747 0.44493,-14.86541 -6.07198,-14.716414 z m 57.84815,5.94744 c -9.33286,3.055955 -20.71946,1.648153 -28.27011,8.871293 -4.42938,7.711831 9.068,8.882173 11.66957,3.035991 6.26897,-2.592024 19.40708,0.265861 19.37763,-9.425781 -2.56657,-0.07741 -1.32775,-1.498517 -2.77709,-2.481503 z m -48.47663,19.317684 c -0.2284,-0.0082 -0.45883,0.0044 -0.68936,0.03979 -11.02029,0.955227 -20.25759,9.9515019 -31.69833,8.1478229 -8.62179,1.276711 -3.71479,12.368012 3.67782,9.604582 7.78711,0.008 16.47924,-8.351957 23.14742,-4.807459 -4.02611,6.901839 -10.89736,12.035092 -15.56597,18.6381391 -7.65693,8.671919 -10.80706,19.876511 -14.26425,30.630172 -1.669,6.957627 -7.40257,12.624861 -6.87452,20.075261 -0.10415,8.27604 9.78943,5.76866 10.50789,-0.79168 2.82825,-5.84338 6.93611,-11.566503 5.40949,-18.43092 0.73981,-6.526155 4.52364,-12.389073 7.03626,-18.43195 3.33008,-7.25154 8.87387,-13.01438 14.56552,-18.434017 5.71892,-6.2919011 10.79536,-14.8672661 8.523,-23.667806 -0.68072,-1.435781 -2.17615,-2.514576 -3.77497,-2.571935 z m 19.3983,7.5592288 c -1.85602,12.4225171 -5.17481,24.7164862 -5.37486,37.3279542 -0.10425,-3.175071 -1.2813,-6.886418 -2.33681,-9.096086 l -0.45062,-1.099158 -0.50746,-1.075903 c -9.22752,-1.033036 -8.62201,12.844315 -3.01739,16.864087 4.52979,1.128275 6.12625,-1.233463 6.30297,-4.503084 -4.3e-4,0.330543 0.002,0.661183 0.006,0.992187 6.94664,6.689433 11.7905,-6.426558 10.31306,-12.151713 -2.84562,-8.069938 1.96708,-16.7639771 11.23963,-14.4637161 7.76911,0.61824 15.61003,-1.917255 23.24664,-0.295073 8.10798,3.027703 -1.91883,10.5484511 -6.04407,12.4664231 -4.45504,2.519119 -9.82713,3.954169 -14.20172,6.680729 -0.93584,-0.08755 -1.86711,-0.182703 -2.78846,-0.300757 -7.0841,-6.244183 -16.96227,11.109848 -5.48442,8.938989 1.40223,-0.406571 2.78551,-0.602109 4.15478,-0.641821 1.15167,1.346499 3.54587,1.334416 6.13658,0.696081 3.60585,0.819646 7.15029,2.157346 10.71252,2.912484 6.51923,1.827965 9.90035,-5.984619 2.75384,-8.238773 -0.35123,-0.195169 -0.70625,-0.376804 -1.06505,-0.546737 8.06579,-4.232158 16.21027,-9.605127 18.60558,-18.8768841 3.09305,-8.547708 -6.25141,-14.593627 -13.82964,-12.105204 -8.96275,0.15987 -17.95613,1.426456 -26.89345,0.91829 -4.06784,-0.775663 -7.57193,-3.224083 -11.47734,-4.4023151 z m -24.4507,24.8708332 c -8.9042,0.303922 -5.69426,12.373953 -3.0856,17.801497 2.65363,10.485807 -5.26484,19.438729 -6.78253,29.43645 -2.44499,12.58851 -2.5168,25.69131 -6.51227,37.925851 0.50336,9.85764 14.2057,3.35735 10.63088,-4.270031 2.15923,-16.16674 2.62665,-33.04454 9.88467,-47.987248 3.79149,-7.663709 1.0059,-15.964541 -0.66766,-23.750489 -0.7433,-3.079324 -1.59743,-6.132209 -2.56781,-9.147762 -0.31287,-0.0153 -0.61245,-0.01807 -0.89968,-0.0083 z m 70.64633,25.681637 c -3.57473,-0.0016 -7.11709,1.165245 -10.6996,0.605647 -12.17689,2.795012 -26.28077,3.882052 -35.01285,13.975891 -1.50555,9.527422 10.49539,5.265922 14.27354,1.173055 1.6227,-1.55137 3.57855,-2.568265 5.69268,-3.294889 -2.20804,2.537621 -2.1296,6.173766 -1.54513,9.772526 -3.62124,0.96069 -6.67329,2.70576 -8.03568,6.67608 1.88274,3.09437 5.13134,3.40404 8.54883,2.79053 -0.5233,2.87252 -0.34122,6.3899 0.92294,8.29355 -1.58616,1.6931 -2.89197,3.6122 -3.68246,5.95416 1.82389,8.66736 13.05495,3.86179 19.14147,3.38326 6.13596,-0.28166 15.78816,2.77465 18.88877,-4.39302 0.29576,-8.26428 -8.95778,-1.85433 -13.70614,-4.1584 -4.95892,0.3855 -7.25274,-2.07361 -2.59416,-5.40329 6.34172,-7.04549 14.35629,-12.27734 21.07055,-18.93063 3.31636,-7.783557 -3.93914,-15.944895 -11.72849,-16.363855 -0.5122,-0.05636 -1.02359,-0.08039 -1.53427,-0.08062 z m -4.49275,8.992216 c 3.20297,-0.193708 6.15063,0.26644 7.88738,2.959509 -2.08712,5.709345 -8.42039,8.137455 -12.6044,12.432315 0.20861,-1.29218 -0.66648,-2.96119 -3.2396,-5.21984 -1.77681,0.80477 -3.84715,1.24885 -6.00945,1.59061 -0.0882,-1.26862 -0.1229,-2.52043 -0.0527,-3.74138 -0.27616,-2.152513 -1.22854,-4.43702 -3.03444,-5.654434 2.57006,-0.521446 5.20147,-0.867474 7.63364,-1.404049 2.75792,0.07823 6.21661,-0.769024 9.41958,-0.962731 z m -50.43465,3.468522 c -0.92049,-9.18e-4 -1.87169,0.20584 -2.80344,0.652673 0.11663,13.518199 3.86586,26.657749 8.07289,39.396559 8.18272,5.638031 10.52169,-9.46436 5.39399,-13.72267 -4.69627,-6.42681 -2.94591,-14.40234 -4.54805,-21.55579 -0.86745,-2.892963 -3.3539,-4.76802 -6.11539,-4.770772 z m 43.89552,14.156762 c -0.12204,0.18425 -0.23976,0.37204 -0.35295,0.56379 -1.69164,2.3864 -3.93942,4.29485 -6.29471,6.1004 0.12771,-1.38074 0.11067,-2.79733 0.0212,-4.23023 2.45115,-0.72704 4.9767,-1.42829 6.62647,-2.43396 z m 0.91674,4.46794 c 0.0578,0.0014 0.14756,0.04339 0.27905,0.14935 -0.0955,0.77633 -0.55754,-0.15606 -0.27905,-0.14935 z m -15.47089,12.31139 c 0.81431,0.0518 -0.47598,0.56342 0,0 z m 13.0886,0.6997 c 0.0658,-0.0016 0.15417,0.0079 0.26872,0.03256 0.52611,1.05574 -0.90524,-0.01746 -0.26872,-0.03256 z" /><path
           id="path47"
           style="baseline-shift:baseline;display:inline;overflow:visible;opacity:1;fill:#fe0707;stroke:#4a0909;stroke-width:0.30862;stroke-dasharray:none;stroke-opacity:1;enable-background:accumulate;stop-color:#000000;stop-opacity:1"
           d="m 424.30078,109.19531 c -19.67648,2.27713 -39.62692,6.25076 -59.1697,3.57955 -22.69775,13.23765 28.62714,11.71615 39.70164,8.45692 9.45974,-2.19009 52.17974,-7.63881 37.03459,8.83282 -22.00306,1.73323 -43.89042,7.06606 -65.9883,4.18252 -26.11857,-3.94197 -36.58343,40.80913 -6.42415,40.20111 23.49473,3.11062 45.49893,-7.91488 68.01503,-11.24552 12.71813,18.30383 -24.93385,18.54548 -37.83482,16.71891 -20.25346,-1.47734 -59.85511,4.52915 -43.24488,33.0816 23.69812,6.41082 48.27107,5.07021 72.0531,-0.18735 9.59608,2.00062 38.94566,-2.81107 18.34597,-11.89192 -25.44823,1.89713 -51.0355,9.44734 -76.70571,6.02627 -18.20812,-20.8382 32.1403,-17.53343 46.13517,-17.22235 26.34398,10.52191 54.11293,-35.80485 17.28426,-35.965 -22.94048,2.58567 -46.87927,18.28507 -69.78985,7.71566 -7.71129,-23.53027 31.64926,-16.43652 46.01465,-17.53996 17.56989,-3.97028 48.16453,1.13679 50.52728,-23.67063 -1.29859,-16.86313 -25.48585,-7.13862 -35.95428,-11.07263 z m 34.27149,10.95703 c 0.94731,1.2696 -1.74531,-0.12642 0,0 z m -75.91407,17.07032 -0.21499,0.33785 z m -17.16601,5.23046 0.0513,0.55992 z m 22.3164,45.00782 0.10816,0.5501 z" /><path
           id="path48"
           style="baseline-shift:baseline;display:inline;overflow:visible;opacity:1;fill:#fe0707;stroke:#4a0909;stroke-width:0.30862;stroke-dasharray:none;stroke-opacity:1;enable-background:accumulate;stop-color:#000000;stop-opacity:1"
           d="m 549.08203,-41.255859 c -22.89092,10.815222 -57.18777,-6.614906 -74.43423,10.364815 18.65208,7.128475 45.24335,0.625364 67.17594,1.765789 10.1688,2.594611 26.07311,-10.923024 7.25829,-12.130604 z" /><path
           id="path49"
           style="baseline-shift:baseline;display:inline;overflow:visible;opacity:1;fill:#fe0707;stroke:#4a0909;stroke-width:0.30862;stroke-dasharray:none;stroke-opacity:1;enable-background:accumulate;stop-color:#000000;stop-opacity:1"
           d="m 519,-33.412109 c -22.13058,6.216432 -47.09134,24.3884166 -42.9744,50.291123 -0.76954,11.507802 1.11253,39.202175 11.17016,17.055512 -4.03171,-20.778624 -2.25477,-46.464216 22.90728,-51.91734 4.75969,-1.987377 22.37892,-12.229304 8.89696,-15.429295 z m -7.30664,6.873047 c 1.00896,0.709041 -1.19405,0.526979 0,0 z" /><path
           id="path50"
           style="baseline-shift:baseline;display:inline;overflow:visible;opacity:1;fill:#fe0707;stroke:#4a0909;stroke-width:0.30862;stroke-dasharray:none;stroke-opacity:1;enable-background:accumulate;stop-color:#000000;stop-opacity:1"
           d="m 519.5332,-27.494141 c -8.11305,26.1132695 40.91663,11.642855 39.98964,36.0723022 3.98463,14.3654318 -11.30358,44.6334988 5.8973,47.3423658 2.26141,-22.578002 14.64842,-63.162432 -15.64244,-70.734474 -10.4386,-3.269328 -20.81939,-7.049682 -30.2445,-12.680194 z" /><path
           id="path51"
           style="baseline-shift:baseline;display:inline;overflow:visible;opacity:1;fill:#fe0707;stroke:#4a0909;stroke-width:0.30862;stroke-dasharray:none;stroke-opacity:1;enable-background:accumulate;stop-color:#000000;stop-opacity:1"
           d="m 540.48828,-4.7558594 c -7.93929,-1.4877791 -40.12364,-0.2148827 -24.10513,9.2341924 7.24924,-0.4434088 30.69044,6.100963 24.10513,-9.2341924 z" /><path
           id="path52"
           style="baseline-shift:baseline;display:inline;overflow:visible;opacity:1;fill:#fe0707;stroke:#4a0909;stroke-width:0.30862;stroke-dasharray:none;stroke-opacity:1;enable-background:accumulate;stop-color:#000000;stop-opacity:1"
           d="m 533.39062,9.53125 c -7.18998,2.412015 -42.40422,-0.6151222 -23.77434,10.672581 7.25328,4.522182 42.51788,-2.454265 23.77434,-10.672581 z" /><path
           id="path53"
           style="baseline-shift:baseline;display:inline;overflow:visible;opacity:1;fill:#fe0707;stroke:#4a0909;stroke-width:0.30862;stroke-dasharray:none;stroke-opacity:1;enable-background:accumulate;stop-color:#000000;stop-opacity:1"
           d="M 524.34766,1.0703125 C 514.19295,13.020355 507.98785,35.191496 505.06824,46.101177 519.29736,48.086333 534.88303,7.0884089 524.34766,1.0703125 Z m -6.36328,16.9062495 c 1.08076,1.297651 -1.84778,0.118587 0,0 z" /><path
           id="path54"
           style="baseline-shift:baseline;display:inline;overflow:visible;opacity:1;fill:#fe0707;stroke:#4a0909;stroke-width:0.30862;stroke-dasharray:none;stroke-opacity:1;enable-background:accumulate;stop-color:#000000;stop-opacity:1"
           d="m 524.08203,21.828125 c -23.06407,11.719788 33.39061,35.298735 10.75458,12.184026 -4.43048,-3.296223 -6.94567,-8.304998 -10.75458,-12.184026 z" /><path
           id="path55"
           style="baseline-shift:baseline;display:inline;overflow:visible;opacity:1;fill:#fe0707;stroke:#4a0909;stroke-width:0.30862;stroke-dasharray:none;stroke-opacity:1;enable-background:accumulate;stop-color:#000000;stop-opacity:1"
           d="m 512.27148,57.490234 c -6.85973,21.459647 42.15673,5.452501 15.11697,0.985478 -5.06685,-0.08254 -10.01867,-1.889783 -15.11697,-0.985478 z" /><path
           id="path56"
           style="baseline-shift:baseline;display:inline;overflow:visible;opacity:1;fill:#fe0707;stroke:#4a0909;stroke-width:0.30862;stroke-dasharray:none;stroke-opacity:1;enable-background:accumulate;stop-color:#000000;stop-opacity:1"
           d="m 491.45312,72.894531 c -9.38335,8.744784 -17.17064,46.704339 4.65345,29.482579 1.38094,-7.369902 5.52463,-27.823846 -4.65345,-29.482579 z" /><path
           id="path57"
           style="baseline-shift:baseline;display:inline;overflow:visible;opacity:1;fill:#fe0707;stroke:#4a0909;stroke-width:0.30862;stroke-dasharray:none;stroke-opacity:1;enable-background:accumulate;stop-color:#000000;stop-opacity:1"
           d="m 537.88086,72.119141 c -8.76892,4.254276 -43.26043,0.412229 -31.52322,14.026488 7.31056,1.496523 41.96714,-7.60549 35.4657,-1.620541 -31.33842,3.826216 16.34001,24.082302 14.54511,-1.197737 10e-4,-9.087392 -10.98808,-13.044473 -18.48759,-11.20821 z" /><path
           id="path58"
           style="baseline-shift:baseline;display:inline;overflow:visible;opacity:1;fill:#fe0707;stroke:#4a0909;stroke-width:0.30862;stroke-dasharray:none;stroke-opacity:1;enable-background:accumulate;stop-color:#000000;stop-opacity:1"
           d="m 510.87695,94.023438 c -1.58781,7.786742 -11.40145,41.885612 3.13341,27.938852 1.70901,-7.64841 14.72414,-32.420741 -3.13341,-27.938852 z" /><path
           id="path59"
           style="baseline-shift:baseline;display:inline;overflow:visible;opacity:1;fill:#fe0707;stroke:#4a0909;stroke-width:0.30862;stroke-dasharray:none;stroke-opacity:1;enable-background:accumulate;stop-color:#000000;stop-opacity:1"
           d="m 529.02539,85.775391 c -13.15825,-6.605026 -33.05607,16.422849 -9.78866,10.238045 12.81794,-1.570908 -2.60503,24.485244 14.19363,10.026184 4.99251,-5.77855 8.39139,-23.098059 -4.40497,-20.264229 z m 0.36523,9.783203 -0.14202,0.428774 z" /><path
           id="path60"
           style="baseline-shift:baseline;display:inline;overflow:visible;opacity:1;fill:#fe0707;stroke:#4a0909;stroke-width:0.30862;stroke-dasharray:none;stroke-opacity:1;enable-background:accumulate;stop-color:#000000;stop-opacity:1"
           d="m 526.14062,99.978516 c -31.22865,5.865394 15.7877,21.738924 0,0 z" /><path
           id="path61"
           style="baseline-shift:baseline;display:inline;overflow:visible;opacity:1;fill:#fe0707;stroke:#4a0909;stroke-width:0.30862;stroke-dasharray:none;stroke-opacity:1;enable-background:accumulate;stop-color:#000000;stop-opacity:1"
           d="m 529.73828,105.81836 c -14.92708,-2.70171 -27.99637,19.29912 -6.22761,11.53642 -0.71555,7.65631 -2.03896,34.32956 9.45874,13.27659 3.25144,-7.13018 8.28947,-22.56582 -3.23113,-24.81301 z m -6.35742,4.48828 c 0.50034,1.58839 -1.68681,-0.30412 0,0 z" /><path
           id="path62"
           style="baseline-shift:baseline;display:inline;overflow:visible;opacity:1;fill:#fe0707;stroke:#4a0909;stroke-width:0.30862;stroke-dasharray:none;stroke-opacity:1;enable-background:accumulate;stop-color:#000000;stop-opacity:1"
           d="m 521.61133,125.79492 c -15.39781,-6.55995 -24.95095,18.62803 -4.42975,10.13454 5.03331,-0.57986 7.42736,-5.95232 4.42975,-10.13454 z" /><path
           id="path63"
           style="baseline-shift:baseline;display:inline;overflow:visible;opacity:1;fill:#fe0707;stroke:#4a0909;stroke-width:0.30862;stroke-dasharray:none;stroke-opacity:1;enable-background:accumulate;stop-color:#000000;stop-opacity:1"
           d="m 490.46289,115.92188 c -25.34427,-1.84612 -23.30072,24.13077 -25.69222,39.75936 3.23503,11.71048 13.65963,30.20459 -1.52547,43.95169 5.73778,15.08209 38.87416,10.07901 20.37089,-6.58409 3.27939,-7.60401 19.31253,-20.5405 2.36444,-24.80069 -1.8211,-13.87164 2.39471,-22.73094 8.09668,-31.81262 -13.93359,-8.9428 -1.41838,-2.83633 1.3385,-16.93333 l -1.57272,-2.0846 z m -15.0957,24.69531 c 0.9646,1.14072 -1.6449,0.0933 0,0 z m 14.76562,32.74414 c 0.75052,0.77439 -1.23285,-0.0261 0,0 z" /><path
           id="path64"
           style="baseline-shift:baseline;display:inline;overflow:visible;opacity:1;fill:#fe0707;stroke:#4a0909;stroke-width:0.30862;stroke-dasharray:none;stroke-opacity:1;enable-background:accumulate;stop-color:#000000;stop-opacity:1"
           d="m 566.64453,93.310547 c -15.6116,-3.190727 -16.31604,12.598643 -10.16636,16.454663 -19.67897,5.80625 -9.77447,21.49856 2.6439,26.54248 -24.61862,-3.8816 -8.23528,19.23655 -6.73178,26.26368 -25.62134,5.63759 23.23716,16.55026 -3.46453,22.09053 -17.8117,15.88148 19.1118,34.41502 19.11674,8.29397 12.768,-2.34214 14.0109,-13.78889 0.24334,-12.18934 -0.33569,-9.31395 16.78597,-13.26423 1.23663,-23.99633 -5.68693,-13.85999 9.99341,-29.86345 0.40107,-46.55689 -4.09327,-5.9275 7.19994,-15.260553 -3.27901,-16.902763 z m -7.37109,27.392573 c -0.20299,7.55468 -7.55711,-3.59423 0,0 z m 9.99023,15.51563 c 0.97166,0.74566 -1.35072,0.37687 0,0 z m -2.41797,30.08594 -0.0835,0.0618 z m -9.96875,26.34179 c 2.17349,11.11671 -8.60695,-0.45943 0,0 z" /><path
           id="path65"
           style="baseline-shift:baseline;display:inline;overflow:visible;opacity:1;fill:#fe0707;stroke:#4a0909;stroke-width:0.30862;stroke-dasharray:none;stroke-opacity:1;enable-background:accumulate;stop-color:#000000;stop-opacity:1"
           d="m 505.87891,144.58984 c -15.9592,5.37354 14.89813,13.86594 -0.91704,11.1563 -12.45937,10.83157 8.20574,33.82136 -9.43651,40.04267 2.57256,18.22477 59.12227,8.10343 29.31134,-0.17422 -14.21987,1.98321 14.28276,-6.60434 4.54324,-18.4027 -8.49043,-16.96184 7.96286,-16.37729 11.0597,-28.67009 -8.77472,-6.8544 -23.73116,-1.14955 -34.56073,-3.95196 z m 3.60937,15.37891 -0.003,-0.16955 z" /></g><path
         style="font-size:21.1232px;font-family:'SentyZHAO 新蒂赵孟頫';-inkscape-font-specification:'SentyZHAO 新蒂赵孟頫, Normal';fill:#ffb500;stroke:#4a0909;stroke-width:0.0929822;stroke-dasharray:none;stroke-opacity:1"
         d="m 91.990011,70.269236 c 6.154897,2.935145 -9.554836,-0.731993 -2.79511,4.476303 -2.640935,7.017842 1.506245,6.41231 6.690603,6.725413 2.523985,2.821263 -9.387705,-0.727626 -11.738531,1.322778 -3.557166,1.312472 -11.312853,-0.475452 -3.368347,-0.895389 5.769,1.562931 -2.136331,-10.174681 3.609922,-4.698055 -2.54138,8.460137 6.124302,2.812794 3.156103,-2.511475 0.724608,-4.684003 -6.659219,1.195524 -5.848074,-3.31597 3.451753,-0.121531 6.872329,-0.666213 10.293434,-1.103605 z m -1.578051,3.909029 c 5.461086,1.983805 -1.217015,6.695285 0,0 z m 23.09319,-5.280799 c 3.20716,2.165306 4.1777,5.281315 2.24844,7.968124 3.59545,1.370007 -1.4469,3.172464 -0.49507,6.66753 -1.72266,-1.188777 -0.77644,-5.526535 -3.02202,-5.755251 7.81512,-2.816544 -8.79706,0.09787 0.33452,-2.816911 3.20749,-0.956931 1.12083,-3.722756 0.93413,-6.063492 z m -6.53912,0.484761 c 4.29685,1.224966 -0.92677,15.694803 0.39196,5.363312 -0.62326,-8.612506 -4.11438,0.7195 -3.71308,4.197823 -1.86214,-3.670488 -1.93972,-9.267722 2.73323,-9.365168 l 0.5879,-0.195967 z m -2.23815,3.217987 c 2.513,2.925062 0.77377,6.38484 3.70275,9.375483 -1.85475,2.139455 -3.14728,-6.73166 -4.105,0 -6.068615,3.773914 3.97829,-6.942782 0.40225,-9.375483 z"
         id="text1"
         aria-label="正财" /><path
         style="font-size:21.1232px;font-family:'SentyZHAO 新蒂赵孟頫';-inkscape-font-specification:'SentyZHAO 新蒂赵孟頫, Normal';fill:#ffb500;stroke:#4a0909;stroke-width:0.0929822;stroke-dasharray:none;stroke-opacity:1"
         d="m 204.17942,69.452027 c 2.88333,1.036337 -6.83171,4.029107 1.17581,2.021556 5.80683,3.42469 -12.17036,8.749914 -1.42335,5.76266 8.23014,-5.326675 6.80775,10.856499 0.78386,7.264001 -2.66398,-2.568095 -0.22947,-4.046533 -2.75386,0 -1.30614,-5.549622 -2.67304,4.565395 -3.56864,-1.92873 -4.33549,6.443476 1.33314,-8.813457 1.83594,-10.329704 -3.18785,-1.719591 2.71649,-2.5229 3.95024,-2.789783 z m -9.097,2.846681 c 6.42761,2.01067 -3.13635,5.246028 0.36099,8.075917 0.58635,5.332209 -3.61711,3.50347 -1.91841,-0.278486 -7.59075,4.531419 3.74654,-5.548208 1.55742,-7.797431 z m 5.78619,3.3005 c 6.64803,-1.739284 2.20353,-4.786172 0,0 z m 4.4041,2.753855 c 0.69035,2.542978 3.55434,0.666347 0.18566,3.264568 1.81882,6.992386 5.23742,-8.808059 -0.18566,-3.264568 z m -2.67134,0.639471 c -0.87087,4.453842 3.38318,-1.548656 0,0 z m -2.65071,1.464597 c -0.35277,3.438374 2.7919,-2.47274 0,0 z m 27.14661,-10.427517 c 3.20718,2.165305 4.17769,5.281314 2.24844,7.968125 3.59542,1.370003 -1.44688,3.172484 -0.49508,6.66753 -1.72268,-1.188775 -0.77638,-5.526512 -3.02202,-5.75525 7.81515,-2.816542 -8.79705,0.09787 0.33452,-2.81691 3.20751,-0.95693 1.12081,-3.722766 0.93414,-6.063495 z m -6.53912,0.484761 c 4.29686,1.224944 -0.92678,15.694813 0.39196,5.363313 -0.62327,-8.612507 -4.11439,0.719503 -3.71309,4.197823 -1.86216,-3.670482 -1.93972,-9.26772 2.73322,-9.365169 l 0.5879,-0.195967 z M 218.32,73.732363 c 2.51301,2.925045 0.77379,6.384838 3.70275,9.375482 -1.85475,2.139459 -3.14728,-6.731658 -4.105,0 -6.06861,3.773917 3.97829,-6.942779 0.40225,-9.375482 z"
         id="text2"
         aria-label="偏财" /><path
         style="font-size:30.2519px;font-family:'SentyZHAO 新蒂赵孟頫';-inkscape-font-specification:'SentyZHAO 新蒂赵孟頫, Normal';writing-mode:vertical-lr;fill:#ffb500;stroke:#4a0909;stroke-width:0.0929822;stroke-dasharray:none;stroke-opacity:1"
         d="m 101.45711,93.163142 c 4.19699,0.537122 2.37927,6.677907 5.45066,8.094748 -6.75884,2.36428 4.05831,5.75582 -2.23049,7.23172 0.87185,3.0549 -1.34783,8.57238 -2.65885,3.256 4.75839,-3.10912 -8.350384,-6.3847 0.50222,-6.57052 2.9005,-4.20724 -11.57067,1.84789 -4.646535,-2.43267 5.548385,-0.97611 5.361045,-4.86382 3.582995,-9.579278 z m -9.365088,0.694257 c 3.958853,1.403252 2.212904,10.847661 0.974914,14.121491 -2.751672,-3.18985 2.890173,-15.293087 -4.608687,-10.487717 0.76188,3.627987 -1.506572,15.740437 -2.407745,5.786707 0.307777,-5.163164 -1.390183,-8.615392 4.431431,-8.017194 1.017098,-0.17102 0.267892,-1.72324 1.610087,-1.403287 z m -3.205402,4.608688 c 4.310519,3.236673 -0.156153,8.953303 4.741631,11.876233 1.011085,7.92646 -4.341815,-7.939 -4.954894,0.53085 -3.314072,6.02709 -4.247128,-1.28879 -0.430217,-3.30234 1.44308,-2.80333 1.937722,-6.16437 0.64348,-9.104743 z m 12.91023,29.099733 c 5.79492,1.92582 -3.282221,3.08142 -4.328026,1.94983 1.240398,-1.04464 2.858906,-1.38134 4.328026,-1.94983 z m -13.973773,0.84197 c 6.945577,1.64808 1.036111,9.18398 0,0 z m 11.876234,2.23048 c 2.368139,2.96455 1.868249,3.92394 6.122759,4.05107 3.12076,3.57692 -4.13889,8.87904 -3.74456,9.08074 1.00728,4.41816 -0.27865,10.719 -4.608686,5.03706 6.741576,2.2788 2.496304,-8.68938 -2.511144,-4.90412 4.478361,-0.33674 1.071487,-11.58027 0.306046,-3.70763 0.404809,6.22647 -9.770598,15.7395 -9.455104,5.3048 1.459633,-3.72314 -4.773768,-12.88513 1.748569,-6.48651 -0.54141,4.30084 -0.776051,9.32988 2.496373,2.09754 1.725631,-1.66849 -4.605379,14.88493 0.847049,5.3348 1.773488,-2.0433 5.163237,-19.74454 5.164925,-10.63774 1.442695,2.77616 10.172902,2.42954 6.721002,-0.28066 -7.223831,0.3096 -4.395564,3.06156 -3.087229,-4.88935 z m -0.265886,9.35032 c -0.166202,4.29877 7.574255,-3.47531 0,0 z m 4.756405,4.90412 c 8.848,1.6243 1.81036,7.65034 0,0 z m -9.64575,0.56131 c 4.868926,1.73128 -1.619213,8.29651 0.07917,0.7477 l -0.05378,-0.50788 z m 1.521458,14.54987 c 4.140952,1.09314 0.772935,7.81061 6.769012,4.30588 7.46555,-0.24374 3.26113,3.62655 -2.06916,2.26094 -3.388121,1.0758 -11.864631,0.1117 -6.649682,4.76287 -2.309254,4.49334 -3.508072,16.42454 -8.770539,15.63188 0.873371,-4.85149 10.397796,-15.46316 3.73348,-18.85205 -3.868512,-2.90736 12.766201,-0.0975 6.441269,-6.36003 -1.023936,-0.11464 -1.764044,-2.89662 0.54562,-1.74949 z m 3.973512,40.70269 c 6.9745,2.54292 -0.165127,7.08351 5.86426,9.79346 -5.60379,-0.55897 -1.95101,6.33043 -2.92474,9.64575 -5.884308,-0.24819 -0.36846,-14.04824 -7.695918,-6.85394 -0.243975,6.56148 -4.47203,4.66854 -2.511144,-0.28066 -9.742923,2.92474 7.703592,-6.12597 -1.403287,-4.19509 -2.907141,-3.55732 4.618769,-2.27531 3.500831,-5.87903 -0.322118,4.3778 7.435618,0.64559 4.468358,-1.98676 z m -16.91329,2.23049 c 6.50029,-1.04307 4.912659,7.43283 1.286038,1.38944 L 83.12576,203.2325 Z m 12.851149,6.98689 c 7.823991,1.13359 2.685866,-9.733 0,0 z m -12.851149,0.29543 c 6.254331,-1.8529 6.226641,4.91656 4.608688,9.21737 7.287744,2.4547 17.555172,2.28525 23.121912,4.65577 -8.13001,3.77532 -16.049483,-1.49558 -23.987839,-3.09774 -7.759875,-0.57509 3.025231,-3.05192 -0.803245,-8.26426 0.370823,-1.80739 -2.911538,1.61367 -2.939516,-2.51114 z"
         id="text3"
         aria-label="财源广进" /><path
         d="m 203.72865,94.271001 c 1.39003,0.625259 4.71772,5.469999 2.24156,5.354646 -3.11718,2.851963 2.63568,16.885343 -3.49713,13.227823 1.80188,-2.40574 1.41611,-13.003459 -1.21795,-3.7568 -2.63236,6.48675 -5.18577,-1.24457 0.15071,-2.66232 3.54143,-2.93019 3.04416,-7.12839 -1.73933,-6.43203 8.60517,-1.123371 1.61438,-4.318772 4.06214,-5.731319 z m 5.59837,2.511144 c 8.84233,0.531085 -5.28407,6.826995 1.28327,8.485265 -0.8527,6.6598 7.60101,3.94701 7.3728,-1.07 -4.83186,2.82274 -8.65928,0.27099 -3.75287,-4.09908 -1.49025,-5.353085 8.20181,-0.76143 1.50475,2.1774 -1.66191,1.30145 10.12968,-2.568752 5.88558,3.77549 -1.68073,4.94137 -4.25191,5.81611 -9.79715,4.85242 -3.133,3.21426 -5.75045,-9.05427 -2.51115,-11.04165 1.28704,-1.611631 0.22783,-1.917239 0.0148,-3.079845 z m 5.92335,33.309595 c 4.197,0.53711 2.37926,6.6779 5.45066,8.09474 -6.75883,2.36428 4.05829,5.75582 -2.23049,7.23173 0.87186,3.0549 -1.34785,8.57237 -2.65886,3.25599 4.75842,-3.10908 -8.35039,-6.38472 0.50223,-6.57052 2.90049,-4.20722 -11.57065,1.84788 -4.64654,-2.43267 5.54839,-0.97609 5.36105,-4.86381 3.583,-9.57927 z m -9.36509,0.69425 c 3.95885,1.40326 2.21289,10.84765 0.97492,14.1215 -2.75169,-3.18985 2.89017,-15.29309 -4.60869,-10.48772 0.76188,3.62799 -1.50658,15.74042 -2.40775,5.78671 0.30778,-5.16317 -1.39018,-8.6154 4.43144,-8.0172 1.01709,-0.17102 0.26789,-1.72324 1.61008,-1.40329 z m -3.2054,4.60869 c 4.31052,3.23668 -0.15616,8.95331 4.74163,11.87624 1.01108,7.92644 -4.34182,-7.939 -4.9549,0.53085 -3.31407,6.02708 -4.24712,-1.2888 -0.43021,-3.30234 1.44309,-2.80333 1.93772,-6.16438 0.64348,-9.10475 z m 11.15243,28.38331 c 6.97449,2.54292 -0.16513,7.08351 5.86426,9.79346 -5.60379,-0.55897 -1.95101,6.33043 -2.92474,9.64575 -5.88431,-0.24818 -0.36846,-14.04822 -7.69592,-6.85394 -0.24398,6.56148 -4.47203,4.66853 -2.51114,-0.28066 -9.74294,2.92474 7.70359,-6.12597 -1.40329,-4.19509 -2.90715,-3.55733 4.61878,-2.27529 3.50083,-5.87903 -0.32212,4.3778 7.43562,0.64558 4.46836,-1.98676 z m -16.91329,2.23049 c 6.5003,-1.04307 4.91265,7.43284 1.28604,1.38944 l -1.28604,-1.09401 z m 12.85115,6.98689 c 7.82399,1.13359 2.68587,-9.73299 0,0 z m -12.85115,0.29543 c 6.25432,-1.8529 6.22665,4.91657 4.60869,9.21737 7.28774,2.4547 17.55517,2.28525 23.12191,4.65577 -8.13001,3.77532 -16.04949,-1.49556 -23.98784,-3.09774 -7.75987,-0.57509 3.02523,-3.05192 -0.80325,-8.26426 0.37082,-1.80738 -2.91154,1.61367 -2.93951,-2.51114 z m 9.80823,24.29901 c 7.14557,-0.85897 1.46985,8.71375 7.52974,4.68624 6.32766,-2.81949 10.26605,6.8118 1.05247,4.16185 5.18588,-5.06439 -2.80837,-1.31914 -5.4474,-1.0311 -2.23313,1.41592 -10.29791,1.75772 -5.37514,-0.66583 5.9065,-0.6341 4.95644,-3.0546 2.24033,-7.15116 z m -5.28817,7.91749 c 3.10103,1.51069 -2.60675,11.30252 -2.54253,3.60331 0.61522,-1.34728 1.55975,-2.51057 2.54253,-3.60331 z m 11.62512,2.11232 c 6.38499,1.99186 -7.94987,3.62883 -0.65733,6.40341 6.0959,1.56573 -7.07737,6.89972 1.22642,5.82821 5.49982,-1.33689 5.69308,4.34395 -0.13162,2.78825 -2.22185,0.94682 -14.06703,1.40226 -10.20139,0.28333 6.10536,-0.68156 5.78993,-5.14769 0.25111,-6.18923 6.67152,-0.95771 4.63106,-6.27967 0.53178,-7.40049 2.98397,0.21904 6.11188,-1.20319 8.98103,-1.71348 z m 5.00751,6.98688 c 6.6972,0.63168 0.55762,7.522 0,0 z"
         id="text4"
         style="font-size:30.2519px;font-family:'SentyZHAO 新蒂赵孟頫';-inkscape-font-specification:'SentyZHAO 新蒂赵孟頫, Normal';writing-mode:vertical-lr;fill:#ffb500;stroke:#4a0909;stroke-width:0.0929822;stroke-dasharray:none;stroke-opacity:1"
         aria-label="招财进宝" /><path
         style="font-size:21.1232px;font-family:'SentyZHAO 新蒂赵孟頫';-inkscape-font-specification:'SentyZHAO 新蒂赵孟頫, Normal';fill:#ffb500;stroke:#4a0909;stroke-width:0.0929822;stroke-dasharray:none;stroke-opacity:1"
         d="m 78.091813,238.42919 c 2.524354,0.76801 -4.921331,5.43632 0.977258,4.368 0.617493,3.71946 -2.790619,7.44299 3.406219,6.0698 6.573243,3.04109 -10.148415,-0.72978 -12.872594,2.52952 -10.804387,0.76415 9.779893,-3.48762 2.659093,-5.18024 -4.569184,0.63494 9.677636,-6.98819 0.270749,-4.28033 -5.139281,-1.97119 4.236211,-2.7246 5.559275,-3.50675 z m -4.001856,10.14903 c 4.327316,2.81152 4.945961,-10.2675 1.068153,-2.02026 -0.151244,0.78315 -0.782233,1.30531 -1.068153,2.02026 z m 24.403072,-10.55128 c 0.996666,3.72548 6.703881,-0.88687 3.528051,4.65612 -3.645205,3.49308 13.83327,5.59702 5.44518,5.88476 -4.54805,-0.96751 -4.02855,6.52689 -9.744852,4.35251 -0.147764,-8.19782 -8.306791,5.10448 -7.675597,-3.47068 0.465637,-6.91989 2.630678,6.47079 2.980765,-1.90328 0.791888,-4.05035 -3.966423,0.22133 -4.001857,-6.39438 2.137978,0.11172 3.530612,5.27611 4.38348,0.5879 -8.279402,0.38277 8.192501,-5.49255 1.464597,1.55742 1.589083,1.24645 -2.783319,1.49709 1.268629,3.50678 -6.092877,4.69116 4.881535,0.15452 2.052495,-2.73322 -4.707865,3.14041 0.642336,-4.57327 0.299109,-6.04393 z m 0.195967,5.07452 c 3.423304,0.94747 1.519324,-5.44919 0,-2e-5 z m 1.361454,2.14532 c -4.510444,4.69367 -0.323212,2.95149 2.9292,2.05253 -0.86989,-0.81032 -1.72285,-1.74294 -2.9292,-2.05253 z m -0.773553,4.78573 c -0.946825,3.99257 6.451453,-2.63747 0,0 z M 124.39164,237.8516 c 3.20717,2.16531 4.17769,5.28131 2.24843,7.96812 3.59545,1.37001 -1.4469,3.17246 -0.49507,6.66753 -1.72268,-1.18874 -0.77641,-5.5265 -3.02202,-5.75521 7.81512,-2.81655 -8.79702,0.0979 0.33452,-2.81689 3.20751,-0.95695 1.12079,-3.72277 0.93414,-6.06355 z m -6.53912,0.48476 c 4.29685,1.22494 -0.92677,15.69481 0.39197,5.36331 -0.62327,-8.6125 -4.11439,0.7195 -3.71309,4.19782 -1.37556,-2.58876 -2.57566,-9.87553 2.19689,-8.58129 l 0.53633,-0.78387 z m -2.23815,3.21799 c 2.51299,2.92506 0.77379,6.38483 3.70275,9.37548 -1.85475,2.13946 -3.14728,-6.73167 -4.105,0 -6.06862,3.77392 3.97829,-6.94278 0.40225,-9.37548 z"
         id="text8"
         aria-label="五路财" /><path
         style="font-size:21.1232px;font-family:'SentyZHAO 新蒂赵孟頫';-inkscape-font-specification:'SentyZHAO 新蒂赵孟頫, Normal';fill:#ffb500;stroke:#4a0909;stroke-width:0.0929822;stroke-dasharray:none;stroke-opacity:1"
         d="m 186.36704,241.16241 c 3.97172,-0.0622 9.96431,6.57137 10.80553,6.96253 -5.58503,1.68886 -7.54579,-4.94508 -10.80553,-6.96253 z m -2.54757,3.11485 c 7.51885,1.23341 -8.40598,8.06626 -0.97468,2.18658 2.79633,-0.47814 -0.21584,-1.54777 0.97468,-2.18658 z m 28.20896,-7.41581 c 1.89847,4.47562 3.50234,3.1054 7.70973,3.41137 0.65701,0.58882 -10.22985,2.87145 -3.12003,3.70533 4.27532,2.15498 -5.24509,14.41156 -5.46648,6.54943 5.71759,3.10254 5.71707,-11.28558 0.80563,-3.07408 -3.02062,3.03604 -7.0882,3.79942 -1.87539,-0.29169 6.68688,-6.80219 -2.16932,-2.70519 -5.95411,-0.92488 -1.50357,-2.4266 14.41776,-6.74807 5.95121,-4.78568 6.63656,-1.73341 -2.8463,-3.98681 1.94944,-4.5898 z m 26.15646,0.99015 c 3.20717,2.1653 4.17769,5.28131 2.24844,7.96812 3.59542,1.37001 -1.44688,3.17248 -0.49508,6.66753 -1.72268,-1.18875 -0.77639,-5.52649 -3.02202,-5.75521 7.81515,-2.81655 -8.79703,0.0979 0.33452,-2.81689 3.20752,-0.95694 1.1208,-3.72276 0.93414,-6.06355 z m -6.53912,0.48476 c 4.29685,1.22494 -0.92677,15.69481 0.39197,5.36331 -0.62327,-8.6125 -4.11439,0.7195 -3.71309,4.19782 -1.37556,-2.58876 -2.57566,-9.87553 2.19689,-8.58129 l 0.53633,-0.78387 z m -2.23815,3.21799 c 2.51301,2.92505 0.77378,6.38483 3.70275,9.37548 -1.85475,2.13946 -3.14728,-6.73167 -4.105,0 -6.06862,3.77392 3.97829,-6.94278 0.40225,-9.37548 z"
         id="text9"
         aria-label="八方财" /><path
         id="text5"
         style="font-size:66.6539px;font-family:'SentyZHAO 新蒂赵孟頫';-inkscape-font-specification:'SentyZHAO 新蒂赵孟頫, Normal';writing-mode:vertical-lr;display:inline;fill:#ffb500;stroke:#4a0909;stroke-width:0.0929822;stroke-dasharray:none;stroke-opacity:1"
         d="m 162.75781,86.994141 c -2.04901,5.719826 4.5971,12.241279 0.54132,17.242569 -3.93037,2.99294 -9.88461,5.2956 -14.19438,5.78203 0.21737,-5.86529 0.36689,-11.822501 0.70783,-17.684801 -1.6223,-5.629501 -9.90373,-4.63258 -11.82272,0.166684 -3.714,2.350532 -9.82948,-4.156676 -9.59534,3.043218 -0.34599,5.444459 0.7945,10.908849 -0.29116,16.328539 -0.53995,3.61793 -0.61916,9.00952 3.86799,10.06816 -3.88204,2.71779 -9.13216,10.61036 -2.05509,12.73775 5.82501,0.5955 6.50421,-7.375 9.28085,-9.72012 1.57374,3.39237 4.70832,12.1092 9.31519,6.99852 2.95096,-4.2641 -4.17436,-8.84072 0.5328,-12.66899 -0.52498,-3.27402 0.38906,-7.48612 4.46149,-4.84555 4.69196,-0.15576 1.79215,5.97046 6.70759,6.08429 5.82684,0.21087 7.05223,6.66927 2.36915,9.40894 -0.16071,5.44502 9.21095,9.13362 10.05577,2.01625 -0.10726,-3.84823 -1.90587,-11.19523 4.13587,-11.08443 5.78525,-2.28994 -2.77697,-6.48322 -4.52678,-8.00456 -1.72935,-5.31871 8.85953,-4.47145 4.24741,-9.75165 -5.47679,-1.09148 -3.60804,-6.155294 -5.2038,-10.319995 -1.02017,-3.864684 -4.55367,-6.382777 -8.53399,-5.796854 z m -20.36523,10.316406 c 0.35067,4.476333 0.80905,9.072713 -0.12949,13.503623 1.53728,-4.3967 -2.13206,-10.02195 -3.79357,-12.257626 1.23978,-0.292155 2.64828,-1.93551 3.92306,-1.245997 z m -6.22461,9.318363 c 0.24634,2.37136 -0.528,5.46384 -0.29873,1.29672 0.0221,0.2585 0.0996,-3.0169 0.29873,-1.29672 z m 28.99609,5.86718 c 0.51307,4.08392 -9.88713,2.45847 -2.6487,1.07405 0.87882,-0.36793 1.75964,-0.73141 2.6487,-1.07405 z m -23.74023,5.11719 c 0.66377,1.27295 -0.60109,0.1449 0,0 z m 9.83789,29.20508 c -4.60842,0.96506 1.62537,8.58084 -4.99888,7.38542 -4.33928,2.49288 -13.4654,0.72322 -14.86012,5.57588 2.48297,4.28751 2.71121,8.72841 1.17791,13.36045 -0.99921,7.73884 -3.44266,15.24841 -3.82617,23.04915 -0.82788,5.83463 -3.17665,11.5123 -7.04938,15.98847 0.77747,6.24301 10.40984,1.44269 11.23575,-3.00077 6.49804,-12.87485 5.87927,-27.64144 7.53327,-41.59259 0.7482,-4.58794 9.90472,-9.58364 11.38492,-3.74789 -2.40514,3.08196 -12.74667,3.15504 -7.5721,8.58547 2.19155,1.59212 7.42731,2.11171 3.22614,5.23086 -3.76979,3.97715 -12.17585,11.73843 -3.25849,15.09194 4.2672,3.12212 8.20884,-3.57781 11.11627,-2.70308 -0.60931,5.67361 -8.37549,3.60513 -12.35659,5.47691 -5.8886,-2.02232 -6.79748,8.40405 -1.30266,7.78704 4.17507,-0.67353 11.01263,-4.35008 13.60796,-2.77236 0.70845,5.47826 -2.17426,14.0899 3.61518,17.20703 4.70051,-2.34234 2.98496,-9.57899 3.91632,-14.0786 -0.80123,-6.00948 4.04808,-10.2889 9.84188,-8.74677 3.39285,-1.0156 9.66076,2.74203 10.94034,-0.0312 0.23766,-5.89686 -6.93804,-8.11871 -11.72215,-6.79264 -2.62375,1.29764 -12.01919,3.19635 -7.06263,-1.85016 0.78791,5.22018 11.11946,-2.31997 5.8517,-6.12895 -2.90237,-2.45795 -7.17031,-0.59369 -8.39205,-5.31765 -5.57494,-3.97144 5.51336,-5.58544 7.21215,-7.36921 0.48713,-6.66217 -8.34648,-5.23035 -12.14246,-7.99027 2.35058,-2.33458 11.45012,-0.53896 12.34177,-6.20417 -1.28704,-5.69288 -9.0344,-1.64977 -12.53592,-3.67137 -1.58974,-1.50371 -3.60042,-3.00073 -5.92196,-2.74093 z m 4.2168,32.42578 c 0.56362,3.04416 -4.00764,3.54847 -0.78502,0.71554 -0.004,0.48495 0.80652,-1.79418 0.78502,-0.71554 z" /></g><path
       id="path34"
       style="baseline-shift:baseline;display:inline;overflow:visible;opacity:1;fill:#fe0707;stroke-width:0.150267;stroke-dasharray:none;enable-background:accumulate;stop-color:#000000;stop-opacity:1"
       d="m 219.25638,216.81524 c -3.72852,0.87322 -7.80829,-1.02029 -11.33487,0.9019 -1.79901,1.38685 -1.66538,3.9629 -2.06499,6.01231 -0.80154,7.17384 0.79558,14.34977 0.26766,21.531 0.62241,2.69234 3.44512,3.91092 5.9107,3.88892 2.44122,0.0709 4.88403,-0.18125 7.32133,-0.18706 3.40581,-0.47653 6.0151,-4.11262 5.34018,-7.61333 -0.39827,-3.1688 0.0298,-6.36764 0.0194,-9.55195 0.0876,-3.48178 0.10382,-6.97631 -0.26238,-10.44343 0.64303,-2.46413 -1.57705,-4.92305 -3.98975,-4.68873 -0.40622,0.003 -0.8117,0.0557 -1.20727,0.15037 z m 0.46705,1.13877 c 1.83472,-0.42788 3.43303,1.26015 3.54324,3.07183 0.47272,2.90186 0.0458,5.8565 0.21071,8.78041 -0.0136,3.77269 -0.15906,7.5439 -0.38528,11.30908 0.92624,2.24808 -0.32798,4.90778 -2.4608,5.82605 -1.96093,1.06241 -4.26377,1.33282 -6.43885,1.00161 -2.85968,1.05734 -6.54261,-0.77127 -6.95637,-4.01741 -0.25951,-1.81506 0.50241,-3.57055 0.22956,-5.39637 -0.20645,-6.08965 -1.56131,-12.42252 0.58587,-18.31955 1.07885,-2.21046 3.84659,-2.3632 5.96024,-2.21672 1.90374,0.17406 3.81656,0.32511 5.71168,-0.0389 z m -4.40555,29.87464 c 0.88064,0.026 -0.60831,0.51374 0,0 z m -7.95195,-21.88486 c 0.28359,1.31627 1.53335,-0.2973 2.03371,-0.72174 0.84248,-0.65479 1.64109,-1.3648 2.48241,-2.03277 0.87305,-0.69508 1.75571,-1.39085 2.49858,-2.22872 2.76839,1.33236 4.94436,3.55431 7.40225,5.34588 0.65644,0.23885 1.17196,-0.29921 0.43324,-0.68364 -0.90161,-0.68346 -1.87831,-1.27213 -2.64427,-2.11767 -1.34767,-1.18609 -3.00628,-1.97198 -4.28711,-3.23805 0.54509,-1.31411 -1.15865,-0.36766 -1.54641,0.10713 -0.5749,0.54453 -1.01755,1.19272 -1.67991,1.65114 -1.55553,1.31649 -3.15507,2.58046 -4.69249,3.91844 z m -0.0142,0.0986 c 0.63994,-0.48174 0.54067,0.46057 0,0 z m 5.24317,-1.93251 c -0.20162,1.21294 1.42258,0.72336 2.13483,0.74966 0.79357,-0.0668 2.04103,0.87768 2.37431,-0.32135 -0.51158,-0.54212 -1.5242,-0.0479 -2.23459,-0.35137 -0.74997,-0.11535 -1.52157,-0.24378 -2.27455,-0.0769 z m 3.39356,-2.57852 -0.026,0.11383 z m -3.58275,5.01058 c -0.25099,1.26007 1.5227,0.53343 2.03539,1.19052 -0.26242,0.83443 0.65445,1.92342 -0.2825,2.60303 -0.89905,0.26282 -2.19854,-0.35331 -2.61612,0.93032 -0.4333,1.36111 0.89481,2.87007 2.28945,2.74413 1.17547,0.32287 2.52802,-0.35896 3.60354,0.35244 0.68541,0.82673 0.41121,2.05385 0.37198,3.05053 -0.1523,1.32914 -0.63663,2.60865 -0.71761,3.94357 0.002,1.04653 1.36754,0.69983 0.97091,-0.22658 -0.1895,-1.93783 1.11517,-3.80719 0.503,-5.74771 0.27677,-1.0584 -0.51499,-2.12995 -1.62357,-2.11735 -1.14473,-0.12515 -2.30431,0.0603 -3.4434,-0.006 -0.80892,-0.1685 -1.58598,-1.36085 -0.85996,-2.02065 1.02248,-0.0969 2.02974,-0.28319 3.07419,-0.53302 1.18626,-0.20661 2.67302,-0.56395 3.10515,-1.84978 0.53323,-1.12884 -0.54823,-2.17637 -1.62642,-2.28606 -1.19214,-0.29015 -2.38945,0.15899 -3.59184,-0.01 -0.39702,-0.0183 -0.79481,-0.0352 -1.19219,-0.0173 z m -0.26183,4.03582 c 0.098,0.0137 0.0597,0.008 0,0 z m 3.04885,-3.18116 c 0.91831,-0.36937 2.20144,-0.22153 2.81077,0.62145 0.36119,0.94087 -0.81966,1.67334 -1.61477,1.80956 -0.97082,0.14841 -1.4567,-0.98238 -1.31568,-1.79198 0.0187,-0.21628 0.0602,-0.43035 0.11968,-0.63903 z m -3.73719,4.77875 c -0.014,0.098 -0.009,0.0599 0,0 z m 0.29955,-0.23559 0.0497,-0.01 z m 4.09229,-1.76509 0.0101,0.05 z m 2.25422,-2.43018 c -0.0138,0.0979 -0.008,0.0597 0,0 z m 0.0859,0.23806 0.002,0.0475 z m -0.23591,8.46745 5.3e-4,0.0433 z m 0.54158,0.82101 0.0376,-0.0266 z m -1.03057,4.85221 c 0.37516,-0.17313 0.42816,0.20112 0,0 z m 0.52008,-0.39011 0.003,0.0344 z" /></g></svg>
